Italic_opsz6.ufo
<glyph name="comma" format="2">
  <advance width="379"/>
  <unicode hex="002C"/>
  <outline>
    <contour>
      <point x="129" y="61" type="curve" smooth="yes"/>
      <point x="129" y="31"/>
      <point x="150" y="0"/>
      <point x="190" y="0" type="curve" smooth="yes"/>
      <point x="205" y="0"/>
      <point x="218" y="4"/>
      <point x="229" y="14" type="curve"/>
      <point x="229" y="14" type="line"/>
      <point x="229" y="14" type="line"/>
      <point x="229" y="-81"/>
      <point x="180" y="-136"/>
      <point x="155" y="-158" type="curve" smooth="yes"/>
      <point x="145" y="-168"/>
      <point x="142" y="-170"/>
      <point x="142" y="-176" type="curve" smooth="yes"/>
      <point x="142" y="-185"/>
      <point x="151" y="-194"/>
      <point x="159" y="-194" type="curve" smooth="yes"/>
      <point x="173" y="-194"/>
      <point x="263" y="-114"/>
      <point x="263" y="9" type="curve" smooth="yes"/>
      <point x="263" y="72"/>
      <point x="237" y="121"/>
      <point x="189" y="121" type="curve" smooth="yes"/>
      <point x="150" y="121"/>
      <point x="129" y="90"/>
    </contour>
  </outline>
</glyph>
<glyph name="period" format="2">
  <advance width="379"/>
  <unicode hex="002E"/>
  <outline>
    <contour>
      <point x="250" y="60" type="curve" smooth="yes"/>
      <point x="250" y="96"/>
      <point x="221" y="121"/>
      <point x="190" y="121" type="curve" smooth="yes"/>
      <point x="154" y="121"/>
      <point x="129" y="92"/>
      <point x="129" y="61" type="curve" smooth="yes"/>
      <point x="129" y="27"/>
      <point x="156" y="0"/>
      <point x="190" y="0" type="curve" smooth="yes"/>
      <point x="222" y="0"/>
      <point x="250" y="28"/>
    </contour>
  </outline>
</glyph>
<glyph name="zero" format="2">
  <advance width="638"/>
  <unicode hex="0030"/>
  <outline>
    <contour>
      <point x="563" y="213" type="curve" smooth="yes"/>
      <point x="563" y="373"/>
      <point x="477" y="452"/>
      <point x="319" y="452" type="curve" smooth="yes"/>
      <point x="151" y="452"/>
      <point x="75" y="363"/>
      <point x="75" y="213" type="curve" smooth="yes"/>
      <point x="75" y="59"/>
      <point x="156" y="-21"/>
      <point x="319" y="-21" type="curve" smooth="yes"/>
      <point x="485" y="-21"/>
      <point x="563" y="62"/>
    </contour>
    <contour>
      <point x="319" y="12" type="curve" smooth="yes"/>
      <point x="259.00015" y="12.0"/>
      <point x="222.84124039750003" y="27.315041182499996"/>
      <point x="201.05007352555333" y="52.86347446787961" type="curve" smooth="yes"/>
      <point x="168.0" y="91.61209235999999"/>
      <point x="168.0" y="153.90054999999998"/>
      <point x="168" y="222" type="curve" smooth="yes"/>
      <point x="168.0" y="280.10635"/>
      <point x="168.0" y="333.1993438575"/>
      <point x="192.18223300181637" y="369.5882331676484" type="curve" smooth="yes"/>
      <point x="212.5303986775" y="400.207702775"/>
      <point x="250.00054999999998" y="419.0"/>
      <point x="319" y="419" type="curve" smooth="yes"/>
      <point x="385.00059" y="419.0"/>
      <point x="422.1529821169" y="401.805709871"/>
      <point x="443.06643516342416" y="373.5129964562375" type="curve" smooth="yes"/>
      <point x="470.0" y="337.07598964230004"/>
      <point x="470.0" y="282.23137"/>
      <point x="470" y="222" type="curve" smooth="yes"/>
      <point x="470.0" y="147.91381"/>
      <point x="470.0" y="80.70523115040001"/>
      <point x="427.44472512630944" y="43.201927456292296" type="curve" smooth="yes"/>
      <point x="405.0925447681" y="23.503297599299994"/>
      <point x="370.99987000000004" y="11.99999999999999"/>
    </contour>
  </outline>
</glyph>
<glyph name="three" format="2">
  <advance width="638"/>
  <unicode hex="0033"/>
  <outline>
    <contour>
      <point x="314" y="-215" type="curve" smooth="yes"/>
      <point x="463" y="-215"/>
      <point x="561" y="-120"/>
      <point x="561" y="-26" type="curve" smooth="yes"/>
      <point x="561" y="55"/>
      <point x="489" y="124"/>
      <point x="387" y="148" type="curve"/>
      <point x="474" y="175"/>
      <point x="529" y="242"/>
      <point x="529" y="314" type="curve" smooth="yes"/>
      <point x="529" y="396"/>
      <point x="429" y="452"/>
      <point x="316" y="452" type="curve" smooth="yes"/>
      <point x="197" y="452"/>
      <point x="109" y="400"/>
      <point x="109" y="319" type="curve" smooth="yes"/>
      <point x="109" y="279"/>
      <point x="140" y="266"/>
      <point x="161" y="266" type="curve" smooth="yes"/>
      <point x="185" y="266"/>
      <point x="212" y="284"/>
      <point x="212" y="317" type="curve" smooth="yes"/>
      <point x="212" y="336"/>
      <point x="202" y="363"/>
      <point x="165" y="368" type="curve"/>
      <point x="202" y="407"/>
      <point x="259" y="418"/>
      <point x="313" y="418" type="curve" smooth="yes"/>
      <point x="371" y="418"/>
      <point x="430" y="391"/>
      <point x="430" y="315" type="curve" smooth="yes"/>
      <point x="430.0" y="275.31523"/>
      <point x="414.9142611477" y="231.4204863668"/>
      <point x="384.5349826528766" y="201.18663705961166" type="curve" smooth="yes"/>
      <point x="363.62477001160005" y="180.3765240714"/>
      <point x="335.46903000000003" y="166.03845"/>
      <point x="300" y="164" type="curve" smooth="yes"/>
      <point x="281" y="163"/>
      <point x="263" y="162"/>
      <point x="244" y="161" type="curve" smooth="yes"/>
      <point x="232" y="160"/>
      <point x="222" y="159"/>
      <point x="222" y="143" type="curve" smooth="yes"/>
      <point x="222" y="127"/>
      <point x="233" y="127"/>
      <point x="252" y="127" type="curve" smooth="yes"/>
      <point x="307" y="127" type="line" smooth="yes"/>
      <point x="405" y="127"/>
      <point x="452" y="61"/>
      <point x="452" y="-26" type="curve" smooth="yes"/>
      <point x="452" y="-128"/>
      <point x="390" y="-178"/>
      <point x="311" y="-178" type="curve" smooth="yes"/>
      <point x="276" y="-178"/>
      <point x="178" y="-170"/>
      <point x="136" y="-117" type="curve"/>
      <point x="183" y="-112"/>
      <point x="188" y="-75"/>
      <point x="188" y="-62" type="curve" smooth="yes"/>
      <point x="188" y="-27"/>
      <point x="160" y="-7"/>
      <point x="133" y="-7" type="curve" smooth="yes"/>
      <point x="108" y="-7"/>
      <point x="77" y="-23"/>
      <point x="77" y="-64" type="curve" smooth="yes"/>
      <point x="77" y="-161"/>
      <point x="187" y="-215"/>
    </contour>
  </outline>
</glyph>
<glyph name="eight" format="2">
  <advance width="638"/>
  <unicode hex="0038"/>
  <outline>
    <contour>
      <point x="318" y="-21" type="curve" smooth="yes"/>
      <point x="450" y="-21"/>
      <point x="561" y="58"/>
      <point x="561" y="169" type="curve" smooth="yes"/>
      <point x="561" y="229"/>
      <point x="527" y="287"/>
      <point x="456" y="327" type="curve" smooth="yes"/>
      <point x="443" y="335"/>
      <point x="410" y="353"/>
      <point x="397" y="360" type="curve"/>
      <point x="446" y="384"/>
      <point x="529" y="425"/>
      <point x="529" y="515" type="curve" smooth="yes"/>
      <point x="529" y="612"/>
      <point x="425" y="665"/>
      <point x="320" y="665" type="curve" smooth="yes"/>
      <point x="204" y="665"/>
      <point x="109" y="594"/>
      <point x="109" y="498" type="curve" smooth="yes"/>
      <point x="109" y="431"/>
      <point x="156" y="384"/>
      <point x="193" y="362" type="curve" smooth="yes"/>
      <point x="208" y="354"/>
      <point x="223" y="345"/>
      <point x="238" y="337" type="curve"/>
      <point x="168" y="310"/>
      <point x="77" y="253"/>
      <point x="77" y="154" type="curve" smooth="yes"/>
      <point x="77" y="39"/>
      <point x="200" y="-21"/>
    </contour>
    <contour>
      <point x="320" y="16" type="curve" smooth="yes"/>
      <point x="228" y="16"/>
      <point x="140" y="68"/>
      <point x="140" y="154" type="curve" smooth="yes"/>
      <point x="140" y="254"/>
      <point x="244" y="302"/>
      <point x="276" y="316" type="curve"/>
      <point x="323" y="290"/>
      <point x="370" y="264"/>
      <point x="417" y="238" type="curve" smooth="yes"/>
      <point x="446" y="222"/>
      <point x="498" y="193"/>
      <point x="498" y="136" type="curve" smooth="yes"/>
      <point x="498" y="57"/>
      <point x="406" y="16"/>
    </contour>
    <contour>
      <point x="359" y="381" type="curve"/>
      <point x="349" y="386"/>
      <point x="258" y="436"/>
      <point x="239" y="447" type="curve" smooth="yes"/>
      <point x="201" y="468"/>
      <point x="164" y="489"/>
      <point x="164" y="534" type="curve" smooth="yes"/>
      <point x="164" y="599"/>
      <point x="243" y="631"/>
      <point x="318" y="631" type="curve" smooth="yes"/>
      <point x="400" y="631"/>
      <point x="474" y="586"/>
      <point x="474" y="515" type="curve" smooth="yes"/>
      <point x="474" y="439"/>
      <point x="395" y="396"/>
    </contour>
  </outline>
</glyph>
<glyph name="less" format="2">
  <advance width="962"/>
  <unicode hex="003C"/>
  <outline>
    <contour>
      <point x="812" y="535" type="line" smooth="yes"/>
      <point x="827" y="542"/>
      <point x="837" y="547"/>
      <point x="837" y="563" type="curve" smooth="yes"/>
      <point x="837" y="577"/>
      <point x="825" y="589"/>
      <point x="811" y="589" type="curve" smooth="yes"/>
      <point x="808" y="589"/>
      <point x="804" y="589"/>
      <point x="792" y="583" type="curve" smooth="yes"/>
      <point x="150" y="278" type="line" smooth="yes"/>
      <point x="135" y="271"/>
      <point x="125" y="266"/>
      <point x="125" y="250" type="curve" smooth="yes"/>
      <point x="125" y="238"/>
      <point x="131" y="230"/>
      <point x="148" y="222" type="curve" smooth="yes"/>
      <point x="789" y="-82" type="line" smooth="yes"/>
      <point x="803" y="-89"/>
      <point x="810" y="-89"/>
      <point x="811" y="-89" type="curve" smooth="yes"/>
      <point x="825" y="-89"/>
      <point x="837" y="-77"/>
      <point x="837" y="-63" type="curve" smooth="yes"/>
      <point x="837" y="-52"/>
      <point x="831" y="-43"/>
      <point x="814" y="-35" type="curve" smooth="yes"/>
      <point x="212" y="250" type="line"/>
    </contour>
  </outline>
</glyph>
<glyph name="greater" format="2">
  <advance width="962"/>
  <unicode hex="003E"/>
  <outline>
    <contour>
      <point x="812" y="222" type="line" smooth="yes"/>
      <point x="827" y="229"/>
      <point x="837" y="234"/>
      <point x="837" y="250" type="curve" smooth="yes"/>
      <point x="837" y="262"/>
      <point x="831" y="270"/>
      <point x="814" y="278" type="curve" smooth="yes"/>
      <point x="173" y="582" type="line" smooth="yes"/>
      <point x="159" y="589"/>
      <point x="152" y="589"/>
      <point x="151" y="589" type="curve" smooth="yes"/>
      <point x="137" y="589"/>
      <point x="125" y="577"/>
      <point x="125" y="563" type="curve" smooth="yes"/>
      <point x="125" y="552"/>
      <point x="131" y="543"/>
      <point x="148" y="535" type="curve" smooth="yes"/>
      <point x="750" y="250" type="line"/>
      <point x="150" y="-35" type="line" smooth="yes"/>
      <point x="135" y="-42"/>
      <point x="125" y="-47"/>
      <point x="125" y="-63" type="curve" smooth="yes"/>
      <point x="125" y="-77"/>
      <point x="137" y="-89"/>
      <point x="151" y="-89" type="curve" smooth="yes"/>
      <point x="154" y="-89"/>
      <point x="158" y="-89"/>
      <point x="170" y="-83" type="curve" smooth="yes"/>
    </contour>
  </outline>
</glyph>
<glyph name="C" format="2">
  <advance width="883"/>
  <unicode hex="0043"/>
  <outline>
    <contour>
      <point x="85" y="267" type="curve" smooth="yes"/>
      <point x="85" y="95"/>
      <point x="225" y="-21"/>
      <point x="411" y="-21" type="curve" smooth="yes"/>
      <point x="515" y="-21"/>
      <point x="606" y="22"/>
      <point x="665" y="68" type="curve" smooth="yes"/>
      <point x="764" y="147"/>
      <point x="780" y="236"/>
      <point x="780" y="241" type="curve" smooth="yes"/>
      <point x="780" y="251"/>
      <point x="771" y="255"/>
      <point x="762" y="255" type="curve" smooth="yes"/>
      <point x="750" y="255"/>
      <point x="746" y="251"/>
      <point x="743" y="241" type="curve" smooth="yes"/>
      <point x="723.86096" y="178.79811999999998"/>
      <point x="687.3924881939" y="130.90494516099997"/>
      <point x="643.4203962636007" y="95.79905948064116" type="curve" smooth="yes"/>
      <point x="577.1121181934" y="42.86069045139999"/>
      <point x="493.74096999999995" y="18.99999999999999"/>
      <point x="427" y="19" type="curve" smooth="yes"/>
      <point x="353" y="19"/>
      <point x="190" y="49"/>
      <point x="190" y="239" type="curve" smooth="yes"/>
      <point x="190" y="279"/>
      <point x="199" y="417"/>
      <point x="309" y="538" type="curve" smooth="yes"/>
      <point x="362" y="597"/>
      <point x="469" y="664"/>
      <point x="594" y="664" type="curve" smooth="yes"/>
      <point x="723" y="664"/>
      <point x="790" y="572"/>
      <point x="790" y="467" type="curve" smooth="yes"/>
      <point x="790" y="450"/>
      <point x="787" y="432"/>
      <point x="787" y="430" type="curve" smooth="yes"/>
      <point x="787" y="415"/>
      <point x="802" y="415"/>
      <point x="807" y="415" type="curve" smooth="yes"/>
      <point x="820" y="415"/>
      <point x="825" y="416"/>
      <point x="830" y="437" type="curve" smooth="yes"/>
      <point x="889" y="675" type="line" smooth="yes"/>
      <point x="891" y="684"/>
      <point x="892" y="688"/>
      <point x="892" y="690" type="curve" smooth="yes"/>
      <point x="892" y="694"/>
      <point x="890" y="704"/>
      <point x="877" y="704" type="curve" smooth="yes"/>
      <point x="869" y="704"/>
      <point x="868" y="703"/>
      <point x="858" y="692" type="curve" smooth="yes"/>
      <point x="783" y="614" type="line"/>
      <point x="783" y="614" type="line"/>
      <point x="783" y="614" type="line"/>
      <point x="729" y="681"/>
      <point x="656" y="704"/>
      <point x="584" y="704" type="curve" smooth="yes"/>
      <point x="330" y="704"/>
      <point x="85" y="490"/>
    </contour>
  </outline>
</glyph>
<glyph name="F" format="2">
  <advance width="775"/>
  <unicode hex="0046"/>
  <outline>
    <contour>
      <point x="364" y="320" type="line"/>
      <point x="479" y="320" type="line" smooth="yes"/>
      <point x="559" y="320"/>
      <point x="572" y="307"/>
      <point x="572" y="274" type="curve" smooth="yes"/>
      <point x="572" y="260"/>
      <point x="566" y="231"/>
      <point x="562" y="217" type="curve"/>
      <point x="562" y="216"/>
      <point x="564" y="203"/>
      <point x="581" y="203" type="curve" smooth="yes"/>
      <point x="595" y="203"/>
      <point x="597" y="208"/>
      <point x="601" y="225" type="curve" smooth="yes"/>
      <point x="661" y="463" type="line"/>
      <point x="661" y="464"/>
      <point x="659" y="477"/>
      <point x="642" y="477" type="curve" smooth="yes"/>
      <point x="627" y="477"/>
      <point x="625" y="470"/>
      <point x="622" y="457" type="curve" smooth="yes"/>
      <point x="600" y="378"/>
      <point x="576" y="360"/>
      <point x="482" y="360" type="curve" smooth="yes"/>
      <point x="375" y="360" type="line"/>
      <point x="395.313" y="441.58500000000004"/>
      <point x="415.626" y="523.1700000000001"/>
      <point x="436" y="605" type="curve" smooth="yes"/>
      <point x="444" y="637"/>
      <point x="445" y="639"/>
      <point x="487" y="639" type="curve" smooth="yes"/>
      <point x="651" y="639" type="line" smooth="yes"/>
      <point x="782" y="639"/>
      <point x="818" y="614"/>
      <point x="818" y="522" type="curve" smooth="yes"/>
      <point x="818" y="500"/>
      <point x="814" y="465"/>
      <point x="814" y="462" type="curve" smooth="yes"/>
      <point x="814" y="445"/>
      <point x="828" y="445"/>
      <point x="833" y="445" type="curve" smooth="yes"/>
      <point x="849" y="445"/>
      <point x="850" y="453"/>
      <point x="852" y="471" type="curve" smooth="yes"/>
      <point x="870" y="648" type="line" smooth="yes"/>
      <point x="873" y="679"/>
      <point x="865" y="679"/>
      <point x="840" y="679" type="curve" smooth="yes"/>
      <point x="278" y="679" type="line" smooth="yes"/>
      <point x="259" y="679"/>
      <point x="244" y="679"/>
      <point x="244" y="654" type="curve" smooth="yes"/>
      <point x="244" y="639"/>
      <point x="259" y="639"/>
      <point x="277" y="639" type="curve" smooth="yes"/>
      <point x="286.5625" y="639.0"/>
      <point x="298.1005859375" y="639.0"/>
      <point x="309.9649963378906" y="637.9504699707031" type="curve" smooth="yes"/>
      <point x="320.43359375" y="637.0244140625"/>
      <point x="331.15625" y="635.28125"/>
      <point x="341" y="632" type="curve"/>
      <point x="341" y="622"/>
      <point x="341" y="616"/>
      <point x="337" y="600" type="curve" smooth="yes"/>
      <point x="207" y="83" type="line" smooth="yes"/>
      <point x="198" y="47"/>
      <point x="196" y="40"/>
      <point x="121" y="40" type="curve" smooth="yes"/>
      <point x="96" y="40"/>
      <point x="90" y="41"/>
      <point x="86" y="23" type="curve" smooth="yes"/>
      <point x="83" y="8"/>
      <point x="86" y="0"/>
      <point x="102" y="0" type="curve" smooth="yes"/>
      <point x="123" y="0"/>
      <point x="157" y="3"/>
      <point x="179" y="3" type="curve" smooth="yes"/>
      <point x="230" y="4"/>
      <point x="262" y="4"/>
      <point x="313" y="3" type="curve" smooth="yes"/>
      <point x="337" y="3"/>
      <point x="375" y="0"/>
      <point x="399" y="0" type="curve" smooth="yes"/>
      <point x="406" y="0"/>
      <point x="423" y="0"/>
      <point x="423" y="25" type="curve" smooth="yes"/>
      <point x="423" y="40"/>
      <point x="411" y="40"/>
      <point x="386" y="40" type="curve" smooth="yes"/>
      <point x="383" y="40"/>
      <point x="358" y="40"/>
      <point x="334" y="42" type="curve" smooth="yes"/>
      <point x="303" y="44"/>
      <point x="300" y="47"/>
      <point x="300" y="58" type="curve" smooth="yes"/>
      <point x="300" y="59"/>
      <point x="300" y="64"/>
      <point x="304" y="79" type="curve" smooth="yes"/>
    </contour>
  </outline>
</glyph>
<glyph name="G" format="2">
  <advance width="952"/>
  <unicode hex="0047"/>
  <outline>
    <contour>
      <point x="85" y="266" type="curve" smooth="yes"/>
      <point x="85" y="108"/>
      <point x="210" y="-21"/>
      <point x="415" y="-21" type="curve" smooth="yes"/>
      <point x="488" y="-21"/>
      <point x="597" y="-9"/>
      <point x="661" y="56" type="curve"/>
      <point x="667" y="43"/>
      <point x="696" y="0"/>
      <point x="711" y="0" type="curve" smooth="yes"/>
      <point x="715" y="0"/>
      <point x="720" y="1"/>
      <point x="722" y="6" type="curve" smooth="yes"/>
      <point x="730" y="23"/>
      <point x="763.50958" y="170.78354"/>
      <point x="771" y="197" type="curve" smooth="yes"/>
      <point x="781" y="236"/>
      <point x="784" y="236"/>
      <point x="842" y="237" type="curve" smooth="yes"/>
      <point x="852" y="237"/>
      <point x="867" y="237"/>
      <point x="867" y="262" type="curve" smooth="yes"/>
      <point x="867" y="271"/>
      <point x="860" y="277"/>
      <point x="851" y="277" type="curve" smooth="yes"/>
      <point x="833" y="277"/>
      <point x="812" y="274"/>
      <point x="794" y="274" type="curve" smooth="yes"/>
      <point x="748" y="273"/>
      <point x="700" y="273"/>
      <point x="650" y="274" type="curve" smooth="yes"/>
      <point x="613" y="275"/>
      <point x="593" y="277"/>
      <point x="566" y="277" type="curve" smooth="yes"/>
      <point x="552" y="277"/>
      <point x="549" y="277"/>
      <point x="543" y="260" type="curve" smooth="yes"/>
      <point x="537" y="244"/>
      <point x="546" y="237"/>
      <point x="565" y="237" type="curve" smooth="yes"/>
      <point x="603" y="237"/>
      <point x="623" y="236"/>
      <point x="642" y="235" type="curve" smooth="yes"/>
      <point x="675" y="232"/>
      <point x="677" y="228"/>
      <point x="677" y="217" type="curve" smooth="yes"/>
      <point x="677" y="211"/>
      <point x="659" y="143"/>
      <point x="656" y="131" type="curve" smooth="yes"/>
      <point x="651" y="109"/>
      <point x="641" y="70"/>
      <point x="575" y="43" type="curve" smooth="yes"/>
      <point x="517" y="19"/>
      <point x="451" y="19"/>
      <point x="438" y="19" type="curve" smooth="yes"/>
      <point x="323" y="19"/>
      <point x="190" y="72"/>
      <point x="190" y="240" type="curve" smooth="yes"/>
      <point x="190" y="306"/>
      <point x="214" y="440"/>
      <point x="315" y="546" type="curve" smooth="yes"/>
      <point x="348" y="580"/>
      <point x="452" y="664"/>
      <point x="595" y="664" type="curve" smooth="yes"/>
      <point x="721" y="664"/>
      <point x="791" y="575"/>
      <point x="791" y="467" type="curve" smooth="yes"/>
      <point x="791" y="450"/>
      <point x="788" y="432"/>
      <point x="788" y="430" type="curve" smooth="yes"/>
      <point x="788" y="415"/>
      <point x="803" y="415"/>
      <point x="808" y="415" type="curve" smooth="yes"/>
      <point x="821" y="415"/>
      <point x="826" y="416"/>
      <point x="831" y="437" type="curve" smooth="yes"/>
      <point x="892" y="684" type="line" smooth="yes"/>
      <point x="894" y="693"/>
      <point x="891" y="704"/>
      <point x="878" y="704" type="curve" smooth="yes"/>
      <point x="871" y="704"/>
      <point x="868" y="702"/>
      <point x="859" y="692" type="curve" smooth="yes"/>
      <point x="794" y="624" type="line" smooth="yes"/>
      <point x="789" y="619"/>
      <point x="784" y="613"/>
      <point x="779" y="619" type="curve" smooth="yes"/>
      <point x="754" y="648"/>
      <point x="700" y="704"/>
      <point x="584" y="704" type="curve" smooth="yes"/>
      <point x="332" y="704"/>
      <point x="85" y="493"/>
    </contour>
  </outline>
</glyph>
<glyph name="H" format="2">
  <advance width="999"/>
  <unicode hex="0048"/>
  <outline>
    <contour>
      <point x="887" y="602" type="line" smooth="yes"/>
      <point x="895" y="635"/>
      <point x="897" y="643"/>
      <point x="977" y="643" type="curve" smooth="yes"/>
      <point x="995" y="643"/>
      <point x="1009" y="643"/>
      <point x="1009" y="667" type="curve" smooth="yes"/>
      <point x="1009" y="677"/>
      <point x="1002" y="683"/>
      <point x="992" y="683" type="curve" smooth="yes"/>
      <point x="971" y="683"/>
      <point x="947" y="680"/>
      <point x="925" y="680" type="curve" smooth="yes"/>
      <point x="903" y="680"/>
      <point x="880" y="679"/>
      <point x="858" y="679" type="curve" smooth="yes"/>
      <point x="835" y="679"/>
      <point x="812" y="680"/>
      <point x="789" y="680" type="curve" smooth="yes"/>
      <point x="767" y="680"/>
      <point x="742" y="683"/>
      <point x="720" y="683" type="curve" smooth="yes"/>
      <point x="714" y="683"/>
      <point x="697" y="683"/>
      <point x="697" y="658" type="curve" smooth="yes"/>
      <point x="697" y="643"/>
      <point x="712" y="643"/>
      <point x="730" y="643" type="curve" smooth="yes"/>
      <point x="748" y="643"/>
      <point x="773" y="643"/>
      <point x="794" y="636" type="curve"/>
      <point x="794" y="626"/>
      <point x="794" y="620"/>
      <point x="790" y="604" type="curve" smooth="yes"/>
      <point x="732" y="375" type="line"/>
      <point x="378" y="375" type="line"/>
      <point x="435" y="602" type="line" smooth="yes"/>
      <point x="443" y="635"/>
      <point x="445" y="643"/>
      <point x="525" y="643" type="curve" smooth="yes"/>
      <point x="543" y="643"/>
      <point x="557" y="643"/>
      <point x="557" y="667" type="curve" smooth="yes"/>
      <point x="557" y="677"/>
      <point x="550" y="683"/>
      <point x="540" y="683" type="curve" smooth="yes"/>
      <point x="519" y="683"/>
      <point x="495" y="680"/>
      <point x="473" y="680" type="curve" smooth="yes"/>
      <point x="451" y="680"/>
      <point x="428" y="679"/>
      <point x="406" y="679" type="curve" smooth="yes"/>
      <point x="383" y="679"/>
      <point x="360" y="680"/>
      <point x="337" y="680" type="curve" smooth="yes"/>
      <point x="315" y="680"/>
      <point x="290" y="683"/>
      <point x="268" y="683" type="curve" smooth="yes"/>
      <point x="262" y="683"/>
      <point x="245" y="683"/>
      <point x="245" y="658" type="curve" smooth="yes"/>
      <point x="245" y="643"/>
      <point x="260" y="643"/>
      <point x="278" y="643" type="curve" smooth="yes"/>
      <point x="296" y="643"/>
      <point x="321" y="643"/>
      <point x="342" y="636" type="curve"/>
      <point x="342" y="626"/>
      <point x="342" y="620"/>
      <point x="338" y="604" type="curve" smooth="yes"/>
      <point x="207" y="83" type="line" smooth="yes"/>
      <point x="198" y="47"/>
      <point x="196" y="40"/>
      <point x="121" y="40" type="curve" smooth="yes"/>
      <point x="99" y="40"/>
      <point x="97" y="40"/>
      <point x="93" y="37" type="curve" smooth="yes"/>
      <point x="88" y="33"/>
      <point x="84" y="20"/>
      <point x="84" y="14" type="curve"/>
      <point x="85" y="10"/>
      <point x="86" y="0"/>
      <point x="102" y="0" type="curve" smooth="yes"/>
      <point x="123" y="0"/>
      <point x="147" y="3"/>
      <point x="169" y="3" type="curve" smooth="yes"/>
      <point x="192" y="3"/>
      <point x="214" y="4"/>
      <point x="236" y="4" type="curve" smooth="yes"/>
      <point x="259" y="4"/>
      <point x="282" y="3"/>
      <point x="305" y="3" type="curve" smooth="yes"/>
      <point x="327" y="3"/>
      <point x="352" y="0"/>
      <point x="374" y="0" type="curve" smooth="yes"/>
      <point x="380" y="0"/>
      <point x="387" y="0"/>
      <point x="391" y="7" type="curve"/>
      <point x="393" y="10"/>
      <point x="397" y="22"/>
      <point x="397" y="26" type="curve"/>
      <point x="394" y="40"/>
      <point x="385" y="40"/>
      <point x="362" y="40" type="curve" smooth="yes"/>
      <point x="350" y="40"/>
      <point x="335" y="41"/>
      <point x="324" y="42" type="curve" smooth="yes"/>
      <point x="306" y="44"/>
      <point x="299" y="44"/>
      <point x="299" y="55" type="curve" smooth="yes"/>
      <point x="299" y="59"/>
      <point x="300" y="63"/>
      <point x="303" y="73" type="curve" smooth="yes"/>
      <point x="368" y="335" type="line"/>
      <point x="722" y="335" type="line"/>
      <point x="655" y="66" type="line"/>
      <point x="647" y="47"/>
      <point x="644" y="41"/>
      <point x="567" y="40" type="curve"/>
      <point x="550" y="40"/>
      <point x="548" y="40"/>
      <point x="544" y="36" type="curve" smooth="yes"/>
      <point x="540" y="32"/>
      <point x="536" y="19"/>
      <point x="536" y="14" type="curve"/>
      <point x="537" y="10"/>
      <point x="538" y="0"/>
      <point x="554" y="0" type="curve" smooth="yes"/>
      <point x="575" y="0"/>
      <point x="599" y="3"/>
      <point x="621" y="3" type="curve" smooth="yes"/>
      <point x="644" y="3"/>
      <point x="666" y="4"/>
      <point x="688" y="4" type="curve" smooth="yes"/>
      <point x="711" y="4"/>
      <point x="734" y="3"/>
      <point x="757" y="3" type="curve" smooth="yes"/>
      <point x="779" y="3"/>
      <point x="804" y="0"/>
      <point x="826" y="0" type="curve" smooth="yes"/>
      <point x="832" y="0"/>
      <point x="839" y="0"/>
      <point x="843" y="7" type="curve"/>
      <point x="845" y="10"/>
      <point x="849" y="22"/>
      <point x="849" y="26" type="curve"/>
      <point x="846" y="40"/>
      <point x="837" y="40"/>
      <point x="814" y="40" type="curve" smooth="yes"/>
      <point x="802" y="40"/>
      <point x="787" y="41"/>
      <point x="776" y="42" type="curve" smooth="yes"/>
      <point x="758" y="44"/>
      <point x="751" y="44"/>
      <point x="751" y="55" type="curve" smooth="yes"/>
      <point x="751" y="59"/>
      <point x="752" y="63"/>
      <point x="755" y="73" type="curve" smooth="yes"/>
    </contour>
  </outline>
</glyph>
<glyph name="I" format="2">
  <advance width="547"/>
  <unicode hex="0049"/>
  <outline>
    <contour>
      <point x="206" y="82" type="line" smooth="yes"/>
      <point x="198" y="49"/>
      <point x="195" y="40"/>
      <point x="117" y="40" type="curve" smooth="yes"/>
      <point x="87" y="40"/>
      <point x="84" y="39"/>
      <point x="79" y="23" type="curve" smooth="yes"/>
      <point x="75" y="9"/>
      <point x="82" y="0"/>
      <point x="96" y="0" type="curve" smooth="yes"/>
      <point x="117" y="0"/>
      <point x="142" y="3"/>
      <point x="163" y="3" type="curve" smooth="yes"/>
      <point x="232" y="4"/>
      <point x="255" y="4"/>
      <point x="309" y="3" type="curve" smooth="yes"/>
      <point x="331" y="3"/>
      <point x="356" y="0"/>
      <point x="377" y="0" type="curve" smooth="yes"/>
      <point x="394" y="0"/>
      <point x="396" y="5"/>
      <point x="399" y="16" type="curve" smooth="yes"/>
      <point x="404" y="32"/>
      <point x="399" y="40"/>
      <point x="374" y="40" type="curve" smooth="yes"/>
      <point x="365" y="40"/>
      <point x="343" y="40"/>
      <point x="323" y="42" type="curve" smooth="yes"/>
      <point x="307" y="44"/>
      <point x="299" y="44"/>
      <point x="299" y="54" type="curve" smooth="yes"/>
      <point x="299" y="61"/>
      <point x="299" y="62"/>
      <point x="301" y="71" type="curve" smooth="yes"/>
      <point x="434" y="601" type="line" smooth="yes"/>
      <point x="442" y="635"/>
      <point x="445" y="643"/>
      <point x="523" y="643" type="curve" smooth="yes"/>
      <point x="548" y="643"/>
      <point x="561" y="643"/>
      <point x="561" y="667" type="curve" smooth="yes"/>
      <point x="561" y="677"/>
      <point x="554" y="683"/>
      <point x="544" y="683" type="curve" smooth="yes"/>
      <point x="523" y="683"/>
      <point x="498" y="681"/>
      <point x="477" y="680" type="curve" smooth="yes"/>
      <point x="448" y="679"/>
      <point x="384" y="679"/>
      <point x="330" y="680" type="curve" smooth="yes"/>
      <point x="308" y="680"/>
      <point x="283" y="683"/>
      <point x="262" y="683" type="curve" smooth="yes"/>
      <point x="256" y="683"/>
      <point x="239" y="683"/>
      <point x="239" y="658" type="curve" smooth="yes"/>
      <point x="239" y="643"/>
      <point x="253" y="643"/>
      <point x="273" y="643" type="curve" smooth="yes"/>
      <point x="277" y="643"/>
      <point x="296" y="643"/>
      <point x="316" y="641" type="curve" smooth="yes"/>
      <point x="340" y="639"/>
      <point x="341" y="636"/>
      <point x="341" y="627" type="curve" smooth="yes"/>
      <point x="341" y="626"/>
      <point x="341" y="620"/>
      <point x="337" y="605" type="curve" smooth="yes"/>
    </contour>
  </outline>
</glyph>
<glyph name="K" format="2">
  <advance width="1025"/>
  <unicode hex="004B"/>
  <outline>
    <contour>
      <point x="357" y="291" type="line"/>
      <point x="435" y="602" type="line" smooth="yes"/>
      <point x="443" y="635"/>
      <point x="445" y="643"/>
      <point x="525" y="643" type="curve" smooth="yes"/>
      <point x="543" y="643"/>
      <point x="557" y="643"/>
      <point x="557" y="668" type="curve" smooth="yes"/>
      <point x="557" y="673"/>
      <point x="554" y="683"/>
      <point x="540" y="683" type="curve" smooth="yes"/>
      <point x="519" y="683"/>
      <point x="495" y="680"/>
      <point x="473" y="680" type="curve" smooth="yes"/>
      <point x="428" y="679"/>
      <point x="383" y="679"/>
      <point x="337" y="680" type="curve" smooth="yes"/>
      <point x="315" y="680"/>
      <point x="290" y="683"/>
      <point x="268" y="683" type="curve" smooth="yes"/>
      <point x="262" y="683"/>
      <point x="246" y="683"/>
      <point x="246" y="658" type="curve" smooth="yes"/>
      <point x="246" y="643"/>
      <point x="259" y="643"/>
      <point x="278" y="643" type="curve" smooth="yes"/>
      <point x="292" y="643"/>
      <point x="304" y="643"/>
      <point x="321" y="641" type="curve" smooth="yes"/>
      <point x="326" y="640"/>
      <point x="337" y="638"/>
      <point x="342" y="636" type="curve"/>
      <point x="342" y="626"/>
      <point x="342" y="620"/>
      <point x="338" y="604" type="curve" smooth="yes"/>
      <point x="207" y="83" type="line" smooth="yes"/>
      <point x="198" y="47"/>
      <point x="196" y="40"/>
      <point x="121" y="40" type="curve" smooth="yes"/>
      <point x="98" y="40"/>
      <point x="85" y="40"/>
      <point x="85" y="15" type="curve" smooth="yes"/>
      <point x="85" y="7"/>
      <point x="91" y="0"/>
      <point x="102" y="0" type="curve" smooth="yes"/>
      <point x="123" y="0"/>
      <point x="147" y="3"/>
      <point x="169" y="3" type="curve" smooth="yes"/>
      <point x="216" y="4"/>
      <point x="259" y="4"/>
      <point x="305" y="3" type="curve" smooth="yes"/>
      <point x="327" y="3"/>
      <point x="352" y="0"/>
      <point x="373" y="0" type="curve" smooth="yes"/>
      <point x="380" y="0"/>
      <point x="396" y="0"/>
      <point x="396" y="25" type="curve" smooth="yes"/>
      <point x="396" y="40"/>
      <point x="384" y="40"/>
      <point x="363" y="40" type="curve" smooth="yes"/>
      <point x="361" y="40"/>
      <point x="343" y="40"/>
      <point x="325" y="42" type="curve" smooth="yes"/>
      <point x="305" y="44"/>
      <point x="299" y="44"/>
      <point x="299" y="55" type="curve" smooth="yes"/>
      <point x="299" y="59"/>
      <point x="305" y="84"/>
      <point x="309" y="99" type="curve" smooth="yes"/>
      <point x="345" y="244" type="line"/>
      <point x="345" y="244" type="line"/>
      <point x="519" y="361" type="line"/>
      <point x="519" y="361" type="line"/>
      <point x="673" y="87" type="line" smooth="yes"/>
      <point x="678" y="77"/>
      <point x="685" y="68"/>
      <point x="685" y="62" type="curve" smooth="yes"/>
      <point x="685" y="57"/>
      <point x="683" y="41"/>
      <point x="638" y="40" type="curve" smooth="yes"/>
      <point x="626" y="40"/>
      <point x="611" y="40"/>
      <point x="611" y="15" type="curve" smooth="yes"/>
      <point x="611" y="7"/>
      <point x="617" y="0"/>
      <point x="628" y="0" type="curve" smooth="yes"/>
      <point x="657" y="0"/>
      <point x="731" y="4"/>
      <point x="760" y="4" type="curve" smooth="yes"/>
      <point x="777" y="4"/>
      <point x="794" y="3"/>
      <point x="811" y="3" type="curve" smooth="yes"/>
      <point x="828" y="3"/>
      <point x="847" y="0"/>
      <point x="863" y="0" type="curve" smooth="yes"/>
      <point x="874" y="0"/>
      <point x="885" y="6"/>
      <point x="885" y="25" type="curve" smooth="yes"/>
      <point x="885" y="40"/>
      <point x="869" y="40"/>
      <point x="861" y="40" type="curve" smooth="yes"/>
      <point x="809" y="41"/>
      <point x="801" y="55"/>
      <point x="789" y="77" type="curve" smooth="yes"/>
      <point x="607" y="402" type="line"/>
      <point x="606" y="403"/>
      <point x="601" y="413"/>
      <point x="601" y="414" type="curve" smooth="yes"/>
      <point x="601" y="415"/>
      <point x="602" y="416"/>
      <point x="618" y="427" type="curve" smooth="yes"/>
      <point x="720" y="497"/>
      <point x="855" y="589"/>
      <point x="911" y="616" type="curve" smooth="yes"/>
      <point x="945" y="632"/>
      <point x="973" y="641"/>
      <point x="1006" y="643" type="curve" smooth="yes"/>
      <point x="1016" y="644"/>
      <point x="1029" y="645"/>
      <point x="1029" y="668" type="curve" smooth="yes"/>
      <point x="1029" y="675"/>
      <point x="1023" y="682"/>
      <point x="1015" y="682" type="curve" smooth="yes"/>
      <point x="1006" y="682"/>
      <point x="965" y="679"/>
      <point x="941" y="679" type="curve" smooth="yes"/>
      <point x="926" y="679"/>
      <point x="906" y="679"/>
      <point x="878" y="680" type="curve" smooth="yes"/>
      <point x="865" y="680"/>
      <point x="828" y="683"/>
      <point x="818" y="683" type="curve" smooth="yes"/>
      <point x="812" y="683"/>
      <point x="795" y="683"/>
      <point x="795" y="658" type="curve" smooth="yes"/>
      <point x="795" y="644"/>
      <point x="809" y="643"/>
      <point x="812" y="643" type="curve" smooth="yes"/>
      <point x="835" y="642"/>
      <point x="835" y="635"/>
      <point x="835" y="630" type="curve" smooth="yes"/>
      <point x="835" y="614"/>
      <point x="802" y="592"/>
      <point x="792" y="585" type="curve" smooth="yes"/>
    </contour>
  </outline>
</glyph>
<glyph name="Q" format="2">
  <advance width="966"/>
  <unicode hex="0051"/>
  <outline>
    <contour>
      <point x="83" y="258" type="curve" smooth="yes"/>
      <point x="83" y="101"/>
      <point x="203" y="-21"/>
      <point x="392" y="-21" type="curve" smooth="yes"/>
      <point x="428" y="-21"/>
      <point x="460" y="-17"/>
      <point x="502" y="-7" type="curve"/>
      <point x="503" y="-18"/>
      <point x="503" y="-29"/>
      <point x="503" y="-34" type="curve" smooth="yes"/>
      <point x="503" y="-119"/>
      <point x="519" y="-194"/>
      <point x="605" y="-194" type="curve" smooth="yes"/>
      <point x="729" y="-194"/>
      <point x="791" y="-25"/>
      <point x="791" y="0" type="curve" smooth="yes"/>
      <point x="791" y="8"/>
      <point x="784" y="15"/>
      <point x="776" y="15" type="curve" smooth="yes"/>
      <point x="765" y="15"/>
      <point x="763" y="7"/>
      <point x="760" y="-1" type="curve" smooth="yes"/>
      <point x="741" y="-58"/>
      <point x="679" y="-85"/>
      <point x="633" y="-85" type="curve" smooth="yes"/>
      <point x="589" y="-85"/>
      <point x="570" y="-63"/>
      <point x="550" y="7" type="curve"/>
      <point x="727" y="70"/>
      <point x="880" y="238"/>
      <point x="880" y="422" type="curve" smooth="yes"/>
      <point x="880" y="585"/>
      <point x="757" y="704"/>
      <point x="572" y="704" type="curve" smooth="yes"/>
      <point x="319" y="704"/>
      <point x="83" y="478"/>
    </contour>
    <contour>
      <point x="185" y="235" type="curve" smooth="yes"/>
      <point x="185.0" y="354.45988"/>
      <point x="237.39096171650002" y="476.7774488209"/>
      <point x="321.2392571915438" y="560.8011301350938" type="curve" smooth="yes"/>
      <point x="386.19270704480004" y="625.8904433979001"/>
      <point x="470.02337" y="668.0"/>
      <point x="563" y="668" type="curve" smooth="yes"/>
      <point x="681" y="668"/>
      <point x="779" y="594"/>
      <point x="779" y="445" type="curve" smooth="yes"/>
      <point x="779" y="363"/>
      <point x="741" y="145"/>
      <point x="540" y="48" type="curve"/>
      <point x="520" y="110"/>
      <point x="493" y="153"/>
      <point x="432" y="153" type="curve" smooth="yes"/>
      <point x="373" y="153"/>
      <point x="315" y="108"/>
      <point x="315" y="51" type="curve" smooth="yes"/>
      <point x="315" y="45"/>
      <point x="316" y="34"/>
      <point x="318" y="29" type="curve"/>
      <point x="240" y="56"/>
      <point x="185" y="123"/>
    </contour>
    <contour>
      <point x="348" y="52" type="curve" smooth="yes"/>
      <point x="348" y="89"/>
      <point x="390" y="120"/>
      <point x="431" y="120" type="curve" smooth="yes"/>
      <point x="477" y="120"/>
      <point x="495" y="93"/>
      <point x="500" y="32" type="curve"/>
      <point x="460" y="18"/>
      <point x="423" y="15"/>
      <point x="401" y="15" type="curve" smooth="yes"/>
      <point x="387" y="15"/>
      <point x="348" y="15"/>
    </contour>
  </outline>
</glyph>
<glyph name="R" format="2">
  <advance width="922"/>
  <unicode hex="0052"/>
  <outline>
    <contour>
      <point x="372" y="358" type="line"/>
      <point x="435" y="609" type="line" smooth="yes"/>
      <point x="443" y="641"/>
      <point x="444" y="643"/>
      <point x="486" y="643" type="curve" smooth="yes"/>
      <point x="584" y="643" type="line" smooth="yes"/>
      <point x="684" y="643"/>
      <point x="757" y="618"/>
      <point x="757" y="539" type="curve" smooth="yes"/>
      <point x="757" y="504"/>
      <point x="742" y="432"/>
      <point x="673" y="393" type="curve" smooth="yes"/>
      <point x="634" y="371"/>
      <point x="580" y="358"/>
      <point x="512" y="358" type="curve" smooth="yes"/>
    </contour>
    <contour>
      <point x="865" y="528" type="curve" smooth="yes"/>
      <point x="865" y="611"/>
      <point x="760" y="683"/>
      <point x="604" y="683" type="curve" smooth="yes"/>
      <point x="281" y="683" type="line" smooth="yes"/>
      <point x="262" y="683"/>
      <point x="247" y="683"/>
      <point x="247" y="658" type="curve" smooth="yes"/>
      <point x="247" y="643"/>
      <point x="262" y="643"/>
      <point x="280" y="643" type="curve" smooth="yes"/>
      <point x="290.40616" y="643.0"/>
      <point x="303.1518791408" y="643.0"/>
      <point x="316.1117281030754" y="641.6474540695207" type="curve" smooth="yes"/>
      <point x="325.5691090624" y="640.6604408592"/>
      <point x="335.14052" y="638.95316"/>
      <point x="344" y="636" type="curve"/>
      <point x="344" y="626"/>
      <point x="344" y="620"/>
      <point x="340" y="604" type="curve" smooth="yes"/>
      <point x="209" y="83" type="line" smooth="yes"/>
      <point x="200" y="47"/>
      <point x="198" y="40"/>
      <point x="123" y="40" type="curve" smooth="yes"/>
      <point x="94" y="40"/>
      <point x="94" y="40"/>
      <point x="88" y="24" type="curve" smooth="yes"/>
      <point x="83" y="10"/>
      <point x="88" y="0"/>
      <point x="103" y="0" type="curve" smooth="yes"/>
      <point x="133" y="0"/>
      <point x="200" y="4"/>
      <point x="230" y="4" type="curve" smooth="yes"/>
      <point x="251" y="4"/>
      <point x="272" y="4"/>
      <point x="305" y="3" type="curve" smooth="yes"/>
      <point x="337" y="2"/>
      <point x="351" y="0"/>
      <point x="372" y="0" type="curve" smooth="yes"/>
      <point x="386" y="0"/>
      <point x="389" y="4"/>
      <point x="393" y="17" type="curve" smooth="yes"/>
      <point x="400" y="37"/>
      <point x="385" y="40"/>
      <point x="369" y="40" type="curve" smooth="yes"/>
      <point x="348" y="40"/>
      <point x="333" y="41"/>
      <point x="322" y="42" type="curve" smooth="yes"/>
      <point x="304" y="44"/>
      <point x="297" y="44"/>
      <point x="297" y="55" type="curve" smooth="yes"/>
      <point x="297" y="59"/>
      <point x="299" y="66"/>
      <point x="301" y="73" type="curve" smooth="yes"/>
      <point x="364" y="325" type="line"/>
      <point x="508" y="325" type="line" smooth="yes"/>
      <point x="596" y="325"/>
      <point x="640" y="285"/>
      <point x="640" y="237" type="curve" smooth="yes"/>
      <point x="640" y="225"/>
      <point x="631" y="191"/>
      <point x="625" y="168" type="curve" smooth="yes"/>
      <point x="614" y="122"/>
      <point x="610" y="108"/>
      <point x="610" y="90" type="curve" smooth="yes"/>
      <point x="610" y="16"/>
      <point x="678" y="-21"/>
      <point x="765" y="-21" type="curve" smooth="yes"/>
      <point x="859" y="-21"/>
      <point x="903" y="74"/>
      <point x="903" y="97" type="curve" smooth="yes"/>
      <point x="903" y="103"/>
      <point x="898" y="112"/>
      <point x="885" y="112" type="curve" smooth="yes"/>
      <point x="871" y="112"/>
      <point x="868" y="104"/>
      <point x="866" y="97" type="curve" smooth="yes"/>
      <point x="843" y="29"/>
      <point x="795" y="12"/>
      <point x="770" y="12" type="curve" smooth="yes"/>
      <point x="743" y="12"/>
      <point x="721" y="22"/>
      <point x="721" y="81" type="curve" smooth="yes"/>
      <point x="721" y="104"/>
      <point x="728" y="159"/>
      <point x="731" y="185" type="curve" smooth="yes"/>
      <point x="732" y="195"/>
      <point x="735" y="216"/>
      <point x="735" y="224" type="curve" smooth="yes"/>
      <point x="735" y="290"/>
      <point x="683" y="325"/>
      <point x="640" y="340" type="curve"/>
      <point x="737" y="362"/>
      <point x="865" y="430"/>
    </contour>
  </outline>
</glyph>
<glyph name="S" format="2">
  <advance width="756"/>
  <unicode hex="0053"/>
  <outline>
    <contour>
      <point x="217" y="478" type="curve" smooth="yes"/>
      <point x="217" y="430"/>
      <point x="240" y="397"/>
      <point x="257" y="380" type="curve" smooth="yes"/>
      <point x="294" y="342"/>
      <point x="325" y="335"/>
      <point x="397" y="320" type="curve" smooth="yes"/>
      <point x="419" y="315"/>
      <point x="496" y="297"/>
      <point x="503" y="296" type="curve"/>
      <point x="549" y="285"/>
      <point x="591" y="250"/>
      <point x="591" y="193" type="curve" smooth="yes"/>
      <point x="591" y="110"/>
      <point x="499" y="19"/>
      <point x="381" y="19" type="curve" smooth="yes"/>
      <point x="328" y="19"/>
      <point x="176" y="29"/>
      <point x="176" y="159" type="curve" smooth="yes"/>
      <point x="176" y="190"/>
      <point x="183" y="209"/>
      <point x="183" y="213" type="curve" smooth="yes"/>
      <point x="183" y="225"/>
      <point x="173" y="227"/>
      <point x="165" y="227" type="curve" smooth="yes"/>
      <point x="155" y="227"/>
      <point x="149" y="226"/>
      <point x="144" y="207" type="curve" smooth="yes"/>
      <point x="92" y="-7" type="line"/>
      <point x="92" y="-9"/>
      <point x="93" y="-21"/>
      <point x="107" y="-21" type="curve" smooth="yes"/>
      <point x="113" y="-21"/>
      <point x="114" y="-20"/>
      <point x="128" y="-7" type="curve" smooth="yes"/>
      <point x="129" y="-6"/>
      <point x="175" y="45"/>
      <point x="177" y="48" type="curve"/>
      <point x="230" y="-11"/>
      <point x="327" y="-21"/>
      <point x="378" y="-21" type="curve" smooth="yes"/>
      <point x="535" y="-21"/>
      <point x="661" y="106"/>
      <point x="661" y="224" type="curve" smooth="yes"/>
      <point x="661" y="279"/>
      <point x="634" y="315"/>
      <point x="624" y="326" type="curve" smooth="yes"/>
      <point x="582" y="369"/>
      <point x="558" y="374"/>
      <point x="485" y="391" type="curve" smooth="yes"/>
      <point x="453" y="398"/>
      <point x="404" y="408"/>
      <point x="378" y="414" type="curve" smooth="yes"/>
      <point x="324" y="427"/>
      <point x="287" y="461"/>
      <point x="287" y="510" type="curve" smooth="yes"/>
      <point x="287" y="587"/>
      <point x="379" y="667"/>
      <point x="491" y="667" type="curve" smooth="yes"/>
      <point x="579" y="667"/>
      <point x="661" y="630"/>
      <point x="661" y="511" type="curve" smooth="yes"/>
      <point x="661" y="494"/>
      <point x="659" y="473"/>
      <point x="659" y="470" type="curve" smooth="yes"/>
      <point x="659" y="456"/>
      <point x="674" y="456"/>
      <point x="677" y="456" type="curve" smooth="yes"/>
      <point x="692" y="456"/>
      <point x="694" y="461"/>
      <point x="698" y="479" type="curve" smooth="yes"/>
      <point x="749" y="683" type="line" smooth="yes"/>
      <point x="751" y="692"/>
      <point x="749" y="704"/>
      <point x="735" y="704" type="curve" smooth="yes"/>
      <point x="727" y="704"/>
      <point x="725" y="702"/>
      <point x="714" y="690" type="curve" smooth="yes"/>
      <point x="702" y="676"/>
      <point x="680" y="652"/>
      <point x="663" y="634" type="curve"/>
      <point x="622" y="687"/>
      <point x="554" y="704"/>
      <point x="493" y="704" type="curve" smooth="yes"/>
      <point x="345" y="704"/>
      <point x="217" y="592"/>
    </contour>
  </outline>
</glyph>
<glyph name="T" format="2">
  <advance width="731"/>
  <unicode hex="0054"/>
  <outline>
    <contour>
      <point x="293" y="86" type="line" smooth="yes"/>
      <point x="286" y="58"/>
      <point x="281" y="49"/>
      <point x="253" y="45" type="curve" smooth="yes"/>
      <point x="225" y="41"/>
      <point x="167" y="40"/>
      <point x="152" y="40" type="curve" smooth="yes"/>
      <point x="131" y="40"/>
      <point x="132" y="37"/>
      <point x="127" y="23" type="curve" smooth="yes"/>
      <point x="122" y="9"/>
      <point x="130" y="0"/>
      <point x="144" y="0" type="curve" smooth="yes"/>
      <point x="171" y="0"/>
      <point x="201" y="3"/>
      <point x="228" y="3" type="curve" smooth="yes"/>
      <point x="312" y="3"/>
      <point x="354" y="3"/>
      <point x="411" y="3" type="curve" smooth="yes"/>
      <point x="440" y="3"/>
      <point x="472" y="0"/>
      <point x="501" y="0" type="curve" smooth="yes"/>
      <point x="509" y="0"/>
      <point x="519" y="-3"/>
      <point x="524" y="18" type="curve" smooth="yes"/>
      <point x="529" y="37"/>
      <point x="520" y="40"/>
      <point x="493" y="40" type="curve" smooth="yes"/>
      <point x="463" y="40"/>
      <point x="442" y="41"/>
      <point x="420" y="42" type="curve" smooth="yes"/>
      <point x="397" y="44"/>
      <point x="381" y="46"/>
      <point x="386" y="64" type="curve" smooth="yes"/>
      <point x="520" y="602" type="line" smooth="yes"/>
      <point x="528" y="634"/>
      <point x="530" y="636"/>
      <point x="571" y="636" type="curve" smooth="yes"/>
      <point x="663" y="636" type="line" smooth="yes"/>
      <point x="770" y="636"/>
      <point x="785" y="605"/>
      <point x="785" y="547" type="curve" smooth="yes"/>
      <point x="785" y="533"/>
      <point x="784" y="506"/>
      <point x="777" y="466" type="curve" smooth="yes"/>
      <point x="774" y="449"/>
      <point x="781" y="442"/>
      <point x="795" y="442" type="curve" smooth="yes"/>
      <point x="811" y="442"/>
      <point x="813" y="452"/>
      <point x="815" y="467" type="curve" smooth="yes"/>
      <point x="842" y="659" type="line"/>
      <point x="842" y="676"/>
      <point x="831" y="676"/>
      <point x="811" y="676" type="curve" smooth="yes"/>
      <point x="161" y="676" type="line" smooth="yes"/>
      <point x="135" y="676"/>
      <point x="133" y="676"/>
      <point x="126" y="655" type="curve" smooth="yes"/>
      <point x="61" y="473" type="line" smooth="yes"/>
      <point x="57" y="461"/>
      <point x="57" y="458"/>
      <point x="57" y="457" type="curve" smooth="yes"/>
      <point x="57" y="454"/>
      <point x="58" y="442"/>
      <point x="75" y="442" type="curve" smooth="yes"/>
      <point x="89" y="442"/>
      <point x="90" y="445"/>
      <point x="99" y="471" type="curve" smooth="yes"/>
      <point x="144" y="593"/>
      <point x="175" y="636"/>
      <point x="304" y="636" type="curve" smooth="yes"/>
      <point x="395" y="636" type="line" smooth="yes"/>
      <point x="414" y="636"/>
      <point x="416" y="636"/>
      <point x="428" y="633" type="curve"/>
      <point x="428" y="633" type="line"/>
    </contour>
  </outline>
</glyph>
<glyph name="V" format="2">
  <advance width="729"/>
  <unicode hex="0056"/>
  <outline>
    <contour>
      <point x="335" y="-21" type="curve" smooth="yes"/>
      <point x="355" y="-21"/>
      <point x="360" y="-14"/>
      <point x="370" y="0" type="curve" smooth="yes"/>
      <point x="769" y="568" type="line" smooth="yes"/>
      <point x="810" y="626"/>
      <point x="843" y="641"/>
      <point x="899" y="643" type="curve" smooth="yes"/>
      <point x="910" y="643"/>
      <point x="916" y="658"/>
      <point x="916" y="669" type="curve"/>
      <point x="915" y="672"/>
      <point x="914" y="683"/>
      <point x="900" y="683" type="curve" smooth="yes"/>
      <point x="874" y="683"/>
      <point x="843" y="679"/>
      <point x="815" y="679" type="curve" smooth="yes"/>
      <point x="791" y="679"/>
      <point x="732" y="683"/>
      <point x="708" y="683" type="curve" smooth="yes"/>
      <point x="691" y="683"/>
      <point x="686" y="670"/>
      <point x="686" y="658" type="curve" smooth="yes"/>
      <point x="686" y="644"/>
      <point x="700" y="643"/>
      <point x="707" y="643" type="curve" smooth="yes"/>
      <point x="714" y="643"/>
      <point x="748" y="640"/>
      <point x="748" y="616" type="curve" smooth="yes"/>
      <point x="748" y="603"/>
      <point x="735" y="584"/>
      <point x="729" y="576" type="curve" smooth="yes"/>
      <point x="392" y="93" type="line"/>
      <point x="290" y="604" type="line" smooth="yes"/>
      <point x="288" y="614"/>
      <point x="288" y="616"/>
      <point x="288" y="620" type="curve" smooth="yes"/>
      <point x="288" y="632"/>
      <point x="309" y="643"/>
      <point x="354" y="643" type="curve" smooth="yes"/>
      <point x="367" y="643"/>
      <point x="382" y="643"/>
      <point x="382" y="668" type="curve" smooth="yes"/>
      <point x="382" y="671"/>
      <point x="381" y="683"/>
      <point x="365" y="683" type="curve" smooth="yes"/>
      <point x="344" y="683"/>
      <point x="320" y="681"/>
      <point x="298" y="680" type="curve" smooth="yes"/>
      <point x="276" y="679"/>
      <point x="235" y="679"/>
      <point x="174" y="680" type="curve" smooth="yes"/>
      <point x="156" y="680"/>
      <point x="135" y="683"/>
      <point x="117" y="683" type="curve" smooth="yes"/>
      <point x="106" y="683"/>
      <point x="95" y="678"/>
      <point x="95" y="658" type="curve" smooth="yes"/>
      <point x="95" y="643"/>
      <point x="109" y="643"/>
      <point x="122" y="643" type="curve" smooth="yes"/>
      <point x="181" y="643"/>
      <point x="183" y="635"/>
      <point x="187" y="613" type="curve" smooth="yes"/>
      <point x="307" y="5" type="line" smooth="yes"/>
      <point x="311" y="-13"/>
      <point x="313" y="-21"/>
    </contour>
  </outline>
</glyph>
<glyph name="X" format="2">
  <advance width="1001"/>
  <unicode hex="0058"/>
  <outline>
    <contour>
      <point x="592" y="380" type="curve"/>
      <point x="650" y="438"/>
      <point x="714" y="498"/>
      <point x="776" y="558" type="curve" smooth="yes"/>
      <point x="857" y="637"/>
      <point x="910" y="640"/>
      <point x="954" y="643" type="curve" smooth="yes"/>
      <point x="968" y="644"/>
      <point x="981" y="644"/>
      <point x="981" y="668" type="curve" smooth="yes"/>
      <point x="981" y="674"/>
      <point x="975" y="683"/>
      <point x="965" y="683" type="curve" smooth="yes"/>
      <point x="936" y="683"/>
      <point x="898" y="679"/>
      <point x="867" y="679" type="curve" smooth="yes"/>
      <point x="789" y="679"/>
      <point x="770" y="683"/>
      <point x="748" y="683" type="curve" smooth="yes"/>
      <point x="741" y="683"/>
      <point x="725" y="683"/>
      <point x="725" y="658" type="curve" smooth="yes"/>
      <point x="725" y="644"/>
      <point x="739" y="643"/>
      <point x="743" y="643" type="curve" smooth="yes"/>
      <point x="756" y="643"/>
      <point x="775" y="638"/>
      <point x="775" y="620" type="curve" smooth="yes"/>
      <point x="775" y="606"/>
      <point x="767" y="596"/>
      <point x="735" y="566" type="curve" smooth="yes"/>
      <point x="573" y="414" type="line"/>
      <point x="467" y="608" type="line" smooth="yes"/>
      <point x="466" y="610"/>
      <point x="461" y="619"/>
      <point x="461" y="621" type="curve" smooth="yes"/>
      <point x="461" y="627"/>
      <point x="482" y="643"/>
      <point x="513" y="643" type="curve" smooth="yes"/>
      <point x="521" y="643"/>
      <point x="535" y="644"/>
      <point x="535" y="668" type="curve" smooth="yes"/>
      <point x="535" y="671"/>
      <point x="534" y="683"/>
      <point x="518" y="683" type="curve" smooth="yes"/>
      <point x="497" y="683"/>
      <point x="473" y="680"/>
      <point x="451" y="680" type="curve" smooth="yes"/>
      <point x="393" y="679"/>
      <point x="346" y="679"/>
      <point x="324" y="680" type="curve" smooth="yes"/>
      <point x="304" y="681"/>
      <point x="282" y="683"/>
      <point x="263" y="683" type="curve" smooth="yes"/>
      <point x="252" y="683"/>
      <point x="241" y="678"/>
      <point x="241" y="658" type="curve" smooth="yes"/>
      <point x="241" y="643"/>
      <point x="253" y="643"/>
      <point x="273" y="643" type="curve" smooth="yes"/>
      <point x="332" y="643"/>
      <point x="338" y="633"/>
      <point x="347" y="616" type="curve" smooth="yes"/>
      <point x="497" y="342" type="line"/>
      <point x="391" y="242" type="line" smooth="yes"/>
      <point x="223" y="83"/>
      <point x="187" y="44"/>
      <point x="92" y="40" type="curve" smooth="yes"/>
      <point x="78" y="39"/>
      <point x="65" y="39"/>
      <point x="65" y="18" type="curve" smooth="yes"/>
      <point x="65" y="8"/>
      <point x="71" y="0"/>
      <point x="80" y="0" type="curve" smooth="yes"/>
      <point x="109" y="0"/>
      <point x="147" y="4"/>
      <point x="178" y="4" type="curve" smooth="yes"/>
      <point x="205" y="4"/>
      <point x="271" y="0"/>
      <point x="298" y="0" type="curve" smooth="yes"/>
      <point x="304" y="0"/>
      <point x="320" y="0"/>
      <point x="320" y="25" type="curve" smooth="yes"/>
      <point x="320" y="39"/>
      <point x="307" y="40"/>
      <point x="302" y="40" type="curve" smooth="yes"/>
      <point x="288" y="41"/>
      <point x="270" y="46"/>
      <point x="270" y="63" type="curve" smooth="yes"/>
      <point x="270" y="72"/>
      <point x="276" y="84"/>
      <point x="286" y="94" type="curve" smooth="yes"/>
      <point x="515" y="309" type="line"/>
      <point x="643" y="75" type="line" smooth="yes"/>
      <point x="647" y="67"/>
      <point x="649" y="64"/>
      <point x="649" y="62" type="curve" smooth="yes"/>
      <point x="649" y="56"/>
      <point x="629" y="42"/>
      <point x="597" y="40" type="curve" smooth="yes"/>
      <point x="590" y="40"/>
      <point x="574" y="39"/>
      <point x="574" y="15" type="curve" smooth="yes"/>
      <point x="574" y="12"/>
      <point x="576" y="0"/>
      <point x="592" y="0" type="curve" smooth="yes"/>
      <point x="613" y="0"/>
      <point x="637" y="3"/>
      <point x="674" y="3" type="curve" smooth="yes"/>
      <point x="727" y="4"/>
      <point x="749" y="3"/>
      <point x="769" y="3" type="curve" smooth="yes"/>
      <point x="793" y="3"/>
      <point x="828" y="0"/>
      <point x="847" y="0" type="curve" smooth="yes"/>
      <point x="859" y="0"/>
      <point x="869" y="6"/>
      <point x="869" y="25" type="curve" smooth="yes"/>
      <point x="869" y="40"/>
      <point x="853" y="40"/>
      <point x="840" y="40" type="curve" smooth="yes"/>
      <point x="778" y="40"/>
      <point x="773" y="49"/>
      <point x="763" y="67" type="curve" smooth="yes"/>
      <point x="706" y="172"/>
      <point x="617" y="329"/>
    </contour>
  </outline>
</glyph>
<glyph name="Y" format="2">
  <advance width="726"/>
  <unicode hex="0059"/>
  <outline>
    <contour>
      <point x="437" y="322" type="line"/>
      <point x="294" y="613" type="line" smooth="yes"/>
      <point x="292" y="617"/>
      <point x="289" y="624"/>
      <point x="289" y="627" type="curve" smooth="yes"/>
      <point x="289" y="643"/>
      <point x="337" y="643"/>
      <point x="343" y="643" type="curve" smooth="yes"/>
      <point x="354" y="643"/>
      <point x="370" y="643"/>
      <point x="370" y="668" type="curve" smooth="yes"/>
      <point x="370" y="671"/>
      <point x="368" y="683"/>
      <point x="352" y="683" type="curve" smooth="yes"/>
      <point x="331" y="683"/>
      <point x="306" y="680"/>
      <point x="285" y="680" type="curve" smooth="yes"/>
      <point x="235" y="679"/>
      <point x="176" y="679"/>
      <point x="156" y="680" type="curve" smooth="yes"/>
      <point x="136" y="681"/>
      <point x="114" y="683"/>
      <point x="95" y="683" type="curve" smooth="yes"/>
      <point x="89" y="683"/>
      <point x="73" y="683"/>
      <point x="73" y="658" type="curve" smooth="yes"/>
      <point x="73" y="643"/>
      <point x="86" y="643"/>
      <point x="101" y="643" type="curve" smooth="yes"/>
      <point x="161" y="643"/>
      <point x="168" y="634"/>
      <point x="177" y="616" type="curve" smooth="yes"/>
      <point x="345" y="274" type="line"/>
      <point x="345.0" y="274.0"/>
      <point x="345.0" y="274.0"/>
      <point x="345" y="274" type="curve"/>
      <point x="330.015" y="213.061"/>
      <point x="315.03" y="152.122"/>
      <point x="300" y="91" type="curve" smooth="yes"/>
      <point x="287" y="41"/>
      <point x="283" y="40"/>
      <point x="202" y="40" type="curve" smooth="yes"/>
      <point x="180" y="40"/>
      <point x="181" y="37"/>
      <point x="176" y="24" type="curve" smooth="yes"/>
      <point x="172" y="13"/>
      <point x="174" y="0"/>
      <point x="191" y="0" type="curve" smooth="yes"/>
      <point x="221" y="0"/>
      <point x="294" y="4"/>
      <point x="324" y="4" type="curve" smooth="yes"/>
      <point x="345" y="4"/>
      <point x="372" y="3"/>
      <point x="393" y="3" type="curve" smooth="yes"/>
      <point x="415" y="3"/>
      <point x="439" y="0"/>
      <point x="460" y="0" type="curve" smooth="yes"/>
      <point x="466" y="0"/>
      <point x="483" y="0"/>
      <point x="483" y="25" type="curve" smooth="yes"/>
      <point x="483" y="40"/>
      <point x="468" y="40"/>
      <point x="450" y="40" type="curve" smooth="yes"/>
      <point x="440.71884" y="40.0"/>
      <point x="429.5766321092" y="40.0"/>
      <point x="418.0813089915996" y="40.959593513454294" type="curve" smooth="yes"/>
      <point x="407.2824559376" y="41.861047890799995"/>
      <point x="396.17197999999996" y="43.609339999999996"/>
      <point x="386" y="47" type="curve"/>
      <point x="387" y="64"/>
      <point x="387" y="66"/>
      <point x="395" y="99" type="curve" smooth="yes"/>
      <point x="409.319" y="156.942"/>
      <point x="423.638" y="214.88400000000001"/>
      <point x="438" y="273" type="curve"/>
      <point x="438.0" y="273.0"/>
      <point x="438.0" y="273.0"/>
      <point x="438" y="273" type="curve"/>
      <point x="724" y="561" type="line" smooth="yes"/>
      <point x="726" y="564"/>
      <point x="740" y="575"/>
      <point x="749" y="583" type="curve" smooth="yes"/>
      <point x="786" y="616"/>
      <point x="826" y="640"/>
      <point x="876" y="643" type="curve" smooth="yes"/>
      <point x="894" y="644"/>
      <point x="906" y="645"/>
      <point x="906" y="668" type="curve" smooth="yes"/>
      <point x="906" y="675"/>
      <point x="899" y="683"/>
      <point x="891" y="683" type="curve" smooth="yes"/>
      <point x="864" y="683"/>
      <point x="833" y="679"/>
      <point x="805" y="679" type="curve" smooth="yes"/>
      <point x="781" y="679"/>
      <point x="721" y="683"/>
      <point x="697" y="683" type="curve" smooth="yes"/>
      <point x="685" y="683"/>
      <point x="675" y="677"/>
      <point x="675" y="658" type="curve" smooth="yes"/>
      <point x="675" y="657"/>
      <point x="675" y="644"/>
      <point x="693" y="643" type="curve" smooth="yes"/>
      <point x="703" y="642"/>
      <point x="724" y="641"/>
      <point x="724" y="627" type="curve" smooth="yes"/>
      <point x="724" y="611"/>
      <point x="701" y="589"/>
      <point x="672" y="559" type="curve" smooth="yes"/>
    </contour>
  </outline>
</glyph>
<glyph name="Z" format="2">
  <advance width="837"/>
  <unicode hex="005A"/>
  <outline>
    <contour>
      <point x="716" y="643" type="line"/>
      <point x="114" y="47" type="line" smooth="yes"/>
      <point x="109" y="42"/>
      <point x="97" y="29"/>
      <point x="97" y="12" type="curve" smooth="yes"/>
      <point x="97" y="0"/>
      <point x="105" y="0"/>
      <point x="124" y="0" type="curve" smooth="yes"/>
      <point x="655" y="0" type="line"/>
      <point x="658.33" y="2.664"/>
      <point x="661.66" y="5.328"/>
      <point x="665" y="8" type="curve"/>
      <point x="743" y="247" type="line" smooth="yes"/>
      <point x="744" y="250"/>
      <point x="747" y="259"/>
      <point x="747" y="261" type="curve" smooth="yes"/>
      <point x="747" y="271"/>
      <point x="739" y="276"/>
      <point x="729" y="276" type="curve" smooth="yes"/>
      <point x="715" y="276"/>
      <point x="713" y="270"/>
      <point x="708" y="255" type="curve" smooth="yes"/>
      <point x="658" y="110"/>
      <point x="605" y="43"/>
      <point x="427" y="43" type="curve" smooth="yes"/>
      <point x="224" y="43" type="line"/>
      <point x="826" y="639" type="line" smooth="yes"/>
      <point x="833" y="646"/>
      <point x="842" y="655"/>
      <point x="842" y="670" type="curve" smooth="yes"/>
      <point x="842" y="683"/>
      <point x="835" y="683"/>
      <point x="814" y="683" type="curve" smooth="yes"/>
      <point x="321" y="683" type="line" smooth="yes"/>
      <point x="295" y="683"/>
      <point x="293" y="683"/>
      <point x="286" y="661" type="curve" smooth="yes"/>
      <point x="229" y="480" type="line" smooth="yes"/>
      <point x="228" y="476"/>
      <point x="225" y="467"/>
      <point x="225" y="464" type="curve" smooth="yes"/>
      <point x="225" y="449"/>
      <point x="240" y="449"/>
      <point x="244" y="449" type="curve" smooth="yes"/>
      <point x="257" y="449"/>
      <point x="259" y="453"/>
      <point x="265" y="470" type="curve" smooth="yes"/>
      <point x="318" y="620"/>
      <point x="414" y="643"/>
      <point x="524" y="643" type="curve" smooth="yes"/>
    </contour>
  </outline>
</glyph>
<glyph name="a" format="2">
  <advance width="674"/>
  <unicode hex="0061"/>
  <outline>
    <contour>
      <point x="519" y="321" type="line" smooth="yes"/>
      <point x="524" y="344"/>
      <point x="534" y="382"/>
      <point x="534" y="389" type="curve" smooth="yes"/>
      <point x="534" y="411"/>
      <point x="517" y="422"/>
      <point x="499" y="422" type="curve" smooth="yes"/>
      <point x="471" y="422"/>
      <point x="454" y="396"/>
      <point x="451" y="381" type="curve"/>
      <point x="437" y="404"/>
      <point x="403" y="441"/>
      <point x="341" y="441" type="curve" smooth="yes"/>
      <point x="213" y="441"/>
      <point x="75" y="307"/>
      <point x="75" y="160" type="curve" smooth="yes"/>
      <point x="75" y="52"/>
      <point x="151" y="-10"/>
      <point x="236" y="-10" type="curve" smooth="yes"/>
      <point x="303" y="-10"/>
      <point x="360" y="36"/>
      <point x="385" y="61" type="curve"/>
      <point x="404" y="-2"/>
      <point x="471" y="-10"/>
      <point x="493" y="-10" type="curve" smooth="yes"/>
      <point x="529" y="-10"/>
      <point x="555" y="10"/>
      <point x="574" y="41" type="curve" smooth="yes"/>
      <point x="599" y="81"/>
      <point x="613" y="139"/>
      <point x="613" y="144" type="curve" smooth="yes"/>
      <point x="613" y="146"/>
      <point x="612" y="158"/>
      <point x="594" y="158" type="curve" smooth="yes"/>
      <point x="579" y="158"/>
      <point x="577" y="151"/>
      <point x="573" y="135" type="curve" smooth="yes"/>
      <point x="557" y="74"/>
      <point x="536" y="23"/>
      <point x="497" y="23" type="curve" smooth="yes"/>
      <point x="463" y="23"/>
      <point x="460" y="59"/>
      <point x="460" y="74" type="curve" smooth="yes"/>
      <point x="460" y="87"/>
      <point x="470" y="127"/>
      <point x="477" y="153" type="curve" smooth="yes"/>
    </contour>
    <contour>
      <point x="389" y="131" type="line" smooth="yes"/>
      <point x="384" y="113"/>
      <point x="384" y="111"/>
      <point x="370" y="96" type="curve" smooth="yes"/>
      <point x="315" y="34"/>
      <point x="264" y="23"/>
      <point x="239" y="23" type="curve" smooth="yes"/>
      <point x="199" y="23"/>
      <point x="160" y="50"/>
      <point x="160" y="121" type="curve" smooth="yes"/>
      <point x="160" y="162"/>
      <point x="181" y="260"/>
      <point x="213" y="317" type="curve" smooth="yes"/>
      <point x="243" y="371"/>
      <point x="294" y="408"/>
      <point x="342" y="408" type="curve" smooth="yes"/>
      <point x="417" y="408"/>
      <point x="436" y="329"/>
      <point x="436" y="322" type="curve"/>
      <point x="433" y="308" type="line"/>
    </contour>
  </outline>
</glyph>
<glyph name="c" format="2">
  <advance width="559"/>
  <unicode hex="0063"/>
  <outline>
    <contour>
      <point x="464" y="384" type="curve"/>
      <point x="451" y="381"/>
      <point x="417" y="364"/>
      <point x="417" y="327" type="curve" smooth="yes"/>
      <point x="417" y="302"/>
      <point x="436" y="289"/>
      <point x="457" y="289" type="curve" smooth="yes"/>
      <point x="481" y="289"/>
      <point x="515" y="306"/>
      <point x="515" y="354" type="curve" smooth="yes"/>
      <point x="515" y="419"/>
      <point x="439" y="441"/>
      <point x="375" y="441" type="curve" smooth="yes"/>
      <point x="220" y="441"/>
      <point x="75" y="307"/>
      <point x="75" y="168" type="curve" smooth="yes"/>
      <point x="75" y="73"/>
      <point x="144" y="-10"/>
      <point x="273" y="-10" type="curve" smooth="yes"/>
      <point x="461" y="-10"/>
      <point x="533" y="90"/>
      <point x="533" y="101" type="curve" smooth="yes"/>
      <point x="533" y="110"/>
      <point x="522" y="121"/>
      <point x="514" y="121" type="curve" smooth="yes"/>
      <point x="509" y="121"/>
      <point x="508" y="120"/>
      <point x="493" y="105" type="curve"/>
      <point x="439" y="43"/>
      <point x="346" y="23"/>
      <point x="275" y="23" type="curve" smooth="yes"/>
      <point x="192" y="23"/>
      <point x="162" y="77"/>
      <point x="162" y="135" type="curve" smooth="yes"/>
      <point x="162" y="138"/>
      <point x="164" y="254"/>
      <point x="233" y="339" type="curve" smooth="yes"/>
      <point x="248" y="356"/>
      <point x="300" y="408"/>
      <point x="376" y="408" type="curve" smooth="yes"/>
      <point x="381" y="408"/>
      <point x="434" y="408"/>
    </contour>
  </outline>
</glyph>
<glyph name="d" format="2">
  <advance width="642"/>
  <unicode hex="0064"/>
  <outline>
    <contour>
      <point x="236" y="-10" type="curve" smooth="yes"/>
      <point x="303" y="-10"/>
      <point x="360" y="36"/>
      <point x="385" y="61" type="curve"/>
      <point x="404" y="-2"/>
      <point x="471" y="-10"/>
      <point x="493" y="-10" type="curve" smooth="yes"/>
      <point x="529" y="-10"/>
      <point x="555" y="10"/>
      <point x="574" y="41" type="curve" smooth="yes"/>
      <point x="599" y="81"/>
      <point x="613" y="139"/>
      <point x="613" y="144" type="curve" smooth="yes"/>
      <point x="613" y="146"/>
      <point x="612" y="158"/>
      <point x="594" y="158" type="curve" smooth="yes"/>
      <point x="579" y="158"/>
      <point x="577" y="151"/>
      <point x="573" y="135" type="curve" smooth="yes"/>
      <point x="557" y="74"/>
      <point x="536" y="23"/>
      <point x="497" y="23" type="curve" smooth="yes"/>
      <point x="463" y="23"/>
      <point x="460" y="59"/>
      <point x="460" y="74" type="curve" smooth="yes"/>
      <point x="460" y="87"/>
      <point x="460" y="90"/>
      <point x="465" y="108" type="curve" smooth="yes"/>
      <point x="605" y="664" type="line" smooth="yes"/>
      <point x="606" y="668"/>
      <point x="608" y="674"/>
      <point x="608" y="679" type="curve" smooth="yes"/>
      <point x="608" y="695"/>
      <point x="588" y="694"/>
      <point x="576" y="693" type="curve" smooth="yes"/>
      <point x="464" y="684" type="line" smooth="yes"/>
      <point x="447" y="683"/>
      <point x="434" y="682"/>
      <point x="434" y="659" type="curve" smooth="yes"/>
      <point x="434" y="643"/>
      <point x="447" y="643"/>
      <point x="462" y="643" type="curve" smooth="yes"/>
      <point x="492" y="643"/>
      <point x="499" y="641"/>
      <point x="512" y="636" type="curve"/>
      <point x="511" y="621"/>
      <point x="511" y="619"/>
      <point x="508" y="606" type="curve" smooth="yes"/>
      <point x="487" y="520"/>
      <point x="471" y="453"/>
      <point x="451" y="381" type="curve"/>
      <point x="437" y="404"/>
      <point x="403" y="441"/>
      <point x="341" y="441" type="curve" smooth="yes"/>
      <point x="213" y="441"/>
      <point x="75" y="307"/>
      <point x="75" y="160" type="curve" smooth="yes"/>
      <point x="75" y="52"/>
      <point x="151" y="-10"/>
    </contour>
    <contour>
      <point x="239" y="23" type="curve" smooth="yes"/>
      <point x="199" y="23"/>
      <point x="160" y="50"/>
      <point x="160" y="121" type="curve" smooth="yes"/>
      <point x="160" y="162"/>
      <point x="181" y="260"/>
      <point x="213" y="317" type="curve" smooth="yes"/>
      <point x="243" y="371"/>
      <point x="294" y="408"/>
      <point x="342" y="408" type="curve" smooth="yes"/>
      <point x="417" y="408"/>
      <point x="436" y="329"/>
      <point x="436" y="322" type="curve"/>
      <point x="433" y="308" type="line"/>
      <point x="389" y="131" type="line" smooth="yes"/>
      <point x="384" y="113"/>
      <point x="384" y="111"/>
      <point x="370" y="96" type="curve" smooth="yes"/>
      <point x="315" y="34"/>
      <point x="264" y="23"/>
    </contour>
  </outline>
</glyph>
<glyph name="e" format="2">
  <advance width="589"/>
  <unicode hex="0065"/>
  <outline>
    <contour>
      <point x="221" y="225" type="line" smooth="yes"/>
      <point x="287" y="225"/>
      <point x="363" y="230"/>
      <point x="415" y="247" type="curve" smooth="yes"/>
      <point x="502" y="276"/>
      <point x="506" y="337"/>
      <point x="506" y="352" type="curve" smooth="yes"/>
      <point x="506" y="401"/>
      <point x="458" y="441"/>
      <point x="373" y="441" type="curve" smooth="yes"/>
      <point x="250" y="441"/>
      <point x="80" y="353"/>
      <point x="80" y="182" type="curve" smooth="yes"/>
      <point x="80" y="76"/>
      <point x="149" y="-10"/>
      <point x="274" y="-10" type="curve" smooth="yes"/>
      <point x="460" y="-10"/>
      <point x="533" y="89"/>
      <point x="533" y="101" type="curve" smooth="yes"/>
      <point x="533" y="110"/>
      <point x="522" y="121"/>
      <point x="514" y="121" type="curve" smooth="yes"/>
      <point x="509" y="121"/>
      <point x="508" y="120"/>
      <point x="493" y="105" type="curve"/>
      <point x="433" y="37"/>
      <point x="331" y="23"/>
      <point x="276" y="23" type="curve" smooth="yes"/>
      <point x="195" y="23"/>
      <point x="166" y="81"/>
      <point x="166" y="145" type="curve" smooth="yes"/>
      <point x="166" y="153"/>
      <point x="167" y="186"/>
      <point x="177" y="225" type="curve"/>
    </contour>
    <contour>
      <point x="186" y="258" type="curve"/>
      <point x="219" y="376"/>
      <point x="317" y="408"/>
      <point x="373" y="408" type="curve" smooth="yes"/>
      <point x="420" y="408"/>
      <point x="460" y="387"/>
      <point x="460" y="351" type="curve" smooth="yes"/>
      <point x="460" y="258"/>
      <point x="293" y="258"/>
    </contour>
  </outline>
</glyph>
<glyph name="f" format="2">
  <advance width="600"/>
  <unicode hex="0066"/>
  <outline>
    <contour>
      <point x="431" y="391" type="curve"/>
      <point x="533" y="391" type="line" smooth="yes"/>
      <point x="553" y="391"/>
      <point x="567" y="391"/>
      <point x="567" y="416" type="curve" smooth="yes"/>
      <point x="567" y="431"/>
      <point x="554" y="431"/>
      <point x="536" y="431" type="curve" smooth="yes"/>
      <point x="438" y="431" type="line"/>
      <point x="468" y="595"/>
      <point x="468" y="597"/>
      <point x="472" y="615" type="curve" smooth="yes"/>
      <point x="477" y="637"/>
      <point x="479" y="646"/>
      <point x="494" y="658" type="curve" smooth="yes"/>
      <point x="506" y="667"/>
      <point x="515" y="671"/>
      <point x="530" y="671" type="curve" smooth="yes"/>
      <point x="546" y="671"/>
      <point x="562" y="669"/>
      <point x="576" y="662" type="curve"/>
      <point x="556" y="654"/>
      <point x="538" y="632"/>
      <point x="538" y="608" type="curve" smooth="yes"/>
      <point x="538" y="587"/>
      <point x="555" y="570"/>
      <point x="579" y="570" type="curve" smooth="yes"/>
      <point x="605" y="570"/>
      <point x="636" y="592"/>
      <point x="636" y="631" type="curve" smooth="yes"/>
      <point x="636" y="686"/>
      <point x="574" y="704"/>
      <point x="530" y="704" type="curve" smooth="yes"/>
      <point x="485" y="704"/>
      <point x="417" y="683"/>
      <point x="387" y="583" type="curve" smooth="yes"/>
      <point x="373" y="538"/>
      <point x="369.47745" y="496.141"/>
      <point x="356" y="431" type="curve"/>
      <point x="274" y="431" type="line" smooth="yes"/>
      <point x="254" y="431"/>
      <point x="240" y="431"/>
      <point x="240" y="406" type="curve" smooth="yes"/>
      <point x="240" y="391"/>
      <point x="253" y="391"/>
      <point x="271" y="391" type="curve" smooth="yes"/>
      <point x="349" y="391" type="line"/>
      <point x="310" y="167"/>
      <point x="295" y="90"/>
      <point x="292" y="72" type="curve" smooth="yes"/>
      <point x="264" y="-82"/>
      <point x="256" y="-110"/>
      <point x="247" y="-127" type="curve" smooth="yes"/>
      <point x="233" y="-151"/>
      <point x="216" y="-171"/>
      <point x="191" y="-171" type="curve" smooth="yes"/>
      <point x="185" y="-171"/>
      <point x="163" y="-169"/>
      <point x="147" y="-162" type="curve"/>
      <point x="167" y="-154"/>
      <point x="185" y="-132"/>
      <point x="185" y="-108" type="curve" smooth="yes"/>
      <point x="185" y="-87"/>
      <point x="168" y="-70"/>
      <point x="144" y="-70" type="curve" smooth="yes"/>
      <point x="118" y="-70"/>
      <point x="87" y="-92"/>
      <point x="87" y="-131" type="curve" smooth="yes"/>
      <point x="87" y="-187"/>
      <point x="150" y="-204"/>
      <point x="190" y="-204" type="curve" smooth="yes"/>
      <point x="245" y="-204"/>
      <point x="284" y="-159"/>
      <point x="302" y="-137" type="curve" smooth="yes"/>
      <point x="346" y="-78"/>
      <point x="367" y="41"/>
      <point x="369" y="50" type="curve" smooth="yes"/>
      <point x="389.646" y="163.553"/>
      <point x="410.29200000000003" y="277.106"/>
    </contour>
  </outline>
</glyph>
<glyph name="g" format="2">
  <advance width="607"/>
  <unicode hex="0067"/>
  <outline>
    <contour>
      <point x="567" y="365" type="line" smooth="yes"/>
      <point x="571" y="381"/>
      <point x="571" y="386"/>
      <point x="571" y="389" type="curve" smooth="yes"/>
      <point x="571" y="411"/>
      <point x="554" y="422"/>
      <point x="536" y="422" type="curve" smooth="yes"/>
      <point x="519" y="422"/>
      <point x="495" y="410"/>
      <point x="489" y="382" type="curve"/>
      <point x="478" y="399"/>
      <point x="444" y="441"/>
      <point x="378" y="441" type="curve" smooth="yes"/>
      <point x="244" y="441"/>
      <point x="112" y="304"/>
      <point x="112" y="168" type="curve" smooth="yes"/>
      <point x="112" y="69"/>
      <point x="181" y="0"/>
      <point x="275" y="0" type="curve" smooth="yes"/>
      <point x="327" y="0"/>
      <point x="374" y="26"/>
      <point x="407" y="54" type="curve"/>
      <point x="385" y="-36" type="line" smooth="yes"/>
      <point x="374" y="-77"/>
      <point x="367" y="-105"/>
      <point x="326" y="-136" type="curve" smooth="yes"/>
      <point x="280" y="-171"/>
      <point x="240" y="-171"/>
      <point x="210" y="-171" type="curve" smooth="yes"/>
      <point x="166" y="-171"/>
      <point x="153" y="-169"/>
      <point x="134" y="-165" type="curve"/>
      <point x="156" y="-151"/>
      <point x="160" y="-129"/>
      <point x="160" y="-119" type="curve" smooth="yes"/>
      <point x="160" y="-87"/>
      <point x="134" y="-80"/>
      <point x="120" y="-80" type="curve" smooth="yes"/>
      <point x="88" y="-80"/>
      <point x="62" y="-108"/>
      <point x="62" y="-141" type="curve" smooth="yes"/>
      <point x="62" y="-204"/>
      <point x="157" y="-204"/>
      <point x="211" y="-204" type="curve" smooth="yes"/>
      <point x="342" y="-204"/>
      <point x="437" y="-154"/>
      <point x="460" y="-62" type="curve" smooth="yes"/>
    </contour>
    <contour>
      <point x="428" y="139" type="line" smooth="yes"/>
      <point x="423" y="122"/>
      <point x="423" y="120"/>
      <point x="409" y="104" type="curve" smooth="yes"/>
      <point x="373" y="62"/>
      <point x="323" y="33"/>
      <point x="278" y="33" type="curve" smooth="yes"/>
      <point x="241" y="33"/>
      <point x="198" y="56"/>
      <point x="198" y="130" type="curve" smooth="yes"/>
      <point x="198" y="174"/>
      <point x="221" y="274"/>
      <point x="252" y="324" type="curve" smooth="yes"/>
      <point x="289" y="383"/>
      <point x="339" y="408"/>
      <point x="378" y="408" type="curve" smooth="yes"/>
      <point x="453" y="408"/>
      <point x="474" y="334"/>
      <point x="474" y="324" type="curve" smooth="yes"/>
      <point x="474" y="319"/>
      <point x="472" y="313"/>
      <point x="471" y="308" type="curve"/>
    </contour>
  </outline>
</glyph>
<glyph name="h" format="2">
  <advance width="725"/>
  <unicode hex="0068"/>
  <outline>
    <contour>
      <point x="333" y="664" type="line" smooth="yes"/>
      <point x="334" y="668"/>
      <point x="336" y="674"/>
      <point x="336" y="679" type="curve" smooth="yes"/>
      <point x="336" y="695"/>
      <point x="316" y="694"/>
      <point x="304" y="693" type="curve" smooth="yes"/>
      <point x="192" y="684" type="line" smooth="yes"/>
      <point x="175" y="683"/>
      <point x="162" y="682"/>
      <point x="162" y="659" type="curve" smooth="yes"/>
      <point x="162" y="643"/>
      <point x="175" y="643"/>
      <point x="190" y="643" type="curve" smooth="yes"/>
      <point x="220" y="643"/>
      <point x="227" y="641"/>
      <point x="240" y="636" type="curve"/>
      <point x="240" y="624"/>
      <point x="240" y="622"/>
      <point x="236" y="606" type="curve" smooth="yes"/>
      <point x="96" y="47" type="line" smooth="yes"/>
      <point x="92" y="31"/>
      <point x="92" y="26"/>
      <point x="92" y="24" type="curve" smooth="yes"/>
      <point x="92" y="-1"/>
      <point x="112" y="-10"/>
      <point x="127" y="-10" type="curve" smooth="yes"/>
      <point x="137" y="-10"/>
      <point x="155" y="-6"/>
      <point x="168" y="13" type="curve"/>
      <point x="171" y="20"/>
      <point x="180" y="53"/>
      <point x="185" y="74" type="curve" smooth="yes"/>
      <point x="190" y="93"/>
      <point x="201" y="139"/>
      <point x="207" y="164" type="curve" smooth="yes"/>
      <point x="214" y="190"/>
      <point x="219" y="208"/>
      <point x="224" y="231" type="curve" smooth="yes"/>
      <point x="228" y="246"/>
      <point x="233" y="264"/>
      <point x="261" y="305" type="curve" smooth="yes"/>
      <point x="294" y="353"/>
      <point x="346" y="408"/>
      <point x="423" y="408" type="curve" smooth="yes"/>
      <point x="486" y="408"/>
      <point x="486" y="356"/>
      <point x="486" y="338" type="curve" smooth="yes"/>
      <point x="486" y="279"/>
      <point x="444" y="173"/>
      <point x="425" y="127" type="curve"/>
      <point x="419" y="110"/>
      <point x="412" y="94"/>
      <point x="412" y="77" type="curve" smooth="yes"/>
      <point x="412" y="26"/>
      <point x="458" y="-10"/>
      <point x="513" y="-10" type="curve" smooth="yes"/>
      <point x="614" y="-10"/>
      <point x="664" y="122"/>
      <point x="664" y="144" type="curve" smooth="yes"/>
      <point x="664" y="146"/>
      <point x="663" y="158"/>
      <point x="645" y="158" type="curve" smooth="yes"/>
      <point x="631" y="158"/>
      <point x="630" y="153"/>
      <point x="624" y="134" type="curve" smooth="yes"/>
      <point x="608" y="82"/>
      <point x="567" y="23"/>
      <point x="516" y="23" type="curve" smooth="yes"/>
      <point x="497" y="23"/>
      <point x="489" y="38"/>
      <point x="489" y="59" type="curve" smooth="yes"/>
      <point x="489" y="79"/>
      <point x="496" y="96"/>
      <point x="505" y="117" type="curve" smooth="yes"/>
      <point x="520" y="156"/>
      <point x="565" y="269"/>
      <point x="565" y="325" type="curve" smooth="yes"/>
      <point x="565" y="404"/>
      <point x="508" y="441"/>
      <point x="427" y="441" type="curve" smooth="yes"/>
      <point x="348" y="441"/>
      <point x="295" y="398"/>
      <point x="255" y="353" type="curve"/>
    </contour>
  </outline>
</glyph>
<glyph name="j" format="2">
  <advance width="511"/>
  <unicode hex="006A"/>
  <outline>
    <contour>
      <point x="464" y="624" type="curve" smooth="yes"/>
      <point x="464" y="654"/>
      <point x="440" y="664"/>
      <point x="424" y="664" type="curve" smooth="yes"/>
      <point x="392" y="664"/>
      <point x="367" y="633"/>
      <point x="367" y="609" type="curve" smooth="yes"/>
      <point x="367" y="588"/>
      <point x="383" y="569"/>
      <point x="408" y="569" type="curve" smooth="yes"/>
      <point x="434" y="569"/>
      <point x="464" y="594"/>
    </contour>
    <contour>
      <point x="251" y="-45" type="line" smooth="yes"/>
      <point x="232" y="-120"/>
      <point x="173" y="-171"/>
      <point x="115" y="-171" type="curve" smooth="yes"/>
      <point x="112" y="-171"/>
      <point x="84" y="-170"/>
      <point x="84" y="-166" type="curve" smooth="yes"/>
      <point x="84" y="-165"/>
      <point x="87" y="-163"/>
      <point x="87" y="-162" type="curve"/>
      <point x="102" y="-150"/>
      <point x="109" y="-134"/>
      <point x="109" y="-119" type="curve" smooth="yes"/>
      <point x="109" y="-87"/>
      <point x="83" y="-80"/>
      <point x="69" y="-80" type="curve" smooth="yes"/>
      <point x="42" y="-80"/>
      <point x="12" y="-102"/>
      <point x="12" y="-139" type="curve" smooth="yes"/>
      <point x="12" y="-192"/>
      <point x="75" y="-204"/>
      <point x="116" y="-204" type="curve" smooth="yes"/>
      <point x="183" y="-204"/>
      <point x="303" y="-166"/>
      <point x="333" y="-46" type="curve" smooth="yes"/>
      <point x="423" y="312" type="line" smooth="yes"/>
      <point x="425" y="322"/>
      <point x="428" y="331"/>
      <point x="428" y="345" type="curve" smooth="yes"/>
      <point x="428" y="401"/>
      <point x="378" y="441"/>
      <point x="314" y="441" type="curve" smooth="yes"/>
      <point x="201" y="441"/>
      <point x="131" y="306"/>
      <point x="131" y="287" type="curve" smooth="yes"/>
      <point x="131" y="281"/>
      <point x="135" y="273"/>
      <point x="149" y="273" type="curve" smooth="yes"/>
      <point x="163" y="273"/>
      <point x="164" y="277"/>
      <point x="171" y="291" type="curve" smooth="yes"/>
      <point x="200" y="356"/>
      <point x="256" y="408"/>
      <point x="311" y="408" type="curve" smooth="yes"/>
      <point x="341" y="408"/>
      <point x="348" y="383"/>
      <point x="348" y="358" type="curve" smooth="yes"/>
      <point x="348" y="345"/>
      <point x="346" y="331"/>
      <point x="345" y="328" type="curve"/>
    </contour>
  </outline>
</glyph>
<glyph name="k" format="2">
  <advance width="660"/>
  <unicode hex="006B"/>
  <outline>
    <contour>
      <point x="467" y="-10" type="curve" smooth="yes"/>
      <point x="511.09135000000003" y="-10.0"/>
      <point x="542.3725264450001" y="20.165892564999996"/>
      <point x="563.3792928594271" y="53.82520210472949" type="curve" smooth="yes"/>
      <point x="588.5869504125" y="94.215633055"/>
      <point x="599.0" y="139.6364"/>
      <point x="599" y="144" type="curve" smooth="yes"/>
      <point x="599" y="146"/>
      <point x="598" y="158"/>
      <point x="580" y="158" type="curve" smooth="yes"/>
      <point x="566" y="158"/>
      <point x="564" y="152"/>
      <point x="559" y="135" type="curve" smooth="yes"/>
      <point x="549" y="99"/>
      <point x="521" y="23"/>
      <point x="470" y="23" type="curve" smooth="yes"/>
      <point x="432" y="23"/>
      <point x="432" y="66"/>
      <point x="432" y="77" type="curve" smooth="yes"/>
      <point x="432" y="93"/>
      <point x="432" y="94"/>
      <point x="437" y="114" type="curve"/>
      <point x="437" y="115"/>
      <point x="442" y="135"/>
      <point x="442" y="147" type="curve" smooth="yes"/>
      <point x="442" y="224"/>
      <point x="355" y="248"/>
      <point x="278" y="255" type="curve"/>
      <point x="302" y="270"/>
      <point x="323" y="286"/>
      <point x="363" y="321" type="curve" smooth="yes"/>
      <point x="413" y="365"/>
      <point x="465" y="408"/>
      <point x="520" y="408" type="curve" smooth="yes"/>
      <point x="533" y="408"/>
      <point x="545" y="405"/>
      <point x="554" y="395" type="curve"/>
      <point x="519" y="388"/>
      <point x="504" y="360"/>
      <point x="504" y="339" type="curve" smooth="yes"/>
      <point x="504" y="307"/>
      <point x="530" y="300"/>
      <point x="544" y="300" type="curve" smooth="yes"/>
      <point x="566" y="300"/>
      <point x="602" y="316"/>
      <point x="602" y="366" type="curve" smooth="yes"/>
      <point x="602" y="409"/>
      <point x="570" y="441"/>
      <point x="521" y="441" type="curve" smooth="yes"/>
      <point x="458" y="441"/>
      <point x="399" y="393"/>
      <point x="353" y="353" type="curve" smooth="yes"/>
      <point x="301" y="308"/>
      <point x="270" y="282"/>
      <point x="233" y="268" type="curve"/>
      <point x="332" y="664" type="line" smooth="yes"/>
      <point x="333" y="668"/>
      <point x="335" y="674"/>
      <point x="335" y="679" type="curve" smooth="yes"/>
      <point x="335" y="695"/>
      <point x="315" y="694"/>
      <point x="303" y="693" type="curve" smooth="yes"/>
      <point x="191" y="684" type="line" smooth="yes"/>
      <point x="174" y="683"/>
      <point x="161" y="682"/>
      <point x="161" y="658" type="curve" smooth="yes"/>
      <point x="161" y="643"/>
      <point x="174" y="643"/>
      <point x="190" y="643" type="curve" smooth="yes"/>
      <point x="219" y="643"/>
      <point x="226" y="640"/>
      <point x="239" y="636" type="curve"/>
      <point x="239" y="624"/>
      <point x="239" y="622"/>
      <point x="235" y="606" type="curve" smooth="yes"/>
      <point x="95" y="47" type="line" smooth="yes"/>
      <point x="91" y="31"/>
      <point x="91" y="26"/>
      <point x="91" y="24" type="curve" smooth="yes"/>
      <point x="91" y="-1"/>
      <point x="111" y="-10"/>
      <point x="126" y="-10" type="curve" smooth="yes"/>
      <point x="136" y="-10"/>
      <point x="154" y="-6"/>
      <point x="167" y="13" type="curve"/>
      <point x="174" y="26"/>
      <point x="214" y="192"/>
      <point x="221" y="224" type="curve"/>
      <point x="288" y="219"/>
      <point x="360" y="203"/>
      <point x="360" y="144" type="curve" smooth="yes"/>
      <point x="360" y="139"/>
      <point x="360" y="134"/>
      <point x="357" y="123" type="curve"/>
      <point x="354" y="108"/>
      <point x="354" y="102"/>
      <point x="354" y="94" type="curve" smooth="yes"/>
      <point x="354" y="28"/>
      <point x="410" y="-10"/>
    </contour>
  </outline>
</glyph>
<glyph name="l" format="2">
  <advance width="401"/>
  <unicode hex="006C"/>
  <outline>
    <contour>
      <point x="300" y="664" type="line" smooth="yes"/>
      <point x="301" y="668"/>
      <point x="303" y="674"/>
      <point x="303" y="679" type="curve" smooth="yes"/>
      <point x="303" y="695"/>
      <point x="283" y="694"/>
      <point x="271" y="693" type="curve" smooth="yes"/>
      <point x="159" y="684" type="line" smooth="yes"/>
      <point x="142" y="683"/>
      <point x="129" y="682"/>
      <point x="129" y="658" type="curve" smooth="yes"/>
      <point x="129" y="643"/>
      <point x="142" y="643"/>
      <point x="158" y="643" type="curve" smooth="yes"/>
      <point x="187" y="643"/>
      <point x="194" y="640"/>
      <point x="207" y="636" type="curve"/>
      <point x="207" y="624"/>
      <point x="207" y="622"/>
      <point x="203" y="606" type="curve" smooth="yes"/>
      <point x="81" y="120" type="line" smooth="yes"/>
      <point x="78" y="109"/>
      <point x="76" y="100"/>
      <point x="76" y="86" type="curve" smooth="yes"/>
      <point x="76" y="25"/>
      <point x="132" y="-10"/>
      <point x="188" y="-10" type="curve" smooth="yes"/>
      <point x="230" y="-10"/>
      <point x="254" y="17"/>
      <point x="268" y="40" type="curve" smooth="yes"/>
      <point x="295" y="83"/>
      <point x="308" y="140"/>
      <point x="308" y="144" type="curve" smooth="yes"/>
      <point x="308" y="146"/>
      <point x="307" y="158"/>
      <point x="289" y="158" type="curve" smooth="yes"/>
      <point x="274" y="158"/>
      <point x="272" y="151"/>
      <point x="268" y="135" type="curve" smooth="yes"/>
      <point x="250" y="64"/>
      <point x="227" y="23"/>
      <point x="192" y="23" type="curve" smooth="yes"/>
      <point x="155" y="23"/>
      <point x="155" y="63"/>
      <point x="155" y="73" type="curve" smooth="yes"/>
      <point x="155" y="89"/>
      <point x="157" y="97"/>
      <point x="160" y="108" type="curve" smooth="yes"/>
    </contour>
  </outline>
</glyph>
<glyph name="n" format="2">
  <advance width="769"/>
  <unicode hex="006E"/>
  <outline>
    <contour>
      <point x="170" y="-10" type="curve" smooth="yes"/>
      <point x="188" y="-10"/>
      <point x="206" y="2"/>
      <point x="213" y="17" type="curve" smooth="yes"/>
      <point x="216" y="23"/>
      <point x="224" y="58"/>
      <point x="229" y="78" type="curve" smooth="yes"/>
      <point x="257" y="194"/>
      <point x="262" y="212"/>
      <point x="268" y="235" type="curve" smooth="yes"/>
      <point x="277" y="269"/>
      <point x="312" y="322"/>
      <point x="349" y="359" type="curve" smooth="yes"/>
      <point x="369" y="378"/>
      <point x="412" y="408"/>
      <point x="466" y="408" type="curve" smooth="yes"/>
      <point x="530" y="408"/>
      <point x="530" y="357"/>
      <point x="530" y="338" type="curve" smooth="yes"/>
      <point x="530" y="279"/>
      <point x="487" y="172"/>
      <point x="469" y="127" type="curve" smooth="yes"/>
      <point x="463" y="110"/>
      <point x="456" y="94"/>
      <point x="456" y="77" type="curve" smooth="yes"/>
      <point x="456" y="26"/>
      <point x="502" y="-10"/>
      <point x="557" y="-10" type="curve" smooth="yes"/>
      <point x="658" y="-10"/>
      <point x="708" y="122"/>
      <point x="708" y="144" type="curve" smooth="yes"/>
      <point x="708" y="146"/>
      <point x="707" y="158"/>
      <point x="689" y="158" type="curve" smooth="yes"/>
      <point x="675" y="158"/>
      <point x="674" y="153"/>
      <point x="668" y="134" type="curve" smooth="yes"/>
      <point x="652" y="81"/>
      <point x="611" y="23"/>
      <point x="560" y="23" type="curve" smooth="yes"/>
      <point x="541" y="23"/>
      <point x="533" y="38"/>
      <point x="533" y="59" type="curve" smooth="yes"/>
      <point x="533" y="79"/>
      <point x="540" y="96"/>
      <point x="549" y="117" type="curve" smooth="yes"/>
      <point x="564" y="156"/>
      <point x="609" y="269"/>
      <point x="609" y="325" type="curve" smooth="yes"/>
      <point x="609" y="407"/>
      <point x="547" y="441"/>
      <point x="471" y="441" type="curve" smooth="yes"/>
      <point x="421" y="441"/>
      <point x="357" y="425"/>
      <point x="293" y="346" type="curve"/>
      <point x="288" y="422"/>
      <point x="218" y="441"/>
      <point x="180" y="441" type="curve" smooth="yes"/>
      <point x="142" y="441"/>
      <point x="116" y="418"/>
      <point x="98" y="386" type="curve" smooth="yes"/>
      <point x="73" y="345"/>
      <point x="61" y="292"/>
      <point x="61" y="288" type="curve" smooth="yes"/>
      <point x="61" y="277"/>
      <point x="70" y="273"/>
      <point x="79" y="273" type="curve" smooth="yes"/>
      <point x="95" y="273"/>
      <point x="96" y="280"/>
      <point x="101" y="296" type="curve"/>
      <point x="121" y="376"/>
      <point x="145" y="408"/>
      <point x="177" y="408" type="curve" smooth="yes"/>
      <point x="213" y="408"/>
      <point x="213" y="367"/>
      <point x="213" y="357" type="curve" smooth="yes"/>
      <point x="213" y="341"/>
      <point x="203" y="301"/>
      <point x="196" y="273" type="curve" smooth="yes"/>
      <point x="181" y="215"/>
      <point x="167.08313" y="153.72546"/>
      <point x="154" y="107" type="curve" smooth="yes"/>
      <point x="147" y="79"/>
      <point x="135" y="29"/>
      <point x="135" y="23" type="curve" smooth="yes"/>
      <point x="135" y="1"/>
      <point x="152" y="-10"/>
    </contour>
  </outline>
</glyph>
<glyph name="o" format="2">
  <advance width="612"/>
  <unicode hex="006F"/>
  <outline>
    <contour>
      <point x="568" y="263" type="curve" smooth="yes"/>
      <point x="568" y="364"/>
      <point x="491" y="441"/>
      <point x="374" y="441" type="curve" smooth="yes"/>
      <point x="223" y="441"/>
      <point x="76" y="308"/>
      <point x="76" y="168" type="curve" smooth="yes"/>
      <point x="76" y="61"/>
      <point x="160" y="-10"/>
      <point x="269" y="-10" type="curve" smooth="yes"/>
      <point x="425" y="-10"/>
      <point x="568" y="126"/>
    </contour>
    <contour>
      <point x="271" y="23" type="curve" smooth="yes"/>
      <point x="213" y="23"/>
      <point x="163" y="58"/>
      <point x="163" y="135" type="curve" smooth="yes"/>
      <point x="163" y="169"/>
      <point x="178" y="260"/>
      <point x="220" y="320" type="curve" smooth="yes"/>
      <point x="262" y="381"/>
      <point x="324" y="408"/>
      <point x="373" y="408" type="curve" smooth="yes"/>
      <point x="424" y="408"/>
      <point x="481" y="379"/>
      <point x="481" y="296" type="curve" smooth="yes"/>
      <point x="481" y="271"/>
      <point x="471" y="171"/>
      <point x="415" y="99" type="curve" smooth="yes"/>
      <point x="385" y="59"/>
      <point x="328" y="23"/>
    </contour>
  </outline>
</glyph>
<glyph name="p" format="2">
  <advance width="642"/>
  <unicode hex="0070"/>
  <outline>
    <contour>
      <point x="97" y="-121" type="line" smooth="yes"/>
      <point x="90" y="-147"/>
      <point x="89" y="-154"/>
      <point x="46" y="-154" type="curve" smooth="yes"/>
      <point x="33" y="-154"/>
      <point x="27" y="-154"/>
      <point x="23" y="-160" type="curve"/>
      <point x="21" y="-164"/>
      <point x="17" y="-177"/>
      <point x="17" y="-180" type="curve"/>
      <point x="18" y="-183"/>
      <point x="19" y="-194"/>
      <point x="33" y="-194" type="curve" smooth="yes"/>
      <point x="61" y="-194"/>
      <point x="94" y="-190"/>
      <point x="123" y="-190" type="curve" smooth="yes"/>
      <point x="141" y="-190"/>
      <point x="160" y="-191"/>
      <point x="178" y="-191" type="curve" smooth="yes"/>
      <point x="195" y="-191"/>
      <point x="215" y="-194"/>
      <point x="232" y="-194" type="curve" smooth="yes"/>
      <point x="238" y="-194"/>
      <point x="245" y="-194"/>
      <point x="249" y="-187" type="curve"/>
      <point x="251" y="-184"/>
      <point x="255" y="-172"/>
      <point x="255" y="-168" type="curve"/>
      <point x="252" y="-154"/>
      <point x="242" y="-154"/>
      <point x="225" y="-154" type="curve" smooth="yes"/>
      <point x="201" y="-154"/>
      <point x="175" y="-154"/>
      <point x="175" y="-142" type="curve" smooth="yes"/>
      <point x="175" y="-137"/>
      <point x="182" y="-111"/>
      <point x="186" y="-96" type="curve" smooth="yes"/>
      <point x="222" y="50" type="line"/>
      <point x="246" y="14"/>
      <point x="283" y="-10"/>
      <point x="332" y="-10" type="curve" smooth="yes"/>
      <point x="464" y="-10"/>
      <point x="599" y="128"/>
      <point x="599" y="271" type="curve" smooth="yes"/>
      <point x="599" y="375"/>
      <point x="526" y="441"/>
      <point x="438" y="441" type="curve" smooth="yes"/>
      <point x="357" y="441"/>
      <point x="294" y="376"/>
      <point x="289" y="370" type="curve"/>
      <point x="271" y="429"/>
      <point x="209" y="441"/>
      <point x="180" y="441" type="curve" smooth="yes"/>
      <point x="134" y="441"/>
      <point x="110" y="408"/>
      <point x="97" y="386" type="curve" smooth="yes"/>
      <point x="73" y="344"/>
      <point x="61" y="292"/>
      <point x="61" y="288" type="curve" smooth="yes"/>
      <point x="61" y="277"/>
      <point x="70" y="273"/>
      <point x="79" y="273" type="curve" smooth="yes"/>
      <point x="95" y="273"/>
      <point x="96" y="280"/>
      <point x="101" y="296" type="curve"/>
      <point x="122" y="379"/>
      <point x="146" y="408"/>
      <point x="177" y="408" type="curve" smooth="yes"/>
      <point x="213" y="408"/>
      <point x="213" y="367"/>
      <point x="213" y="357" type="curve" smooth="yes"/>
      <point x="213" y="340"/>
      <point x="212" y="337"/>
      <point x="210" y="328" type="curve" smooth="yes"/>
    </contour>
    <contour>
      <point x="285" y="301" type="line" smooth="yes"/>
      <point x="290" y="318"/>
      <point x="290" y="320"/>
      <point x="308" y="340" type="curve" smooth="yes"/>
      <point x="340" y="376"/>
      <point x="388" y="408"/>
      <point x="435" y="408" type="curve" smooth="yes"/>
      <point x="483" y="408"/>
      <point x="514" y="371"/>
      <point x="514" y="310" type="curve" smooth="yes"/>
      <point x="514" y="276"/>
      <point x="494" y="165"/>
      <point x="455" y="104" type="curve" smooth="yes"/>
      <point x="421" y="52"/>
      <point x="374" y="23"/>
      <point x="332" y="23" type="curve" smooth="yes"/>
      <point x="257" y="23"/>
      <point x="237" y="101"/>
      <point x="237" y="109" type="curve" smooth="yes"/>
      <point x="237" y="114"/>
      <point x="239" y="120"/>
      <point x="240" y="124" type="curve" smooth="yes"/>
    </contour>
  </outline>
</glyph>
<glyph name="q" format="2">
  <advance width="570"/>
  <unicode hex="0071"/>
  <outline>
    <contour>
      <point x="545" y="427" type="line"/>
      <point x="545" y="429"/>
      <point x="542" y="441"/>
      <point x="530" y="441" type="curve" smooth="yes"/>
      <point x="518" y="441"/>
      <point x="475" y="404"/>
      <point x="456" y="374" type="curve"/>
      <point x="443" y="397"/>
      <point x="408" y="441"/>
      <point x="341" y="441" type="curve" smooth="yes"/>
      <point x="211" y="441"/>
      <point x="74" y="306"/>
      <point x="74" y="160" type="curve" smooth="yes"/>
      <point x="74" y="51"/>
      <point x="151" y="-10"/>
      <point x="235" y="-10" type="curve" smooth="yes"/>
      <point x="284" y="-10"/>
      <point x="330" y="13"/>
      <point x="368" y="45" type="curve"/>
      <point x="367" y="41"/>
      <point x="336" y="-83"/>
      <point x="332" y="-101" type="curve" smooth="yes"/>
      <point x="319" y="-152"/>
      <point x="319" y="-153"/>
      <point x="254" y="-154" type="curve"/>
      <point x="239" y="-154"/>
      <point x="225" y="-154"/>
      <point x="225" y="-179" type="curve" smooth="yes"/>
      <point x="225" y="-188"/>
      <point x="232" y="-194"/>
      <point x="241" y="-194" type="curve" smooth="yes"/>
      <point x="265" y="-194"/>
      <point x="325" y="-190"/>
      <point x="349" y="-190" type="curve" smooth="yes"/>
      <point x="367" y="-190"/>
      <point x="385" y="-191"/>
      <point x="404" y="-191" type="curve" smooth="yes"/>
      <point x="422" y="-191"/>
      <point x="443" y="-194"/>
      <point x="461" y="-194" type="curve" smooth="yes"/>
      <point x="467" y="-194"/>
      <point x="483" y="-194"/>
      <point x="483" y="-169" type="curve" smooth="yes"/>
      <point x="483" y="-154"/>
      <point x="470" y="-154"/>
      <point x="454" y="-154" type="curve" smooth="yes"/>
      <point x="430" y="-154"/>
      <point x="404" y="-154"/>
      <point x="404" y="-142" type="curve" smooth="yes"/>
      <point x="404" y="-140"/>
      <point x="404" y="-138"/>
      <point x="409" y="-120" type="curve" smooth="yes"/>
    </contour>
    <contour>
      <point x="389" y="131" type="line" smooth="yes"/>
      <point x="384" y="113"/>
      <point x="384" y="111"/>
      <point x="367" y="92" type="curve" smooth="yes"/>
      <point x="328" y="48"/>
      <point x="278" y="23"/>
      <point x="239" y="23" type="curve" smooth="yes"/>
      <point x="190" y="23"/>
      <point x="159" y="60"/>
      <point x="159" y="121" type="curve" smooth="yes"/>
      <point x="159" y="165"/>
      <point x="182" y="266"/>
      <point x="212" y="317" type="curve" smooth="yes"/>
      <point x="249" y="381"/>
      <point x="302" y="408"/>
      <point x="341" y="408" type="curve" smooth="yes"/>
      <point x="418" y="408"/>
      <point x="436" y="329"/>
      <point x="436" y="321" type="curve"/>
      <point x="433" y="307" type="line"/>
    </contour>
  </outline>
</glyph>
<glyph name="s" format="2">
  <advance width="584"/>
  <unicode hex="0073"/>
  <outline>
    <contour>
      <point x="457" y="376" type="curve"/>
      <point x="428" y="369"/>
      <point x="417" y="344"/>
      <point x="417" y="329" type="curve" smooth="yes"/>
      <point x="417" y="313"/>
      <point x="429" y="296"/>
      <point x="452" y="296" type="curve" smooth="yes"/>
      <point x="472" y="296"/>
      <point x="501" y="310"/>
      <point x="501" y="353" type="curve" smooth="yes"/>
      <point x="501" y="420"/>
      <point x="425" y="441"/>
      <point x="360" y="441" type="curve" smooth="yes"/>
      <point x="207" y="441"/>
      <point x="170" y="340"/>
      <point x="170" y="297" type="curve" smooth="yes"/>
      <point x="170" y="216"/>
      <point x="262" y="200"/>
      <point x="288" y="196" type="curve" smooth="yes"/>
      <point x="363" y="183"/>
      <point x="421" y="172"/>
      <point x="421" y="123" type="curve" smooth="yes"/>
      <point x="421" y="102"/>
      <point x="404" y="66"/>
      <point x="368" y="46" type="curve" smooth="yes"/>
      <point x="329" y="25"/>
      <point x="286" y="23"/>
      <point x="257" y="23" type="curve" smooth="yes"/>
      <point x="222" y="23"/>
      <point x="160" y="27"/>
      <point x="131" y="60" type="curve"/>
      <point x="166" y="66"/>
      <point x="183" y="93"/>
      <point x="183" y="117" type="curve" smooth="yes"/>
      <point x="183" y="138"/>
      <point x="169" y="155"/>
      <point x="142" y="155" type="curve" smooth="yes"/>
      <point x="116" y="155"/>
      <point x="84" y="134"/>
      <point x="84" y="87" type="curve" smooth="yes"/>
      <point x="84" y="32"/>
      <point x="139" y="-10"/>
      <point x="256" y="-10" type="curve" smooth="yes"/>
      <point x="443" y="-10"/>
      <point x="483" y="106"/>
      <point x="483" y="152" type="curve" smooth="yes"/>
      <point x="483" y="185"/>
      <point x="469" y="208"/>
      <point x="446" y="228" type="curve" smooth="yes"/>
      <point x="414" y="256"/>
      <point x="377" y="262"/>
      <point x="329" y="270" type="curve" smooth="yes"/>
      <point x="280" y="279"/>
      <point x="232" y="287"/>
      <point x="232" y="326" type="curve" smooth="yes"/>
      <point x="232" y="327"/>
      <point x="232" y="408"/>
      <point x="359" y="408" type="curve" smooth="yes"/>
      <point x="384" y="408"/>
      <point x="434" y="404"/>
    </contour>
  </outline>
</glyph>
<glyph name="t" format="2">
  <advance width="476"/>
  <unicode hex="0074"/>
  <outline>
    <contour>
      <point x="269" y="391" type="line"/>
      <point x="378" y="391" type="line" smooth="yes"/>
      <point x="398" y="391"/>
      <point x="412" y="391"/>
      <point x="412" y="416" type="curve" smooth="yes"/>
      <point x="412" y="431"/>
      <point x="399" y="431"/>
      <point x="381" y="431" type="curve" smooth="yes"/>
      <point x="279" y="431" type="line"/>
      <point x="314" y="569" type="line" smooth="yes"/>
      <point x="318" y="584"/>
      <point x="318" y="590"/>
      <point x="318" y="591" type="curve" smooth="yes"/>
      <point x="318" y="615"/>
      <point x="299" y="625"/>
      <point x="283" y="625" type="curve" smooth="yes"/>
      <point x="271" y="625"/>
      <point x="245" y="618"/>
      <point x="236" y="586" type="curve" smooth="yes"/>
      <point x="197" y="431" type="line"/>
      <point x="82" y="431" type="line" smooth="yes"/>
      <point x="67" y="431"/>
      <point x="62" y="431"/>
      <point x="56" y="414" type="curve" smooth="yes"/>
      <point x="50" y="397"/>
      <point x="62" y="391"/>
      <point x="75" y="391" type="curve" smooth="yes"/>
      <point x="187" y="391" type="line"/>
      <point x="128" y="155" type="line" smooth="yes"/>
      <point x="122" y="132"/>
      <point x="114" y="98"/>
      <point x="114" y="86" type="curve" smooth="yes"/>
      <point x="114" y="28"/>
      <point x="166" y="-10"/>
      <point x="227" y="-10" type="curve" smooth="yes"/>
      <point x="342" y="-10"/>
      <point x="410" y="127"/>
      <point x="410" y="144" type="curve" smooth="yes"/>
      <point x="410" y="147"/>
      <point x="408" y="158"/>
      <point x="391" y="158" type="curve" smooth="yes"/>
      <point x="378" y="158"/>
      <point x="376" y="153"/>
      <point x="371" y="141" type="curve" smooth="yes"/>
      <point x="337" y="66"/>
      <point x="280" y="23"/>
      <point x="231" y="23" type="curve" smooth="yes"/>
      <point x="194" y="23"/>
      <point x="193" y="60"/>
      <point x="193" y="73" type="curve" smooth="yes"/>
      <point x="193" y="87"/>
      <point x="193" y="89"/>
      <point x="198" y="108" type="curve" smooth="yes"/>
    </contour>
  </outline>
</glyph>
<glyph name="v" format="2">
  <advance width="625"/>
  <unicode hex="0076"/>
  <outline>
    <contour>
      <point x="573" y="359" type="curve" smooth="yes"/>
      <point x="573" y="431"/>
      <point x="532" y="442"/>
      <point x="519" y="442" type="curve" smooth="yes"/>
      <point x="490" y="442"/>
      <point x="463" y="411"/>
      <point x="463" y="387" type="curve" smooth="yes"/>
      <point x="463" y="368"/>
      <point x="476" y="358"/>
      <point x="482" y="353" type="curve"/>
      <point x="502" y="338"/>
      <point x="520" y="314"/>
      <point x="520" y="276" type="curve" smooth="yes"/>
      <point x="520" y="224"/>
      <point x="448" y="23"/>
      <point x="331" y="23" type="curve" smooth="yes"/>
      <point x="244" y="23"/>
      <point x="244" y="93"/>
      <point x="244" y="112" type="curve" smooth="yes"/>
      <point x="244" y="155"/>
      <point x="258" y="200"/>
      <point x="301" y="307" type="curve" smooth="yes"/>
      <point x="309" y="328"/>
      <point x="312" y="336"/>
      <point x="312" y="354" type="curve" smooth="yes"/>
      <point x="312" y="410"/>
      <point x="261" y="441"/>
      <point x="212" y="441" type="curve" smooth="yes"/>
      <point x="110" y="441"/>
      <point x="61" y="308"/>
      <point x="61" y="287" type="curve" smooth="yes"/>
      <point x="61" y="282"/>
      <point x="65" y="273"/>
      <point x="79" y="273" type="curve" smooth="yes"/>
      <point x="93" y="273"/>
      <point x="96" y="279"/>
      <point x="99" y="288" type="curve" smooth="yes"/>
      <point x="127" y="383"/>
      <point x="179" y="408"/>
      <point x="208" y="408" type="curve" smooth="yes"/>
      <point x="228" y="408"/>
      <point x="235" y="395"/>
      <point x="235" y="372" type="curve" smooth="yes"/>
      <point x="235" y="351"/>
      <point x="222" y="317"/>
      <point x="211" y="290" type="curve" smooth="yes"/>
      <point x="165" y="175"/>
      <point x="165" y="145"/>
      <point x="165" y="124" type="curve" smooth="yes"/>
      <point x="165" y="17"/>
      <point x="256" y="-10"/>
      <point x="327" y="-10" type="curve" smooth="yes"/>
      <point x="494" y="-10"/>
      <point x="573" y="260"/>
    </contour>
  </outline>
</glyph>
<glyph name="y" format="2">
  <advance width="633"/>
  <unicode hex="0079"/>
  <outline>
    <contour>
      <point x="427" y="36" type="line"/>
      <point x="414" y="-19"/>
      <point x="405" y="-58"/>
      <point x="357" y="-110" type="curve" smooth="yes"/>
      <point x="339" y="-130"/>
      <point x="294" y="-171"/>
      <point x="234" y="-171" type="curve" smooth="yes"/>
      <point x="225" y="-171"/>
      <point x="182" y="-170"/>
      <point x="159" y="-144" type="curve"/>
      <point x="203" y="-136"/>
      <point x="209" y="-97"/>
      <point x="209" y="-88" type="curve" smooth="yes"/>
      <point x="209" y="-61"/>
      <point x="187" y="-50"/>
      <point x="168" y="-50" type="curve" smooth="yes"/>
      <point x="143" y="-50"/>
      <point x="110" y="-70"/>
      <point x="110" y="-116" type="curve" smooth="yes"/>
      <point x="110" y="-164"/>
      <point x="157" y="-204"/>
      <point x="235" y="-204" type="curve" smooth="yes"/>
      <point x="341" y="-204"/>
      <point x="469" y="-126"/>
      <point x="500" y="-1" type="curve" smooth="yes"/>
      <point x="596" y="384" type="line" smooth="yes"/>
      <point x="598" y="391"/>
      <point x="599" y="395"/>
      <point x="599" y="398" type="curve" smooth="yes"/>
      <point x="599" y="410"/>
      <point x="590" y="431"/>
      <point x="563" y="431" type="curve" smooth="yes"/>
      <point x="546" y="431"/>
      <point x="529" y="420"/>
      <point x="522" y="406" type="curve"/>
      <point x="518" y="399"/>
      <point x="511" y="368"/>
      <point x="506" y="349" type="curve" smooth="yes"/>
      <point x="488.68399999999997" y="279.736"/>
      <point x="471.368" y="210.47199999999998"/>
      <point x="454" y="141" type="curve" smooth="yes"/>
      <point x="447" y="113"/>
      <point x="443" y="97"/>
      <point x="403" y="59" type="curve" smooth="yes"/>
      <point x="392" y="49"/>
      <point x="360" y="23"/>
      <point x="317" y="23" type="curve" smooth="yes"/>
      <point x="243" y="23"/>
      <point x="243" y="88"/>
      <point x="243" y="106" type="curve" smooth="yes"/>
      <point x="243" y="150"/>
      <point x="255" y="195"/>
      <point x="299" y="305" type="curve" smooth="yes"/>
      <point x="309" y="329"/>
      <point x="312" y="336"/>
      <point x="312" y="354" type="curve" smooth="yes"/>
      <point x="312" y="410"/>
      <point x="262" y="441"/>
      <point x="212" y="441" type="curve" smooth="yes"/>
      <point x="110" y="441"/>
      <point x="61" y="309"/>
      <point x="61" y="287" type="curve" smooth="yes"/>
      <point x="61" y="282"/>
      <point x="65" y="273"/>
      <point x="79" y="273" type="curve" smooth="yes"/>
      <point x="93" y="273"/>
      <point x="96" y="279"/>
      <point x="99" y="288" type="curve" smooth="yes"/>
      <point x="127" y="385"/>
      <point x="180" y="408"/>
      <point x="208" y="408" type="curve" smooth="yes"/>
      <point x="228" y="408"/>
      <point x="235" y="395"/>
      <point x="235" y="372" type="curve" smooth="yes"/>
      <point x="235" y="351"/>
      <point x="222" y="317"/>
      <point x="211" y="290" type="curve" smooth="yes"/>
      <point x="176" y="202"/>
      <point x="164" y="156"/>
      <point x="164" y="120" type="curve" smooth="yes"/>
      <point x="164" y="25"/>
      <point x="235" y="-10"/>
      <point x="313" y="-10" type="curve" smooth="yes"/>
      <point x="327" y="-10"/>
      <point x="374" y="-10"/>
      <point x="427" y="36" type="curve"/>
    </contour>
  </outline>
</glyph>
<glyph name="z" format="2">
  <advance width="596"/>
  <unicode hex="007A"/>
  <outline>
    <contour>
      <point x="189" y="90" type="curve"/>
      <point x="220" y="120"/>
      <point x="255" y="149"/>
      <point x="308" y="189" type="curve" smooth="yes"/>
      <point x="376" y="241"/>
      <point x="416" y="272"/>
      <point x="459" y="312" type="curve" smooth="yes"/>
      <point x="516" y="364"/>
      <point x="554" y="417"/>
      <point x="554" y="427" type="curve" smooth="yes"/>
      <point x="554" y="441"/>
      <point x="540" y="441"/>
      <point x="536" y="441" type="curve" smooth="yes"/>
      <point x="526" y="441"/>
      <point x="523" y="439"/>
      <point x="516" y="428" type="curve" smooth="yes"/>
      <point x="498" y="402"/>
      <point x="471" y="372"/>
      <point x="439" y="372" type="curve" smooth="yes"/>
      <point x="415" y="372"/>
      <point x="394" y="389"/>
      <point x="381" y="400" type="curve" smooth="yes"/>
      <point x="355" y="422"/>
      <point x="332" y="441"/>
      <point x="295" y="441" type="curve" smooth="yes"/>
      <point x="211" y="441"/>
      <point x="155" y="353"/>
      <point x="155" y="323" type="curve" smooth="yes"/>
      <point x="155" y="312"/>
      <point x="163" y="308"/>
      <point x="173" y="308" type="curve" smooth="yes"/>
      <point x="186" y="308"/>
      <point x="189" y="314"/>
      <point x="192" y="322" type="curve" smooth="yes"/>
      <point x="206" y="357"/>
      <point x="262" y="360"/>
      <point x="283" y="360" type="curve" smooth="yes"/>
      <point x="309" y="360"/>
      <point x="335" y="355"/>
      <point x="355" y="350" type="curve"/>
      <point x="406" y="340"/>
      <point x="417" y="340"/>
      <point x="439" y="339" type="curve"/>
      <point x="416" y="317"/>
      <point x="392" y="295"/>
      <point x="327" y="246" type="curve" smooth="yes"/>
      <point x="246" y="184"/>
      <point x="216" y="161"/>
      <point x="174" y="122" type="curve" smooth="yes"/>
      <point x="123" y="76"/>
      <point x="75" y="17"/>
      <point x="75" y="4" type="curve" smooth="yes"/>
      <point x="75" y="-10"/>
      <point x="90" y="-10"/>
      <point x="94" y="-10" type="curve" smooth="yes"/>
      <point x="104" y="-10"/>
      <point x="106" y="-8"/>
      <point x="112" y="0" type="curve" smooth="yes"/>
      <point x="152" y="53"/>
      <point x="191" y="59"/>
      <point x="207" y="59" type="curve" smooth="yes"/>
      <point x="231" y="59"/>
      <point x="248" y="46"/>
      <point x="266" y="31" type="curve" smooth="yes"/>
      <point x="296" y="8"/>
      <point x="317" y="-10"/>
      <point x="353" y="-10" type="curve" smooth="yes"/>
      <point x="464" y="-10"/>
      <point x="535" y="112"/>
      <point x="535" y="148" type="curve" smooth="yes"/>
      <point x="535" y="157"/>
      <point x="526" y="162"/>
      <point x="516" y="162" type="curve" smooth="yes"/>
      <point x="502" y="162"/>
      <point x="500" y="156"/>
      <point x="497" y="146" type="curve"/>
      <point x="477" y="91"/>
      <point x="411" y="71"/>
      <point x="364" y="71" type="curve" smooth="yes"/>
      <point x="340" y="71"/>
      <point x="316" y="76"/>
      <point x="290" y="81" type="curve" smooth="yes"/>
      <point x="260" y="87"/>
      <point x="236" y="92"/>
      <point x="212" y="92" type="curve" smooth="yes"/>
      <point x="207" y="92"/>
      <point x="198" y="92"/>
    </contour>
  </outline>
</glyph>
<glyph name="mu" format="2">
  <advance width="750"/>
  <unicode hex="00B5"/>
  <outline>
    <contour>
      <point x="467" y="141" type="line" smooth="yes"/>
      <point x="462" y="122"/>
      <point x="462" y="120"/>
      <point x="444" y="97" type="curve" smooth="yes"/>
      <point x="422" y="70"/>
      <point x="375" y="23"/>
      <point x="313" y="23" type="curve" smooth="yes"/>
      <point x="225" y="23"/>
      <point x="225" y="92"/>
      <point x="225" y="112" type="curve" smooth="yes"/>
      <point x="225" y="138"/>
      <point x="228" y="151"/>
      <point x="236" y="184" type="curve" smooth="yes"/>
      <point x="245" y="217"/>
      <point x="247" y="225"/>
      <point x="256" y="262" type="curve" smooth="yes"/>
      <point x="265" y="299"/>
      <point x="267" y="307"/>
      <point x="276" y="340" type="curve"/>
      <point x="281" y="363"/>
      <point x="291" y="402"/>
      <point x="291" y="407" type="curve" smooth="yes"/>
      <point x="291" y="431"/>
      <point x="272" y="441"/>
      <point x="256" y="441" type="curve" smooth="yes"/>
      <point x="219" y="441"/>
      <point x="210" y="406"/>
      <point x="207" y="393" type="curve" smooth="yes"/>
      <point x="67" y="-168" type="line" smooth="yes"/>
      <point x="65" y="-176"/>
      <point x="64" y="-179"/>
      <point x="64" y="-182" type="curve" smooth="yes"/>
      <point x="64" y="-194"/>
      <point x="73" y="-215"/>
      <point x="100" y="-215" type="curve" smooth="yes"/>
      <point x="135" y="-215"/>
      <point x="144" y="-185"/>
      <point x="149" y="-164" type="curve"/>
      <point x="154" y="-148"/>
      <point x="168" y="-86"/>
      <point x="196" y="20" type="curve"/>
      <point x="237" y="-10"/>
      <point x="298" y="-10"/>
      <point x="309" y="-10" type="curve" smooth="yes"/>
      <point x="385" y="-10"/>
      <point x="431" y="35"/>
      <point x="459" y="63" type="curve"/>
      <point x="478" y="-2"/>
      <point x="546" y="-10"/>
      <point x="568" y="-10" type="curve" smooth="yes"/>
      <point x="604" y="-10"/>
      <point x="630" y="10"/>
      <point x="649" y="41" type="curve" smooth="yes"/>
      <point x="674" y="81"/>
      <point x="688" y="139"/>
      <point x="688" y="144" type="curve" smooth="yes"/>
      <point x="688" y="146"/>
      <point x="687" y="158"/>
      <point x="669" y="158" type="curve" smooth="yes"/>
      <point x="654" y="158"/>
      <point x="652" y="151"/>
      <point x="648" y="135" type="curve" smooth="yes"/>
      <point x="632" y="74"/>
      <point x="611" y="23"/>
      <point x="572" y="23" type="curve" smooth="yes"/>
      <point x="538" y="23"/>
      <point x="535" y="59"/>
      <point x="535" y="74" type="curve" smooth="yes"/>
      <point x="535" y="87"/>
      <point x="538" y="98"/>
      <point x="546" y="131" type="curve" smooth="yes"/>
      <point x="556" y="169"/>
      <point x="556" y="171"/>
      <point x="565" y="208" type="curve" smooth="yes"/>
      <point x="604" y="361" type="line" smooth="yes"/>
      <point x="607" y="373"/>
      <point x="612" y="393"/>
      <point x="612" y="398" type="curve" smooth="yes"/>
      <point x="612" y="410"/>
      <point x="603" y="431"/>
      <point x="576" y="431" type="curve" smooth="yes"/>
      <point x="559" y="431"/>
      <point x="542" y="420"/>
      <point x="535" y="406" type="curve"/>
      <point x="531" y="399"/>
      <point x="524" y="368"/>
      <point x="519" y="349" type="curve" smooth="yes"/>
    </contour>
  </outline>
</glyph>
<glyph name="dotlessi" format="2">
  <advance width="445"/>
  <unicode hex="0131"/>
  <outline>
    <contour>
      <point x="288" y="275" type="line" smooth="yes"/>
      <point x="292" y="285"/>
      <point x="301" y="309"/>
      <point x="305" y="318" type="curve"/>
      <point x="308" y="327"/>
      <point x="312" y="337"/>
      <point x="312" y="354" type="curve" smooth="yes"/>
      <point x="312" y="410"/>
      <point x="262" y="441"/>
      <point x="212" y="441" type="curve" smooth="yes"/>
      <point x="110" y="441"/>
      <point x="61" y="309"/>
      <point x="61" y="287" type="curve" smooth="yes"/>
      <point x="61" y="282"/>
      <point x="65" y="273"/>
      <point x="79" y="273" type="curve" smooth="yes"/>
      <point x="93" y="273"/>
      <point x="96" y="279"/>
      <point x="99" y="288" type="curve" smooth="yes"/>
      <point x="127" y="385"/>
      <point x="180" y="408"/>
      <point x="208" y="408" type="curve" smooth="yes"/>
      <point x="228" y="408"/>
      <point x="235" y="395"/>
      <point x="235" y="372" type="curve" smooth="yes"/>
      <point x="235" y="352"/>
      <point x="229" y="337"/>
      <point x="227" y="330" type="curve"/>
      <point x="175" y="202" type="line" smooth="yes"/>
      <point x="163" y="173"/>
      <point x="163" y="171"/>
      <point x="150" y="137" type="curve" smooth="yes"/>
      <point x="137" y="107"/>
      <point x="132" y="94"/>
      <point x="132" y="77" type="curve" smooth="yes"/>
      <point x="132" y="26"/>
      <point x="178" y="-10"/>
      <point x="233" y="-10" type="curve" smooth="yes"/>
      <point x="334" y="-10"/>
      <point x="384" y="122"/>
      <point x="384" y="144" type="curve" smooth="yes"/>
      <point x="384" y="146"/>
      <point x="383" y="158"/>
      <point x="365" y="158" type="curve" smooth="yes"/>
      <point x="351" y="158"/>
      <point x="350" y="153"/>
      <point x="344" y="134" type="curve" smooth="yes"/>
      <point x="328" y="83"/>
      <point x="287" y="23"/>
      <point x="236" y="23" type="curve" smooth="yes"/>
      <point x="218" y="23"/>
      <point x="209" y="35"/>
      <point x="209" y="59" type="curve" smooth="yes"/>
      <point x="209" y="79"/>
      <point x="215" y="94"/>
      <point x="228" y="125" type="curve" smooth="yes"/>
    </contour>
  </outline>
</glyph>
<glyph name="Gamma" format="2">
  <advance width="742"/>
  <unicode hex="0393"/>
  <outline>
    <contour>
      <point x="435" y="605" type="line" smooth="yes"/>
      <point x="443" y="637"/>
      <point x="444" y="639"/>
      <point x="486" y="639" type="curve" smooth="yes"/>
      <point x="631" y="639" type="line" smooth="yes"/>
      <point x="763" y="639"/>
      <point x="786" y="607"/>
      <point x="786" y="525" type="curve" smooth="yes"/>
      <point x="786" y="489"/>
      <point x="782" y="470"/>
      <point x="782" y="462" type="curve" smooth="yes"/>
      <point x="782" y="445"/>
      <point x="796" y="445"/>
      <point x="801" y="445" type="curve" smooth="yes"/>
      <point x="817" y="445"/>
      <point x="818" y="453"/>
      <point x="820" y="471" type="curve" smooth="yes"/>
      <point x="838" y="648" type="line" smooth="yes"/>
      <point x="841" y="679"/>
      <point x="833" y="679"/>
      <point x="808" y="679" type="curve" smooth="yes"/>
      <point x="277" y="679" type="line" smooth="yes"/>
      <point x="258" y="679"/>
      <point x="244" y="679"/>
      <point x="244" y="654" type="curve" smooth="yes"/>
      <point x="244" y="639"/>
      <point x="257" y="639"/>
      <point x="276" y="639" type="curve" smooth="yes"/>
      <point x="294" y="639"/>
      <point x="319" y="639"/>
      <point x="340" y="632" type="curve"/>
      <point x="340" y="622"/>
      <point x="340" y="616"/>
      <point x="336" y="600" type="curve" smooth="yes"/>
      <point x="206" y="83" type="line" smooth="yes"/>
      <point x="197" y="47"/>
      <point x="195" y="40"/>
      <point x="120" y="40" type="curve" smooth="yes"/>
      <point x="97" y="40"/>
      <point x="84" y="40"/>
      <point x="84" y="15" type="curve" smooth="yes"/>
      <point x="84" y="7"/>
      <point x="90" y="0"/>
      <point x="101" y="0" type="curve" smooth="yes"/>
      <point x="122" y="0"/>
      <point x="146" y="3"/>
      <point x="168" y="3" type="curve" smooth="yes"/>
      <point x="192" y="3"/>
      <point x="215" y="4"/>
      <point x="239" y="4" type="curve" smooth="yes"/>
      <point x="266" y="4"/>
      <point x="295" y="3"/>
      <point x="322" y="3" type="curve" smooth="yes"/>
      <point x="346" y="3"/>
      <point x="374" y="0"/>
      <point x="398" y="0" type="curve" smooth="yes"/>
      <point x="405" y="0"/>
      <point x="422" y="0"/>
      <point x="422" y="25" type="curve" smooth="yes"/>
      <point x="422" y="40"/>
      <point x="409" y="40"/>
      <point x="383" y="40" type="curve" smooth="yes"/>
      <point x="361" y="40"/>
      <point x="356" y="40"/>
      <point x="331" y="42" type="curve" smooth="yes"/>
      <point x="301" y="45"/>
      <point x="299" y="48"/>
      <point x="299" y="58" type="curve" smooth="yes"/>
      <point x="299" y="59"/>
      <point x="299" y="64"/>
      <point x="303" y="79" type="curve" smooth="yes"/>
    </contour>
  </outline>
</glyph>
<glyph name="Theta" format="2">
  <advance width="934"/>
  <unicode hex="0398"/>
  <outline>
    <contour>
      <point x="880" y="422" type="curve" smooth="yes"/>
      <point x="880" y="585"/>
      <point x="757" y="704"/>
      <point x="572" y="704" type="curve" smooth="yes"/>
      <point x="319" y="704"/>
      <point x="83" y="478"/>
      <point x="83" y="258" type="curve" smooth="yes"/>
      <point x="83" y="101"/>
      <point x="203" y="-21"/>
      <point x="392" y="-21" type="curve" smooth="yes"/>
      <point x="639" y="-21"/>
      <point x="880" y="192"/>
    </contour>
    <contour>
      <point x="401" y="14" type="curve" smooth="yes"/>
      <point x="286" y="14"/>
      <point x="182" y="83"/>
      <point x="182" y="236" type="curve" smooth="yes"/>
      <point x="182" y="446"/>
      <point x="349" y="671"/>
      <point x="564" y="671" type="curve" smooth="yes"/>
      <point x="682" y="671"/>
      <point x="782" y="596"/>
      <point x="782" y="445" type="curve" smooth="yes"/>
      <point x="782" y="417"/>
      <point x="778" y="261"/>
      <point x="657" y="131" type="curve" smooth="yes"/>
      <point x="598" y="68"/>
      <point x="503" y="14"/>
    </contour>
    <contour>
      <point x="251" y="296" type="line" smooth="yes"/>
      <point x="248" y="285"/>
      <point x="248" y="282"/>
      <point x="248" y="281" type="curve" smooth="yes"/>
      <point x="248" y="279"/>
      <point x="250" y="266"/>
      <point x="266" y="266" type="curve" smooth="yes"/>
      <point x="288" y="266"/>
      <point x="289" y="299"/>
      <point x="289" y="300" type="curve"/>
      <point x="654" y="300" type="line"/>
      <point x="651" y="286"/>
      <point x="651" y="284"/>
      <point x="651" y="282" type="curve" smooth="yes"/>
      <point x="651" y="276"/>
      <point x="655" y="266"/>
      <point x="669" y="266" type="curve" smooth="yes"/>
      <point x="684" y="266"/>
      <point x="685" y="271"/>
      <point x="693" y="304" type="curve" smooth="yes"/>
      <point x="696" y="315"/>
      <point x="718" y="399"/>
      <point x="718" y="403" type="curve" smooth="yes"/>
      <point x="718" y="411"/>
      <point x="711" y="419"/>
      <point x="699" y="419" type="curve" smooth="yes"/>
      <point x="678" y="419"/>
      <point x="676" y="386"/>
      <point x="676" y="385" type="curve"/>
      <point x="311" y="385" type="line"/>
      <point x="312" y="389"/>
      <point x="315" y="398"/>
      <point x="315" y="403" type="curve" smooth="yes"/>
      <point x="315" y="411"/>
      <point x="308" y="419"/>
      <point x="296" y="419" type="curve" smooth="yes"/>
      <point x="282" y="419"/>
      <point x="280" y="411"/>
      <point x="276" y="396" type="curve" smooth="yes"/>
    </contour>
  </outline>
</glyph>
<glyph name="Lambda" format="2">
  <advance width="859"/>
  <unicode hex="039B"/>
  <outline>
    <contour>
      <point x="212" y="122" type="line" smooth="yes"/>
      <point x="172" y="59"/>
      <point x="139" y="44"/>
      <point x="97" y="40" type="curve" smooth="yes"/>
      <point x="84" y="39"/>
      <point x="71" y="38"/>
      <point x="71" y="15" type="curve" smooth="yes"/>
      <point x="71" y="7"/>
      <point x="77" y="0"/>
      <point x="86" y="0" type="curve" smooth="yes"/>
      <point x="111" y="0"/>
      <point x="141" y="4"/>
      <point x="167" y="4" type="curve" smooth="yes"/>
      <point x="191" y="4"/>
      <point x="249" y="0"/>
      <point x="273" y="0" type="curve" smooth="yes"/>
      <point x="286" y="0"/>
      <point x="294" y="8"/>
      <point x="294" y="25" type="curve" smooth="yes"/>
      <point x="294" y="39"/>
      <point x="281" y="40"/>
      <point x="274" y="40" type="curve"/>
      <point x="251" y="42"/>
      <point x="230" y="49"/>
      <point x="230" y="70" type="curve" smooth="yes"/>
      <point x="230" y="82"/>
      <point x="240" y="100"/>
      <point x="245" y="107" type="curve"/>
      <point x="543" y="578" type="line"/>
      <point x="609" y="80" type="line" smooth="yes"/>
      <point x="611" y="69"/>
      <point x="611" y="67"/>
      <point x="611" y="66" type="curve" smooth="yes"/>
      <point x="611" y="43"/>
      <point x="557" y="40"/>
      <point x="543" y="40" type="curve" smooth="yes"/>
      <point x="527" y="40"/>
      <point x="513" y="40"/>
      <point x="513" y="15" type="curve" smooth="yes"/>
      <point x="513" y="12"/>
      <point x="514" y="0"/>
      <point x="530" y="0" type="curve" smooth="yes"/>
      <point x="551" y="0"/>
      <point x="575" y="3"/>
      <point x="597" y="3" type="curve" smooth="yes"/>
      <point x="619" y="3"/>
      <point x="640" y="4"/>
      <point x="662" y="4" type="curve" smooth="yes"/>
      <point x="691" y="4"/>
      <point x="686" y="3"/>
      <point x="721" y="3" type="curve" smooth="yes"/>
      <point x="738" y="3"/>
      <point x="758" y="0"/>
      <point x="775" y="0" type="curve" smooth="yes"/>
      <point x="786" y="0"/>
      <point x="797" y="5"/>
      <point x="797" y="25" type="curve" smooth="yes"/>
      <point x="797" y="40"/>
      <point x="783" y="40"/>
      <point x="770" y="40" type="curve" smooth="yes"/>
      <point x="718" y="40"/>
      <point x="718" y="45"/>
      <point x="714" y="73" type="curve" smooth="yes"/>
      <point x="633" y="687" type="line" smooth="yes"/>
      <point x="630" y="712"/>
      <point x="623" y="714"/>
      <point x="607" y="714" type="curve" smooth="yes"/>
      <point x="587" y="714"/>
      <point x="582" y="706"/>
      <point x="574" y="694" type="curve" smooth="yes"/>
    </contour>
  </outline>
</glyph>
<glyph name="Xi" format="2">
  <advance width="907"/>
  <unicode hex="039E"/>
  <outline>
    <contour>
      <point x="903" y="645" type="line" smooth="yes"/>
      <point x="905" y="654"/>
      <point x="905" y="656"/>
      <point x="905" y="660" type="curve" smooth="yes"/>
      <point x="905" y="676"/>
      <point x="893" y="676"/>
      <point x="874" y="676" type="curve" smooth="yes"/>
      <point x="289" y="676" type="line" smooth="yes"/>
      <point x="263" y="676"/>
      <point x="262" y="675"/>
      <point x="255" y="654" type="curve" smooth="yes"/>
      <point x="220" y="546" type="line" smooth="yes"/>
      <point x="219" y="543"/>
      <point x="215" y="532"/>
      <point x="215" y="527" type="curve" smooth="yes"/>
      <point x="215" y="517"/>
      <point x="223" y="512"/>
      <point x="233" y="512" type="curve" smooth="yes"/>
      <point x="248" y="512"/>
      <point x="250" y="518"/>
      <point x="254" y="534" type="curve"/>
      <point x="257" y="542"/>
      <point x="273" y="591"/>
      <point x="283" y="593" type="curve"/>
      <point x="294" y="597"/>
      <point x="348" y="598"/>
      <point x="363" y="598" type="curve" smooth="yes"/>
      <point x="776" y="598" type="line" smooth="yes"/>
      <point x="796" y="598"/>
      <point x="832" y="597"/>
      <point x="851" y="595" type="curve"/>
      <point x="851" y="575"/>
      <point x="851" y="569"/>
      <point x="845" y="538" type="curve" smooth="yes"/>
      <point x="844" y="532"/>
      <point x="844" y="530"/>
      <point x="844" y="528" type="curve" smooth="yes"/>
      <point x="844" y="518"/>
      <point x="850" y="512"/>
      <point x="862" y="512" type="curve" smooth="yes"/>
      <point x="874" y="512"/>
      <point x="880" y="517"/>
      <point x="883" y="535" type="curve" smooth="yes"/>
    </contour>
    <contour>
      <point x="224" y="78" type="line" smooth="yes"/>
      <point x="179" y="78"/>
      <point x="177" y="78"/>
      <point x="145" y="82" type="curve"/>
      <point x="145" y="99"/>
      <point x="145" y="110"/>
      <point x="150" y="137" type="curve"/>
      <point x="151" y="141"/>
      <point x="154" y="156"/>
      <point x="154" y="159" type="curve" smooth="yes"/>
      <point x="154" y="171"/>
      <point x="145" y="175"/>
      <point x="136" y="175" type="curve" smooth="yes"/>
      <point x="120" y="175"/>
      <point x="118" y="168"/>
      <point x="115" y="154" type="curve" smooth="yes"/>
      <point x="111" y="134"/>
      <point x="90" y="27"/>
      <point x="90" y="16" type="curve" smooth="yes"/>
      <point x="90" y="0"/>
      <point x="102" y="0"/>
      <point x="121" y="0" type="curve" smooth="yes"/>
      <point x="718" y="0" type="line" smooth="yes"/>
      <point x="740" y="0"/>
      <point x="745" y="0"/>
      <point x="750" y="13" type="curve" smooth="yes"/>
      <point x="753" y="22"/>
      <point x="769" y="74"/>
      <point x="773" y="89" type="curve"/>
      <point x="781" y="113"/>
      <point x="795" y="157"/>
      <point x="795" y="160" type="curve" smooth="yes"/>
      <point x="795" y="175"/>
      <point x="780" y="175"/>
      <point x="776" y="175" type="curve" smooth="yes"/>
      <point x="762" y="175"/>
      <point x="761" y="171"/>
      <point x="753" y="145" type="curve" smooth="yes"/>
      <point x="744" y="117"/>
      <point x="731" y="86"/>
      <point x="725" y="83" type="curve"/>
      <point x="713" y="78"/>
      <point x="654" y="78"/>
      <point x="639" y="78" type="curve" smooth="yes"/>
    </contour>
    <contour>
      <point x="325" y="391" type="line"/>
      <point x="328" y="400"/>
      <point x="334" y="423"/>
      <point x="334" y="428" type="curve" smooth="yes"/>
      <point x="334" y="440"/>
      <point x="326" y="444"/>
      <point x="316" y="444" type="curve" smooth="yes"/>
      <point x="301" y="444"/>
      <point x="299" y="436"/>
      <point x="295" y="424" type="curve"/>
      <point x="291" y="407"/>
      <point x="259" y="281"/>
      <point x="259" y="276" type="curve" smooth="yes"/>
      <point x="259" y="264"/>
      <point x="267" y="260"/>
      <point x="277" y="260" type="curve" smooth="yes"/>
      <point x="292" y="260"/>
      <point x="294" y="268"/>
      <point x="298" y="281" type="curve" smooth="yes"/>
      <point x="302" y="296"/>
      <point x="302" y="299"/>
      <point x="306" y="313" type="curve"/>
      <point x="683" y="313" type="line"/>
      <point x="680" y="304"/>
      <point x="674" y="281"/>
      <point x="674" y="276" type="curve" smooth="yes"/>
      <point x="674" y="264"/>
      <point x="682" y="260"/>
      <point x="692" y="260" type="curve" smooth="yes"/>
      <point x="707" y="260"/>
      <point x="709" y="267"/>
      <point x="713" y="280" type="curve"/>
      <point x="727" y="336"/>
      <point x="718" y="304"/>
      <point x="732" y="360" type="curve" smooth="yes"/>
      <point x="738" y="383"/>
      <point x="749" y="426"/>
      <point x="749" y="429" type="curve" smooth="yes"/>
      <point x="749" y="440"/>
      <point x="740" y="444"/>
      <point x="731" y="444" type="curve" smooth="yes"/>
      <point x="716" y="444"/>
      <point x="714" y="436"/>
      <point x="710" y="423" type="curve" smooth="yes"/>
      <point x="706" y="408"/>
      <point x="706" y="405"/>
      <point x="702" y="391" type="curve"/>
    </contour>
  </outline>
</glyph>
<glyph name="Pi" format="2">
  <advance width="999"/>
  <unicode hex="03A0"/>
  <outline>
    <contour>
      <point x="885" y="594" type="line" smooth="yes"/>
      <point x="894" y="631"/>
      <point x="896" y="639"/>
      <point x="970" y="639" type="curve" smooth="yes"/>
      <point x="995" y="639"/>
      <point x="1008" y="639"/>
      <point x="1008" y="663" type="curve" smooth="yes"/>
      <point x="1008" y="679"/>
      <point x="996" y="679"/>
      <point x="977" y="679" type="curve" smooth="yes"/>
      <point x="278" y="679" type="line" smooth="yes"/>
      <point x="259" y="679"/>
      <point x="244" y="679"/>
      <point x="244" y="654" type="curve" smooth="yes"/>
      <point x="244" y="639"/>
      <point x="259" y="639"/>
      <point x="277" y="639" type="curve" smooth="yes"/>
      <point x="295" y="639"/>
      <point x="320" y="639"/>
      <point x="341" y="632" type="curve"/>
      <point x="341" y="622"/>
      <point x="341" y="616"/>
      <point x="337" y="600" type="curve" smooth="yes"/>
      <point x="207" y="83" type="line" smooth="yes"/>
      <point x="198" y="47"/>
      <point x="196" y="40"/>
      <point x="121" y="40" type="curve" smooth="yes"/>
      <point x="99" y="40"/>
      <point x="97" y="40"/>
      <point x="93" y="37" type="curve" smooth="yes"/>
      <point x="88" y="33"/>
      <point x="84" y="20"/>
      <point x="84" y="14" type="curve"/>
      <point x="85" y="10"/>
      <point x="86" y="0"/>
      <point x="102" y="0" type="curve" smooth="yes"/>
      <point x="123" y="0"/>
      <point x="147" y="3"/>
      <point x="169" y="3" type="curve" smooth="yes"/>
      <point x="192" y="3"/>
      <point x="214" y="4"/>
      <point x="236" y="4" type="curve" smooth="yes"/>
      <point x="259" y="4"/>
      <point x="282" y="3"/>
      <point x="305" y="3" type="curve" smooth="yes"/>
      <point x="327" y="3"/>
      <point x="352" y="0"/>
      <point x="374" y="0" type="curve" smooth="yes"/>
      <point x="380" y="0"/>
      <point x="387" y="0"/>
      <point x="391" y="7" type="curve"/>
      <point x="393" y="10"/>
      <point x="397" y="22"/>
      <point x="397" y="26" type="curve"/>
      <point x="394" y="40"/>
      <point x="385" y="40"/>
      <point x="362" y="40" type="curve" smooth="yes"/>
      <point x="350" y="40"/>
      <point x="335" y="41"/>
      <point x="324" y="42" type="curve" smooth="yes"/>
      <point x="306" y="44"/>
      <point x="299" y="44"/>
      <point x="299" y="55" type="curve" smooth="yes"/>
      <point x="299" y="59"/>
      <point x="300" y="63"/>
      <point x="303" y="73" type="curve" smooth="yes"/>
      <point x="444" y="639" type="line"/>
      <point x="798" y="639" type="line"/>
      <point x="659" y="83" type="line" smooth="yes"/>
      <point x="650" y="47"/>
      <point x="648" y="40"/>
      <point x="573" y="40" type="curve" smooth="yes"/>
      <point x="551" y="40"/>
      <point x="549" y="40"/>
      <point x="545" y="37" type="curve" smooth="yes"/>
      <point x="540" y="33"/>
      <point x="536" y="20"/>
      <point x="536" y="14" type="curve"/>
      <point x="537" y="10"/>
      <point x="538" y="0"/>
      <point x="554" y="0" type="curve" smooth="yes"/>
      <point x="575" y="0"/>
      <point x="599" y="3"/>
      <point x="621" y="3" type="curve" smooth="yes"/>
      <point x="644" y="3"/>
      <point x="666" y="4"/>
      <point x="688" y="4" type="curve" smooth="yes"/>
      <point x="711" y="4"/>
      <point x="734" y="3"/>
      <point x="757" y="3" type="curve" smooth="yes"/>
      <point x="779" y="3"/>
      <point x="804" y="0"/>
      <point x="826" y="0" type="curve" smooth="yes"/>
      <point x="832" y="0"/>
      <point x="839" y="0"/>
      <point x="843" y="7" type="curve"/>
      <point x="845" y="10"/>
      <point x="849" y="22"/>
      <point x="849" y="26" type="curve"/>
      <point x="846" y="40"/>
      <point x="837" y="40"/>
      <point x="814" y="40" type="curve" smooth="yes"/>
      <point x="802" y="40"/>
      <point x="787" y="41"/>
      <point x="776" y="42" type="curve" smooth="yes"/>
      <point x="758" y="44"/>
      <point x="751" y="44"/>
      <point x="751" y="55" type="curve" smooth="yes"/>
      <point x="751" y="59"/>
      <point x="752" y="63"/>
      <point x="755" y="73" type="curve" smooth="yes"/>
    </contour>
  </outline>
</glyph>
<glyph name="Sigma" format="2">
  <advance width="951"/>
  <unicode hex="03A3"/>
  <outline>
    <contour>
      <point x="539" y="323" type="line" smooth="yes"/>
      <point x="551" y="332"/>
      <point x="553" y="334"/>
      <point x="553" y="342" type="curve" smooth="yes"/>
      <point x="553" y="344"/>
      <point x="553" y="346"/>
      <point x="547" y="356" type="curve" smooth="yes"/>
      <point x="385" y="643" type="line"/>
      <point x="662" y="643" type="line" smooth="yes"/>
      <point x="701" y="643"/>
      <point x="781" y="640"/>
      <point x="820" y="626" type="curve" smooth="yes"/>
      <point x="870" y="609"/>
      <point x="885" y="559"/>
      <point x="885" y="501" type="curve" smooth="yes"/>
      <point x="885" y="484"/>
      <point x="883" y="469"/>
      <point x="883" y="466" type="curve" smooth="yes"/>
      <point x="883" y="449"/>
      <point x="897" y="449"/>
      <point x="902" y="449" type="curve" smooth="yes"/>
      <point x="918" y="449"/>
      <point x="919" y="457"/>
      <point x="921" y="475" type="curve" smooth="yes"/>
      <point x="939" y="652" type="line" smooth="yes"/>
      <point x="942" y="683"/>
      <point x="934" y="683"/>
      <point x="909" y="683" type="curve" smooth="yes"/>
      <point x="292" y="683" type="line" smooth="yes"/>
      <point x="271" y="683"/>
      <point x="270" y="682"/>
      <point x="266" y="679" type="curve" smooth="yes"/>
      <point x="261" y="675"/>
      <point x="257" y="662"/>
      <point x="257" y="656" type="curve"/>
      <point x="455" y="306" type="line"/>
      <point x="111" y="33" type="line" smooth="yes"/>
      <point x="99" y="24"/>
      <point x="97" y="22"/>
      <point x="97" y="15" type="curve" smooth="yes"/>
      <point x="97" y="0"/>
      <point x="110" y="0"/>
      <point x="128" y="0" type="curve" smooth="yes"/>
      <point x="745" y="0" type="line" smooth="yes"/>
      <point x="771" y="0"/>
      <point x="772" y="1"/>
      <point x="780" y="21" type="curve" smooth="yes"/>
      <point x="856" y="215" type="line"/>
      <point x="856" y="216"/>
      <point x="861" y="229"/>
      <point x="861" y="230" type="curve" smooth="yes"/>
      <point x="861" y="231"/>
      <point x="861" y="245"/>
      <point x="843" y="245" type="curve" smooth="yes"/>
      <point x="831" y="245"/>
      <point x="830" y="244"/>
      <point x="818" y="218" type="curve" smooth="yes"/>
      <point x="796" y="166"/>
      <point x="753" y="99"/>
      <point x="690" y="73" type="curve" smooth="yes"/>
      <point x="643" y="55"/>
      <point x="542" y="51"/>
      <point x="501" y="51" type="curve" smooth="yes"/>
      <point x="196" y="51" type="line"/>
    </contour>
  </outline>
</glyph>
<glyph name="Upsilon" format="2">
  <advance width="736"/>
  <unicode hex="03A5"/>
  <outline>
    <contour>
      <point x="425" y="451" type="curve"/>
      <point x="425" y="460"/>
      <point x="426" y="470"/>
      <point x="426" y="479" type="curve" smooth="yes"/>
      <point x="426" y="603"/>
      <point x="374" y="704"/>
      <point x="256" y="704" type="curve" smooth="yes"/>
      <point x="131" y="704"/>
      <point x="60" y="577"/>
      <point x="60" y="543" type="curve" smooth="yes"/>
      <point x="60" y="531"/>
      <point x="73" y="531"/>
      <point x="77" y="531" type="curve" smooth="yes"/>
      <point x="84" y="531"/>
      <point x="96" y="533"/>
      <point x="100" y="546" type="curve" smooth="yes"/>
      <point x="106" y="563"/>
      <point x="114" y="583"/>
      <point x="147" y="602" type="curve"/>
      <point x="165" y="611"/>
      <point x="194" y="622"/>
      <point x="233" y="622" type="curve" smooth="yes"/>
      <point x="250" y="622"/>
      <point x="306" y="622"/>
      <point x="339" y="564" type="curve" smooth="yes"/>
      <point x="361" y="525"/>
      <point x="364" y="476"/>
      <point x="364" y="450" type="curve" smooth="yes"/>
      <point x="364" y="402"/>
      <point x="360" y="386"/>
      <point x="330" y="268" type="curve" smooth="yes"/>
      <point x="325" y="247"/>
      <point x="290" y="108"/>
      <point x="289" y="101" type="curve"/>
      <point x="286" y="88"/>
      <point x="280" y="68"/>
      <point x="278" y="63" type="curve"/>
      <point x="266" y="41"/>
      <point x="238" y="40"/>
      <point x="170" y="40" type="curve" smooth="yes"/>
      <point x="148" y="40"/>
      <point x="135" y="40"/>
      <point x="135" y="15" type="curve" smooth="yes"/>
      <point x="135" y="5"/>
      <point x="143" y="0"/>
      <point x="153" y="0" type="curve" smooth="yes"/>
      <point x="179" y="0"/>
      <point x="207" y="3"/>
      <point x="233" y="3" type="curve" smooth="yes"/>
      <point x="260" y="3"/>
      <point x="286" y="4"/>
      <point x="313" y="4" type="curve" smooth="yes"/>
      <point x="341" y="4"/>
      <point x="368" y="3"/>
      <point x="396" y="3" type="curve" smooth="yes"/>
      <point x="422" y="3"/>
      <point x="450" y="0"/>
      <point x="476" y="0" type="curve" smooth="yes"/>
      <point x="483" y="0"/>
      <point x="500" y="0"/>
      <point x="500" y="25" type="curve" smooth="yes"/>
      <point x="500" y="40"/>
      <point x="488" y="40"/>
      <point x="463" y="40" type="curve" smooth="yes"/>
      <point x="460" y="40"/>
      <point x="435" y="40"/>
      <point x="411" y="42" type="curve" smooth="yes"/>
      <point x="380" y="44"/>
      <point x="377" y="47"/>
      <point x="377" y="58" type="curve" smooth="yes"/>
      <point x="377" y="62"/>
      <point x="378" y="64"/>
      <point x="379" y="72" type="curve"/>
      <point x="382" y="81"/>
      <point x="438" y="307"/>
      <point x="446" y="338" type="curve" smooth="yes"/>
      <point x="484" y="492"/>
      <point x="580" y="622"/>
      <point x="702" y="622" type="curve" smooth="yes"/>
      <point x="757" y="622"/>
      <point x="799" y="599"/>
      <point x="799" y="561" type="curve" smooth="yes"/>
      <point x="799" y="558"/>
      <point x="796" y="545"/>
      <point x="796" y="544" type="curve" smooth="yes"/>
      <point x="796" y="532"/>
      <point x="807" y="531"/>
      <point x="813" y="531" type="curve" smooth="yes"/>
      <point x="830" y="531"/>
      <point x="842" y="541"/>
      <point x="842" y="585" type="curve" smooth="yes"/>
      <point x="842" y="645"/>
      <point x="802" y="704"/>
      <point x="720" y="704" type="curve" smooth="yes"/>
      <point x="617" y="704"/>
      <point x="505" y="625"/>
    </contour>
  </outline>
</glyph>
<glyph name="Phi" format="2">
  <advance width="833"/>
  <unicode hex="03A6"/>
  <outline>
    <contour>
      <point x="524" y="591" type="line" smooth="yes"/>
      <point x="532" y="621"/>
      <point x="535" y="634"/>
      <point x="558" y="638" type="curve" smooth="yes"/>
      <point x="570" y="640"/>
      <point x="595" y="643"/>
      <point x="638" y="643" type="curve" smooth="yes"/>
      <point x="663" y="643"/>
      <point x="676" y="643"/>
      <point x="676" y="668" type="curve" smooth="yes"/>
      <point x="676" y="672"/>
      <point x="673" y="683"/>
      <point x="658" y="683" type="curve" smooth="yes"/>
      <point x="634" y="683"/>
      <point x="608" y="680"/>
      <point x="584" y="680" type="curve" smooth="yes"/>
      <point x="556" y="680"/>
      <point x="529" y="679"/>
      <point x="501" y="679" type="curve" smooth="yes"/>
      <point x="473" y="679"/>
      <point x="446" y="680"/>
      <point x="418" y="680" type="curve" smooth="yes"/>
      <point x="393" y="680"/>
      <point x="366" y="683"/>
      <point x="342" y="683" type="curve" smooth="yes"/>
      <point x="334" y="683"/>
      <point x="318" y="683"/>
      <point x="318" y="658" type="curve" smooth="yes"/>
      <point x="318" y="643"/>
      <point x="329" y="643"/>
      <point x="354" y="643" type="curve" smooth="yes"/>
      <point x="359" y="643"/>
      <point x="383" y="643"/>
      <point x="406" y="641" type="curve" smooth="yes"/>
      <point x="432" y="639"/>
      <point x="441" y="638"/>
      <point x="441" y="625" type="curve" smooth="yes"/>
      <point x="441" y="623"/>
      <point x="440" y="622"/>
      <point x="421" y="540" type="curve"/>
      <point x="231" y="527"/>
      <point x="57" y="429"/>
      <point x="57" y="313" type="curve" smooth="yes"/>
      <point x="57" y="232"/>
      <point x="151" y="157"/>
      <point x="321" y="143" type="curve"/>
      <point x="315" y="118"/>
      <point x="304" y="72"/>
      <point x="302" y="67" type="curve" smooth="yes"/>
      <point x="294" y="48"/>
      <point x="285" y="40"/>
      <point x="195" y="40" type="curve" smooth="yes"/>
      <point x="170" y="40"/>
      <point x="157" y="40"/>
      <point x="157" y="15" type="curve" smooth="yes"/>
      <point x="157" y="5"/>
      <point x="165" y="0"/>
      <point x="175" y="0" type="curve" smooth="yes"/>
      <point x="199" y="0"/>
      <point x="225" y="3"/>
      <point x="249" y="3" type="curve" smooth="yes"/>
      <point x="277" y="3"/>
      <point x="304" y="4"/>
      <point x="332" y="4" type="curve"/>
      <point x="332" y="4"/>
      <point x="415" y="3"/>
      <point x="415" y="3" type="curve"/>
      <point x="440" y="3"/>
      <point x="467" y="0"/>
      <point x="491" y="0" type="curve" smooth="yes"/>
      <point x="498" y="0"/>
      <point x="515" y="0"/>
      <point x="515" y="25" type="curve" smooth="yes"/>
      <point x="515" y="40"/>
      <point x="503" y="40"/>
      <point x="478" y="40" type="curve" smooth="yes"/>
      <point x="475" y="40"/>
      <point x="450" y="40"/>
      <point x="426" y="42" type="curve" smooth="yes"/>
      <point x="395" y="44"/>
      <point x="392" y="47"/>
      <point x="392" y="58" type="curve" smooth="yes"/>
      <point x="392" y="63"/>
      <point x="393" y="67"/>
      <point x="402" y="100" type="curve"/>
      <point x="403" y="105"/>
      <point x="409" y="129"/>
      <point x="412" y="144" type="curve"/>
      <point x="590" y="153"/>
      <point x="775" y="250"/>
      <point x="775" y="370" type="curve" smooth="yes"/>
      <point x="775" y="462"/>
      <point x="655" y="532"/>
      <point x="511" y="539" type="curve"/>
    </contour>
    <contour>
      <point x="503" y="506" type="line"/>
      <point x="553" y="503"/>
      <point x="590" y="493"/>
      <point x="621" y="474" type="curve" smooth="yes"/>
      <point x="667" y="445"/>
      <point x="671" y="408"/>
      <point x="671" y="380" type="curve" smooth="yes"/>
      <point x="671" y="296"/>
      <point x="604" y="187"/>
      <point x="421" y="177" type="curve"/>
    </contour>
    <contour>
      <point x="333" y="192" type="line"/>
      <point x="331" y="181" type="line"/>
      <point x="329" y="178"/>
      <point x="328" y="177"/>
      <point x="324" y="177" type="curve" smooth="yes"/>
      <point x="323" y="177"/>
      <point x="298" y="178"/>
      <point x="266" y="187" type="curve" smooth="yes"/>
      <point x="204" y="203"/>
      <point x="160" y="236"/>
      <point x="160" y="302" type="curve" smooth="yes"/>
      <point x="160" y="379"/>
      <point x="221" y="496"/>
      <point x="412" y="506" type="curve"/>
    </contour>
  </outline>
</glyph>
<glyph name="Psi" format="2">
  <advance width="781"/>
  <unicode hex="03A8"/>
  <outline>
    <contour>
      <point x="508" y="601" type="line" smooth="yes"/>
      <point x="516" y="635"/>
      <point x="518" y="643"/>
      <point x="620" y="643" type="curve" smooth="yes"/>
      <point x="644" y="643"/>
      <point x="657" y="643"/>
      <point x="657" y="668" type="curve" smooth="yes"/>
      <point x="657" y="672"/>
      <point x="654" y="683"/>
      <point x="639" y="683" type="curve" smooth="yes"/>
      <point x="615" y="683"/>
      <point x="589" y="680"/>
      <point x="565" y="680" type="curve" smooth="yes"/>
      <point x="537" y="680"/>
      <point x="510" y="679"/>
      <point x="482" y="679" type="curve" smooth="yes"/>
      <point x="454" y="679"/>
      <point x="427" y="680"/>
      <point x="399" y="680" type="curve" smooth="yes"/>
      <point x="374" y="680"/>
      <point x="347" y="683"/>
      <point x="323" y="683" type="curve" smooth="yes"/>
      <point x="315" y="683"/>
      <point x="299" y="683"/>
      <point x="299" y="658" type="curve" smooth="yes"/>
      <point x="299" y="643"/>
      <point x="310" y="643"/>
      <point x="335" y="643" type="curve" smooth="yes"/>
      <point x="340" y="643"/>
      <point x="364" y="643"/>
      <point x="387" y="641" type="curve" smooth="yes"/>
      <point x="413" y="639"/>
      <point x="422" y="638"/>
      <point x="422" y="625" type="curve" smooth="yes"/>
      <point x="422" y="621"/>
      <point x="419" y="612"/>
      <point x="418" y="606" type="curve"/>
      <point x="311" y="178" type="line"/>
      <point x="189" y="195"/>
      <point x="189" y="295"/>
      <point x="189" y="323" type="curve" smooth="yes"/>
      <point x="189" y="336"/>
      <point x="189" y="361"/>
      <point x="199" y="403" type="curve"/>
      <point x="202" y="413"/>
      <point x="207" y="435"/>
      <point x="207" y="457" type="curve" smooth="yes"/>
      <point x="207" y="550"/>
      <point x="142" y="550"/>
      <point x="123" y="550" type="curve" smooth="yes"/>
      <point x="89" y="550" type="line" smooth="yes"/>
      <point x="70" y="550"/>
      <point x="57" y="550"/>
      <point x="57" y="532" type="curve" smooth="yes"/>
      <point x="57" y="519"/>
      <point x="69" y="517"/>
      <point x="74" y="517" type="curve"/>
      <point x="87" y="516"/>
      <point x="116" y="513"/>
      <point x="116" y="454" type="curve" smooth="yes"/>
      <point x="116" y="446"/>
      <point x="116" y="435"/>
      <point x="111" y="414" type="curve" smooth="yes"/>
      <point x="105" y="389"/>
      <point x="101" y="367"/>
      <point x="101" y="338" type="curve" smooth="yes"/>
      <point x="101" y="198"/>
      <point x="208" y="153"/>
      <point x="302" y="144" type="curve"/>
      <point x="284" y="69" type="line"/>
      <point x="276" y="48"/>
      <point x="268" y="40"/>
      <point x="176" y="40" type="curve" smooth="yes"/>
      <point x="151" y="40"/>
      <point x="138" y="40"/>
      <point x="138" y="15" type="curve" smooth="yes"/>
      <point x="138" y="5"/>
      <point x="146" y="0"/>
      <point x="156" y="0" type="curve" smooth="yes"/>
      <point x="180" y="0"/>
      <point x="206" y="3"/>
      <point x="230" y="3" type="curve" smooth="yes"/>
      <point x="258" y="3"/>
      <point x="285" y="4"/>
      <point x="313" y="4" type="curve"/>
      <point x="313" y="4"/>
      <point x="396" y="3"/>
      <point x="396" y="3" type="curve"/>
      <point x="421" y="3"/>
      <point x="448" y="0"/>
      <point x="472" y="0" type="curve" smooth="yes"/>
      <point x="479" y="0"/>
      <point x="496" y="0"/>
      <point x="496" y="25" type="curve" smooth="yes"/>
      <point x="496" y="40"/>
      <point x="484" y="40"/>
      <point x="459" y="40" type="curve" smooth="yes"/>
      <point x="456" y="40"/>
      <point x="431" y="40"/>
      <point x="407" y="42" type="curve" smooth="yes"/>
      <point x="376" y="44"/>
      <point x="373" y="47"/>
      <point x="373" y="58" type="curve" smooth="yes"/>
      <point x="373" y="63"/>
      <point x="374" y="67"/>
      <point x="383" y="100" type="curve"/>
      <point x="384" y="105"/>
      <point x="390" y="129"/>
      <point x="393" y="144" type="curve"/>
      <point x="483" y="150"/>
      <point x="554" y="181"/>
      <point x="602" y="220" type="curve" smooth="yes"/>
      <point x="684" y="286"/>
      <point x="706" y="364"/>
      <point x="721" y="417" type="curve" smooth="yes"/>
      <point x="722" y="420"/>
      <point x="747" y="507"/>
      <point x="813" y="517" type="curve"/>
      <point x="824" y="518"/>
      <point x="834" y="520"/>
      <point x="834" y="535" type="curve" smooth="yes"/>
      <point x="834" y="550"/>
      <point x="819" y="550"/>
      <point x="802" y="550" type="curve" smooth="yes"/>
      <point x="769" y="550" type="line" smooth="yes"/>
      <point x="676" y="550"/>
      <point x="644" y="466"/>
      <point x="625" y="399" type="curve" smooth="yes"/>
      <point x="595" y="289"/>
      <point x="520" y="198"/>
      <point x="403" y="180" type="curve"/>
    </contour>
  </outline>
</glyph>
<glyph name="alpha" format="2">
  <advance width="804"/>
  <unicode hex="03B1"/>
  <outline>
    <contour>
      <point x="587" y="141" type="curve"/>
      <point x="695" y="255"/>
      <point x="718" y="377"/>
      <point x="718" y="379" type="curve" smooth="yes"/>
      <point x="718" y="393"/>
      <point x="703" y="393"/>
      <point x="700" y="393" type="curve" smooth="yes"/>
      <point x="685" y="393"/>
      <point x="684" y="388"/>
      <point x="679" y="369" type="curve" smooth="yes"/>
      <point x="656" y="287"/>
      <point x="610" y="221"/>
      <point x="584" y="190" type="curve"/>
      <point x="582" y="213"/>
      <point x="582" y="235"/>
      <point x="580" y="258" type="curve" smooth="yes"/>
      <point x="567" y="383"/>
      <point x="472" y="441"/>
      <point x="375" y="441" type="curve" smooth="yes"/>
      <point x="222" y="441"/>
      <point x="76" y="307"/>
      <point x="76" y="168" type="curve" smooth="yes"/>
      <point x="76" y="65"/>
      <point x="154" y="-10"/>
      <point x="271" y="-10" type="curve" smooth="yes"/>
      <point x="324" y="-10"/>
      <point x="413" y="4"/>
      <point x="514" y="76" type="curve"/>
      <point x="529" y="33"/>
      <point x="564" y="-10"/>
      <point x="625" y="-10" type="curve" smooth="yes"/>
      <point x="684" y="-10"/>
      <point x="722" y="37"/>
      <point x="722" y="60" type="curve" smooth="yes"/>
      <point x="722" y="74"/>
      <point x="708" y="74"/>
      <point x="704" y="74" type="curve" smooth="yes"/>
      <point x="693" y="74"/>
      <point x="689" y="73"/>
      <point x="684" y="60" type="curve" smooth="yes"/>
      <point x="675" y="35"/>
      <point x="646" y="23"/>
      <point x="628" y="23" type="curve" smooth="yes"/>
      <point x="613" y="23"/>
      <point x="594" y="23"/>
    </contour>
    <contour>
      <point x="506" y="112" type="curve"/>
      <point x="408" y="35"/>
      <point x="319" y="23"/>
      <point x="273" y="23" type="curve" smooth="yes"/>
      <point x="208" y="23"/>
      <point x="163" y="63"/>
      <point x="163" y="135" type="curve" smooth="yes"/>
      <point x="163" y="170"/>
      <point x="179" y="262"/>
      <point x="221" y="321" type="curve" smooth="yes"/>
      <point x="266" y="386"/>
      <point x="330" y="408"/>
      <point x="373" y="408" type="curve" smooth="yes"/>
      <point x="443" y="408"/>
      <point x="479" y="355"/>
      <point x="493" y="277" type="curve" smooth="yes"/>
      <point x="501" y="234"/>
      <point x="500" y="171"/>
    </contour>
  </outline>
</glyph>
<glyph name="beta" format="2">
  <advance width="698"/>
  <unicode hex="03B2"/>
  <outline>
    <contour>
      <point x="670.0" y="569" type="curve" smooth="yes"/>
      <point x="670.0" y="643"/>
      <point x="601.0" y="705"/>
      <point x="490.0" y="705" type="curve" smooth="yes"/>
      <point x="460.0" y="705"/>
      <point x="428.0" y="696"/>
      <point x="401.0" y="682" type="curve" smooth="yes"/>
      <point x="309.0" y="635"/>
      <point x="243.0" y="536"/>
      <point x="221.0" y="447" type="curve" smooth="yes"/>
      <point x="64.0" y="-181" type="line" smooth="yes"/>
      <point x="61.0" y="-191"/>
      <point x="74.0" y="-194"/>
      <point x="84.0" y="-194" type="curve" smooth="yes"/>
      <point x="93.0" y="-194"/>
      <point x="99.0" y="-193"/>
      <point x="101.0" y="-184" type="curve"/>
      <point x="102.0" y="-183"/>
      <point x="156.0" y="33"/>
      <point x="167.0" y="78" type="curve"/>
      <point x="197.0" y="17"/>
      <point x="260.0" y="-10"/>
      <point x="325.0" y="-10" type="curve" smooth="yes"/>
      <point x="463.0" y="-10"/>
      <point x="635.0" y="85"/>
      <point x="635.0" y="240" type="curve" smooth="yes"/>
      <point x="635.0" y="294"/>
      <point x="615.0" y="352"/>
      <point x="554.0" y="395" type="curve"/>
      <point x="638.0" y="448"/>
      <point x="670.0" y="506"/>
    </contour>
    <contour>
      <point x="453.0" y="396" type="curve"/>
      <point x="443.0" y="394"/>
      <point x="418.0" y="392"/>
      <point x="408.0" y="392" type="curve" smooth="yes"/>
      <point x="398.0" y="392"/>
      <point x="372.0" y="392"/>
      <point x="365.0" y="395" type="curve"/>
      <point x="381.0" y="397"/>
      <point x="397.0" y="398"/>
      <point x="413.0" y="398" type="curve" smooth="yes"/>
      <point x="425.0" y="398"/>
      <point x="438.0" y="397"/>
    </contour>
    <contour>
      <point x="599.0" y="579" type="curve" smooth="yes"/>
      <point x="599.0" y="508"/>
      <point x="556.0" y="445"/>
      <point x="509.0" y="418" type="curve"/>
      <point x="480.0" y="428"/>
      <point x="450.0" y="431"/>
      <point x="420.0" y="431" type="curve" smooth="yes"/>
      <point x="395.0" y="431"/>
      <point x="319.0" y="433"/>
      <point x="319.0" y="393" type="curve" smooth="yes"/>
      <point x="319.0" y="356"/>
      <point x="383.0" y="359"/>
      <point x="408.0" y="359" type="curve" smooth="yes"/>
      <point x="432.0" y="359"/>
      <point x="485.0" y="363"/>
      <point x="506.0" y="375" type="curve"/>
      <point x="534.0" y="355"/>
      <point x="557.0" y="326"/>
      <point x="557.0" y="266" type="curve" smooth="yes"/>
      <point x="557.0" y="130"/>
      <point x="465.0" y="23"/>
      <point x="324.0" y="23" type="curve" smooth="yes"/>
      <point x="251.0" y="23"/>
      <point x="189.0" y="70"/>
      <point x="189.0" y="147" type="curve" smooth="yes"/>
      <point x="189.0" y="156"/>
      <point x="189.0" y="164"/>
      <point x="191.0" y="172" type="curve" smooth="yes"/>
      <point x="259.0" y="443" type="line" smooth="yes"/>
      <point x="283.0" y="540"/>
      <point x="379.0" y="672"/>
      <point x="491.0" y="672" type="curve" smooth="yes"/>
      <point x="551.0" y="672"/>
      <point x="599.0" y="645"/>
    </contour>
  </outline>
</glyph>
<glyph name="gamma" format="2">
  <advance width="652"/>
  <unicode hex="03B3"/>
  <outline>
    <contour>
      <point x="484" y="141" type="curve"/>
      <point x="472" y="242"/>
      <point x="420" y="441"/>
      <point x="267" y="441" type="curve" smooth="yes"/>
      <point x="128" y="441"/>
      <point x="46" y="304"/>
      <point x="46" y="263" type="curve" smooth="yes"/>
      <point x="46" y="249"/>
      <point x="60" y="249"/>
      <point x="64" y="249" type="curve" smooth="yes"/>
      <point x="78" y="249"/>
      <point x="79" y="253"/>
      <point x="84" y="266" type="curve" smooth="yes"/>
      <point x="106" y="328"/>
      <point x="182" y="358"/>
      <point x="253" y="358" type="curve" smooth="yes"/>
      <point x="413" y="358"/>
      <point x="448" y="215"/>
      <point x="448" y="89" type="curve" smooth="yes"/>
      <point x="448" y="65"/>
      <point x="447" y="41"/>
      <point x="441" y="23" type="curve" smooth="yes"/>
      <point x="415" y="-61"/>
      <point x="389" y="-163"/>
      <point x="389" y="-190" type="curve" smooth="yes"/>
      <point x="389" y="-196"/>
      <point x="392" y="-215"/>
      <point x="408" y="-215" type="curve" smooth="yes"/>
      <point x="427" y="-215"/>
      <point x="436" y="-185"/>
      <point x="444" y="-159" type="curve" smooth="yes"/>
      <point x="445" y="-156"/>
      <point x="471" y="-71"/>
      <point x="481" y="17" type="curve" smooth="yes"/>
      <point x="485" y="55"/>
      <point x="554" y="234"/>
      <point x="637" y="387" type="curve" smooth="yes"/>
      <point x="652" y="412"/>
      <point x="652" y="414"/>
      <point x="652" y="417" type="curve" smooth="yes"/>
      <point x="652" y="428"/>
      <point x="643" y="431"/>
      <point x="634" y="431" type="curve" smooth="yes"/>
      <point x="630" y="431"/>
      <point x="623" y="431"/>
      <point x="619" y="426" type="curve" smooth="yes"/>
      <point x="616" y="422"/>
      <point x="537" y="284"/>
    </contour>
  </outline>
</glyph>
<glyph name="delta" format="2">
  <advance width="566"/>
  <unicode hex="03B4"/>
  <outline>
    <contour>
      <point x="315" y="435" type="curve"/>
      <point x="154" y="394"/>
      <point x="74" y="263"/>
      <point x="74" y="166" type="curve" smooth="yes"/>
      <point x="74" y="68"/>
      <point x="150" y="-12"/>
      <point x="268" y="-12" type="curve" smooth="yes"/>
      <point x="382" y="-12"/>
      <point x="487" y="117"/>
      <point x="487" y="269" type="curve" smooth="yes"/>
      <point x="487" y="372"/>
      <point x="427" y="432"/>
      <point x="397" y="464" type="curve"/>
      <point x="381" y="479"/>
      <point x="280" y="583"/>
      <point x="280" y="632" type="curve" smooth="yes"/>
      <point x="280" y="649"/>
      <point x="296" y="674"/>
      <point x="334" y="674" type="curve" smooth="yes"/>
      <point x="371" y="674"/>
      <point x="404" y="656"/>
      <point x="429" y="642" type="curve" smooth="yes"/>
      <point x="444" y="634"/>
      <point x="471" y="619"/>
      <point x="488" y="619" type="curve" smooth="yes"/>
      <point x="511" y="619"/>
      <point x="531" y="641"/>
      <point x="531" y="663" type="curve" smooth="yes"/>
      <point x="531" y="688"/>
      <point x="517" y="691"/>
      <point x="465" y="701" type="curve" smooth="yes"/>
      <point x="403" y="714"/>
      <point x="383" y="715"/>
      <point x="362" y="715" type="curve" smooth="yes"/>
      <point x="245" y="715"/>
      <point x="242" y="624"/>
      <point x="242" y="611" type="curve" smooth="yes"/>
      <point x="242" y="553"/>
      <point x="285" y="481"/>
    </contour>
    <contour>
      <point x="336" y="403" type="curve"/>
      <point x="393" y="320"/>
      <point x="404" y="273"/>
      <point x="404" y="228" type="curve" smooth="yes"/>
      <point x="404" y="145"/>
      <point x="354" y="21"/>
      <point x="267" y="21" type="curve" smooth="yes"/>
      <point x="218" y="21"/>
      <point x="152" y="48"/>
      <point x="152" y="142" type="curve" smooth="yes"/>
      <point x="152" y="226"/>
      <point x="203" y="377"/>
    </contour>
  </outline>
</glyph>
<glyph name="epsilon" format="2">
  <advance width="586"/>
  <unicode hex="03B5"/>
  <outline>
    <contour>
      <point x="186" y="221" type="curve"/>
      <point x="227" y="206"/>
      <point x="268" y="206"/>
      <point x="285" y="206" type="curve" smooth="yes"/>
      <point x="316" y="206"/>
      <point x="381" y="206"/>
      <point x="381" y="245" type="curve" smooth="yes"/>
      <point x="381" y="277"/>
      <point x="330" y="277"/>
      <point x="297" y="277" type="curve" smooth="yes"/>
      <point x="271" y="277"/>
      <point x="236" y="277"/>
      <point x="188" y="258" type="curve"/>
      <point x="160" y="271"/>
      <point x="146" y="289"/>
      <point x="146" y="309" type="curve" smooth="yes"/>
      <point x="146" y="361"/>
      <point x="249" y="394"/>
      <point x="351" y="394" type="curve" smooth="yes"/>
      <point x="370" y="394"/>
      <point x="413" y="394"/>
      <point x="461" y="366" type="curve" smooth="yes"/>
      <point x="472" y="359"/>
      <point x="473" y="358"/>
      <point x="482" y="358" type="curve" smooth="yes"/>
      <point x="500" y="358"/>
      <point x="514" y="375"/>
      <point x="514" y="390" type="curve" smooth="yes"/>
      <point x="514" y="406"/>
      <point x="501" y="418"/>
      <point x="457" y="435" type="curve" smooth="yes"/>
      <point x="412" y="452"/>
      <point x="377" y="452"/>
      <point x="362" y="452" type="curve" smooth="yes"/>
      <point x="234" y="452"/>
      <point x="109" y="388"/>
      <point x="109" y="308" type="curve" smooth="yes"/>
      <point x="109" y="267"/>
      <point x="148" y="239"/>
      <point x="149" y="239" type="curve"/>
      <point x="96" y="207"/>
      <point x="61" y="162"/>
      <point x="61" y="111" type="curve" smooth="yes"/>
      <point x="61" y="41"/>
      <point x="132" y="-21"/>
      <point x="256" y="-21" type="curve" smooth="yes"/>
      <point x="425" y="-21"/>
      <point x="471" y="75"/>
      <point x="471" y="86" type="curve" smooth="yes"/>
      <point x="471" y="96"/>
      <point x="463" y="102"/>
      <point x="455" y="102" type="curve" smooth="yes"/>
      <point x="447" y="102"/>
      <point x="443" y="97"/>
      <point x="439" y="89" type="curve"/>
      <point x="410" y="46"/>
      <point x="361" y="37"/>
      <point x="271" y="37" type="curve" smooth="yes"/>
      <point x="240" y="37"/>
      <point x="193" y="37"/>
      <point x="154" y="52" type="curve" smooth="yes"/>
      <point x="126" y="64"/>
      <point x="98" y="85"/>
      <point x="98" y="117" type="curve" smooth="yes"/>
      <point x="98" y="155"/>
      <point x="139" y="200"/>
    </contour>
    <contour>
      <point x="332" y="242" type="curve"/>
      <point x="320" y="240"/>
      <point x="309" y="239"/>
      <point x="286" y="239" type="curve" smooth="yes"/>
      <point x="283" y="239"/>
      <point x="254" y="239"/>
      <point x="254" y="241" type="curve" smooth="yes"/>
      <point x="254" y="244"/>
      <point x="292" y="244"/>
      <point x="296" y="244" type="curve" smooth="yes"/>
      <point x="317" y="244"/>
      <point x="319" y="244"/>
    </contour>
  </outline>
</glyph>
<glyph name="zeta" format="2">
  <advance width="571"/>
  <unicode hex="03B6"/>
  <outline>
    <contour>
      <point x="385" y="562" type="curve"/>
      <point x="407" y="543"/>
      <point x="432" y="543"/>
      <point x="455" y="543" type="curve" smooth="yes"/>
      <point x="488" y="543"/>
      <point x="559" y="543"/>
      <point x="559" y="581" type="curve" smooth="yes"/>
      <point x="559" y="612"/>
      <point x="509" y="614"/>
      <point x="465" y="614" type="curve" smooth="yes"/>
      <point x="445" y="614"/>
      <point x="425" y="614"/>
      <point x="396" y="604" type="curve"/>
      <point x="391" y="616"/>
      <point x="389" y="621"/>
      <point x="389" y="642" type="curve" smooth="yes"/>
      <point x="389" y="660"/>
      <point x="394" y="674"/>
      <point x="394" y="681" type="curve" smooth="yes"/>
      <point x="394" y="693"/>
      <point x="383" y="698"/>
      <point x="377" y="698" type="curve" smooth="yes"/>
      <point x="352" y="698"/>
      <point x="352" y="653"/>
      <point x="352" y="643" type="curve" smooth="yes"/>
      <point x="352" y="625"/>
      <point x="355" y="607"/>
      <point x="363" y="590" type="curve"/>
      <point x="236" y="526"/>
      <point x="80" y="359"/>
      <point x="80" y="176" type="curve" smooth="yes"/>
      <point x="80" y="94"/>
      <point x="111" y="57"/>
      <point x="139" y="28" type="curve" smooth="yes"/>
      <point x="173" y="-5"/>
      <point x="222" y="-19"/>
      <point x="278" y="-35" type="curve" smooth="yes"/>
      <point x="296" y="-41"/>
      <point x="298" y="-41"/>
      <point x="334" y="-51" type="curve" smooth="yes"/>
      <point x="377" y="-63"/>
      <point x="411" y="-73"/>
      <point x="411" y="-116" type="curve" smooth="yes"/>
      <point x="411" y="-135"/>
      <point x="398" y="-171"/>
      <point x="364" y="-171" type="curve" smooth="yes"/>
      <point x="349" y="-171"/>
      <point x="313" y="-168"/>
      <point x="275" y="-145" type="curve"/>
      <point x="272" y="-142"/>
      <point x="267" y="-139"/>
      <point x="262" y="-139" type="curve" smooth="yes"/>
      <point x="255" y="-139"/>
      <point x="245" y="-146"/>
      <point x="245" y="-156" type="curve" smooth="yes"/>
      <point x="245" y="-171"/>
      <point x="279" y="-185"/>
      <point x="291" y="-189" type="curve"/>
      <point x="324" y="-203"/>
      <point x="352" y="-204"/>
      <point x="363" y="-204" type="curve" smooth="yes"/>
      <point x="436" y="-204"/>
      <point x="477" y="-130"/>
      <point x="477" y="-81" type="curve" smooth="yes"/>
      <point x="477" y="-37"/>
      <point x="450" y="-1"/>
      <point x="408" y="15" type="curve"/>
      <point x="398" y="18"/>
      <point x="348" y="33"/>
      <point x="318" y="41" type="curve" smooth="yes"/>
      <point x="247" y="61"/>
      <point x="211" y="71"/>
      <point x="184" y="103" type="curve" smooth="yes"/>
      <point x="173" y="115"/>
      <point x="148" y="145"/>
      <point x="148" y="206" type="curve" smooth="yes"/>
      <point x="148" y="350"/>
      <point x="272" y="504"/>
    </contour>
    <contour>
      <point x="499" y="578" type="line"/>
      <point x="485" y="577"/>
      <point x="478" y="576"/>
      <point x="456" y="576" type="curve" smooth="yes"/>
      <point x="439" y="576"/>
      <point x="437" y="576"/>
      <point x="427" y="578" type="curve"/>
      <point x="440" y="581"/>
      <point x="441" y="581"/>
      <point x="463" y="581" type="curve" smooth="yes"/>
      <point x="485" y="581"/>
      <point x="494" y="580"/>
      <point x="499" y="579" type="curve"/>
    </contour>
  </outline>
</glyph>
<glyph name="eta" format="2">
  <advance width="643"/>
  <unicode hex="03B7"/>
  <outline>
    <contour>
      <point x="601" y="272" type="line" smooth="yes"/>
      <point x="606" y="290"/>
      <point x="608" y="300"/>
      <point x="608" y="325" type="curve" smooth="yes"/>
      <point x="608" y="404"/>
      <point x="551" y="441"/>
      <point x="470" y="441" type="curve" smooth="yes"/>
      <point x="380" y="441"/>
      <point x="320" y="381"/>
      <point x="294" y="347" type="curve"/>
      <point x="288" y="416"/>
      <point x="227" y="441"/>
      <point x="180" y="441" type="curve" smooth="yes"/>
      <point x="134" y="441"/>
      <point x="110" y="408"/>
      <point x="97" y="386" type="curve" smooth="yes"/>
      <point x="73" y="344"/>
      <point x="61" y="292"/>
      <point x="61" y="288" type="curve" smooth="yes"/>
      <point x="61" y="277"/>
      <point x="70" y="273"/>
      <point x="79" y="273" type="curve" smooth="yes"/>
      <point x="95" y="273"/>
      <point x="96" y="280"/>
      <point x="101" y="296" type="curve"/>
      <point x="122" y="379"/>
      <point x="146" y="408"/>
      <point x="177" y="408" type="curve" smooth="yes"/>
      <point x="213" y="408"/>
      <point x="213" y="367"/>
      <point x="213" y="357" type="curve" smooth="yes"/>
      <point x="213" y="341"/>
      <point x="203" y="301"/>
      <point x="196" y="273" type="curve" smooth="yes"/>
      <point x="189" y="246"/>
      <point x="179" y="205"/>
      <point x="174" y="183" type="curve" smooth="yes"/>
      <point x="167" y="158"/>
      <point x="161" y="132"/>
      <point x="154" y="107" type="curve" smooth="yes"/>
      <point x="147" y="79"/>
      <point x="135" y="29"/>
      <point x="135" y="23" type="curve" smooth="yes"/>
      <point x="135" y="1"/>
      <point x="152" y="-10"/>
      <point x="170" y="-10" type="curve" smooth="yes"/>
      <point x="188" y="-10"/>
      <point x="205" y="2"/>
      <point x="213" y="17" type="curve"/>
      <point x="215" y="23"/>
      <point x="224" y="58"/>
      <point x="229" y="78" type="curve" smooth="yes"/>
      <point x="251" y="168" type="line" smooth="yes"/>
      <point x="258" y="194"/>
      <point x="262" y="212"/>
      <point x="268" y="235" type="curve" smooth="yes"/>
      <point x="277" y="271"/>
      <point x="315" y="328"/>
      <point x="353" y="363" type="curve" smooth="yes"/>
      <point x="395" y="399"/>
      <point x="437" y="408"/>
      <point x="466" y="408" type="curve" smooth="yes"/>
      <point x="529" y="408"/>
      <point x="529" y="356"/>
      <point x="529" y="338" type="curve" smooth="yes"/>
      <point x="529" y="315"/>
      <point x="524" y="292"/>
      <point x="523" y="288" type="curve" smooth="yes"/>
      <point x="409" y="-168" type="line" smooth="yes"/>
      <point x="407" y="-176"/>
      <point x="406" y="-178"/>
      <point x="406" y="-182" type="curve" smooth="yes"/>
      <point x="406" y="-194"/>
      <point x="415" y="-215"/>
      <point x="442" y="-215" type="curve" smooth="yes"/>
      <point x="479" y="-215"/>
      <point x="488" y="-179"/>
      <point x="491" y="-166" type="curve" smooth="yes"/>
    </contour>
  </outline>
</glyph>
<glyph name="theta" format="2">
  <advance width="590"/>
  <unicode hex="03B8"/>
  <outline>
    <contour>
      <point x="545" y="480" type="curve" smooth="yes"/>
      <point x="545" y="596"/>
      <point x="496" y="704"/>
      <point x="396" y="704" type="curve" smooth="yes"/>
      <point x="240" y="704"/>
      <point x="76" y="443"/>
      <point x="76" y="214" type="curve" smooth="yes"/>
      <point x="76" y="84"/>
      <point x="132" y="-10"/>
      <point x="225" y="-10" type="curve" smooth="yes"/>
      <point x="382" y="-10"/>
      <point x="545" y="255"/>
    </contour>
    <contour>
      <point x="192" y="367" type="line"/>
      <point x="257" y="615"/>
      <point x="348" y="671"/>
      <point x="395" y="671" type="curve" smooth="yes"/>
      <point x="465" y="671"/>
      <point x="465" y="551"/>
      <point x="465" y="536" type="curve" smooth="yes"/>
      <point x="465" y="527"/>
      <point x="465" y="469"/>
      <point x="438" y="367" type="curve"/>
    </contour>
    <contour>
      <point x="428" y="327" type="line"/>
      <point x="372" y="101"/>
      <point x="281" y="23"/>
      <point x="226" y="23" type="curve" smooth="yes"/>
      <point x="160" y="23"/>
      <point x="156" y="124"/>
      <point x="156" y="158" type="curve" smooth="yes"/>
      <point x="156" y="192"/>
      <point x="160" y="236"/>
      <point x="182" y="327" type="curve"/>
    </contour>
  </outline>
</glyph>
<glyph name="iota" format="2">
  <advance width="466"/>
  <unicode hex="03B9"/>
  <outline>
    <contour>
      <point x="405" y="144" type="curve" smooth="yes"/>
      <point x="405" y="146"/>
      <point x="404" y="158"/>
      <point x="386" y="158" type="curve" smooth="yes"/>
      <point x="372" y="158"/>
      <point x="370" y="151"/>
      <point x="367" y="142" type="curve" smooth="yes"/>
      <point x="337" y="52"/>
      <point x="242" y="23"/>
      <point x="195" y="23" type="curve" smooth="yes"/>
      <point x="185" y="23"/>
      <point x="165" y="23"/>
      <point x="165" y="59" type="curve" smooth="yes"/>
      <point x="165" y="78"/>
      <point x="171" y="93"/>
      <point x="181" y="119" type="curve" smooth="yes"/>
      <point x="225" y="233"/>
      <point x="266" y="398"/>
      <point x="266" y="407" type="curve" smooth="yes"/>
      <point x="266" y="431"/>
      <point x="247" y="441"/>
      <point x="231" y="441" type="curve" smooth="yes"/>
      <point x="220" y="441"/>
      <point x="197" y="435"/>
      <point x="186" y="410" type="curve"/>
      <point x="179" y="391"/>
      <point x="170" y="341"/>
      <point x="164" y="322" type="curve" smooth="yes"/>
      <point x="157" y="302"/>
      <point x="143" y="250"/>
      <point x="137" y="229" type="curve" smooth="yes"/>
      <point x="126" y="194"/>
      <point x="132" y="220"/>
      <point x="122" y="185" type="curve" smooth="yes"/>
      <point x="114" y="153"/>
      <point x="88" y="108"/>
      <point x="88" y="77" type="curve" smooth="yes"/>
      <point x="88" y="32"/>
      <point x="126" y="-10"/>
      <point x="192" y="-10" type="curve" smooth="yes"/>
      <point x="232" y="-10"/>
      <point x="289" y="4"/>
      <point x="335" y="40" type="curve" smooth="yes"/>
      <point x="393" y="85"/>
      <point x="405" y="138"/>
    </contour>
  </outline>
</glyph>
<glyph name="kappa" format="2">
  <advance width="725"/>
  <unicode hex="03BA"/>
  <outline>
    <contour>
      <point x="223" y="225" type="line"/>
      <point x="243" y="224"/>
      <point x="263" y="224"/>
      <point x="283" y="223" type="curve" smooth="yes"/>
      <point x="386" y="216"/>
      <point x="426" y="190"/>
      <point x="426" y="147" type="curve" smooth="yes"/>
      <point x="426" y="138"/>
      <point x="423" y="124"/>
      <point x="422" y="123" type="curve"/>
      <point x="419" y="108"/>
      <point x="419" y="102"/>
      <point x="419" y="94" type="curve" smooth="yes"/>
      <point x="419" y="27"/>
      <point x="475" y="-10"/>
      <point x="532" y="-10" type="curve" smooth="yes"/>
      <point x="629" y="-10"/>
      <point x="664" y="136"/>
      <point x="664" y="144" type="curve" smooth="yes"/>
      <point x="664" y="146"/>
      <point x="663" y="158"/>
      <point x="645" y="158" type="curve" smooth="yes"/>
      <point x="631" y="158"/>
      <point x="629" y="152"/>
      <point x="624" y="135" type="curve" smooth="yes"/>
      <point x="614" y="97"/>
      <point x="586" y="23"/>
      <point x="535" y="23" type="curve" smooth="yes"/>
      <point x="498" y="23"/>
      <point x="497" y="64"/>
      <point x="497" y="77" type="curve" smooth="yes"/>
      <point x="497" y="93"/>
      <point x="497" y="94"/>
      <point x="502" y="114" type="curve"/>
      <point x="502" y="115"/>
      <point x="507" y="135"/>
      <point x="507" y="147" type="curve" smooth="yes"/>
      <point x="507" y="222"/>
      <point x="425" y="252"/>
      <point x="296" y="257" type="curve"/>
      <point x="329" y="275"/>
      <point x="370" y="304"/>
      <point x="385" y="315" type="curve" smooth="yes"/>
      <point x="440" y="353"/>
      <point x="477" y="376"/>
      <point x="515" y="389" type="curve"/>
      <point x="513" y="385"/>
      <point x="513" y="380"/>
      <point x="513" y="375" type="curve" smooth="yes"/>
      <point x="513" y="345"/>
      <point x="536" y="336"/>
      <point x="553" y="336" type="curve" smooth="yes"/>
      <point x="586" y="336"/>
      <point x="610" y="366"/>
      <point x="610" y="392" type="curve" smooth="yes"/>
      <point x="610" y="407"/>
      <point x="602" y="431"/>
      <point x="566" y="431" type="curve" smooth="yes"/>
      <point x="498" y="431"/>
      <point x="427" y="382"/>
      <point x="376" y="346" type="curve" smooth="yes"/>
      <point x="324" y="310"/>
      <point x="279" y="279"/>
      <point x="233" y="265" type="curve"/>
      <point x="251" y="338" type="line" smooth="yes"/>
      <point x="257" y="361"/>
      <point x="267" y="401"/>
      <point x="267" y="407" type="curve" smooth="yes"/>
      <point x="267" y="431"/>
      <point x="248" y="441"/>
      <point x="232" y="441" type="curve" smooth="yes"/>
      <point x="195" y="441"/>
      <point x="186" y="407"/>
      <point x="183" y="393" type="curve" smooth="yes"/>
      <point x="96" y="47" type="line" smooth="yes"/>
      <point x="92" y="31"/>
      <point x="92" y="26"/>
      <point x="92" y="23" type="curve" smooth="yes"/>
      <point x="92" y="1"/>
      <point x="109" y="-10"/>
      <point x="127" y="-10" type="curve" smooth="yes"/>
      <point x="154" y="-10"/>
      <point x="169" y="10"/>
      <point x="175" y="33" type="curve" smooth="yes"/>
    </contour>
  </outline>
</glyph>
<glyph name="lambda" format="2">
  <advance width="736"/>
  <unicode hex="03BB"/>
  <outline>
    <contour>
      <point x="433" y="286" type="line"/>
      <point x="552" y="26" type="line" smooth="yes"/>
      <point x="559" y="12"/>
      <point x="571" y="3"/>
      <point x="572" y="3" type="curve"/>
      <point x="590" y="-10"/>
      <point x="598" y="-10"/>
      <point x="616" y="-10" type="curve" smooth="yes"/>
      <point x="636" y="-10" type="line" smooth="yes"/>
      <point x="654" y="-10"/>
      <point x="666" y="-10"/>
      <point x="666" y="4" type="curve" smooth="yes"/>
      <point x="666" y="10"/>
      <point x="663" y="14"/>
      <point x="659" y="17" type="curve" smooth="yes"/>
      <point x="648" y="26"/>
      <point x="641" y="40"/>
      <point x="635" y="53" type="curve" smooth="yes"/>
      <point x="372" y="629" type="line" smooth="yes"/>
      <point x="361" y="654"/>
      <point x="342" y="694"/>
      <point x="232" y="694" type="curve" smooth="yes"/>
      <point x="218" y="694"/>
      <point x="201" y="694"/>
      <point x="201" y="677" type="curve" smooth="yes"/>
      <point x="201" y="667"/>
      <point x="209" y="662"/>
      <point x="215" y="661" type="curve"/>
      <point x="247" y="658"/>
      <point x="265" y="653"/>
      <point x="296" y="588" type="curve" smooth="yes"/>
      <point x="416" y="324" type="line"/>
      <point x="113" y="62" type="line" smooth="yes"/>
      <point x="99" y="50"/>
      <point x="90" y="42"/>
      <point x="90" y="24" type="curve" smooth="yes"/>
      <point x="90" y="-1"/>
      <point x="110" y="-12"/>
      <point x="126" y="-12" type="curve" smooth="yes"/>
      <point x="143" y="-12"/>
      <point x="154" y="0"/>
      <point x="162" y="8" type="curve" smooth="yes"/>
    </contour>
  </outline>
</glyph>
<glyph name="nu" format="2">
  <advance width="621"/>
  <unicode hex="03BD"/>
  <outline>
    <contour>
      <point x="272" y="427" type="line"/>
      <point x="271" y="431"/>
      <point x="270" y="441"/>
      <point x="254" y="441" type="curve" smooth="yes"/>
      <point x="252" y="441"/>
      <point x="193" y="436"/>
      <point x="185" y="436" type="curve"/>
      <point x="156" y="433"/>
      <point x="154" y="433"/>
      <point x="128" y="431" type="curve" smooth="yes"/>
      <point x="110" y="430"/>
      <point x="98" y="428"/>
      <point x="98" y="405" type="curve" smooth="yes"/>
      <point x="98" y="390"/>
      <point x="111" y="390"/>
      <point x="127" y="390" type="curve" smooth="yes"/>
      <point x="144" y="390"/>
      <point x="156" y="388"/>
      <point x="157" y="388" type="curve"/>
      <point x="174" y="386"/>
      <point x="176" y="384"/>
      <point x="176" y="375" type="curve" smooth="yes"/>
      <point x="176" y="369"/>
      <point x="166" y="330"/>
      <point x="160" y="307" type="curve" smooth="yes"/>
      <point x="136" y="212" type="line"/>
      <point x="96" y="48" type="line"/>
      <point x="93" y="38"/>
      <point x="88" y="19"/>
      <point x="88" y="16" type="curve" smooth="yes"/>
      <point x="88" y="0"/>
      <point x="103" y="0"/>
      <point x="108" y="0" type="curve" smooth="yes"/>
      <point x="125" y="0" type="line"/>
      <point x="259" y="21"/>
      <point x="380" y="83"/>
      <point x="468" y="160" type="curve" smooth="yes"/>
      <point x="600" y="275"/>
      <point x="622" y="400"/>
      <point x="622" y="407" type="curve" smooth="yes"/>
      <point x="622" y="431"/>
      <point x="603" y="441"/>
      <point x="587" y="441" type="curve" smooth="yes"/>
      <point x="575" y="441"/>
      <point x="549" y="435"/>
      <point x="540" y="402" type="curve" smooth="yes"/>
      <point x="481" y="194"/>
      <point x="312" y="90"/>
      <point x="200" y="52" type="curve" smooth="yes"/>
      <point x="192" y="49" type="line"/>
      <point x="177" y="45" type="line"/>
    </contour>
  </outline>
</glyph>
<glyph name="xi" format="2">
  <advance width="571"/>
  <unicode hex="03BE"/>
  <outline>
    <contour>
      <point x="244" y="289" type="curve"/>
      <point x="290" y="276"/>
      <point x="330" y="276"/>
      <point x="350" y="276" type="curve" smooth="yes"/>
      <point x="389" y="276"/>
      <point x="459" y="276"/>
      <point x="459" y="314" type="curve" smooth="yes"/>
      <point x="459" y="345"/>
      <point x="409" y="347"/>
      <point x="363" y="347" type="curve" smooth="yes"/>
      <point x="339" y="347"/>
      <point x="306" y="347"/>
      <point x="263" y="333" type="curve"/>
      <point x="235" y="355"/>
      <point x="226" y="384"/>
      <point x="226" y="411" type="curve" smooth="yes"/>
      <point x="226" y="477"/>
      <point x="279" y="540"/>
      <point x="347" y="567" type="curve"/>
      <point x="371" y="543"/>
      <point x="398" y="543"/>
      <point x="422" y="543" type="curve" smooth="yes"/>
      <point x="455" y="543"/>
      <point x="526" y="543"/>
      <point x="526" y="581" type="curve" smooth="yes"/>
      <point x="526" y="614"/>
      <point x="470" y="614"/>
      <point x="428" y="614" type="curve" smooth="yes"/>
      <point x="399" y="614"/>
      <point x="392" y="614"/>
      <point x="362" y="610" type="curve"/>
      <point x="361" y="612"/>
      <point x="357" y="625"/>
      <point x="357" y="642" type="curve" smooth="yes"/>
      <point x="357" y="660"/>
      <point x="362" y="674"/>
      <point x="362" y="681" type="curve" smooth="yes"/>
      <point x="362" y="693"/>
      <point x="351" y="698"/>
      <point x="345" y="698" type="curve" smooth="yes"/>
      <point x="320" y="698"/>
      <point x="320" y="653"/>
      <point x="320" y="643" type="curve" smooth="yes"/>
      <point x="320" y="623"/>
      <point x="321" y="618"/>
      <point x="326" y="603" type="curve"/>
      <point x="148" y="558"/>
      <point x="133" y="445"/>
      <point x="133" y="414" type="curve" smooth="yes"/>
      <point x="133" y="363"/>
      <point x="167" y="326"/>
      <point x="202" y="307" type="curve"/>
      <point x="101" y="254"/>
      <point x="55" y="157"/>
      <point x="55" y="104" type="curve" smooth="yes"/>
      <point x="55" y="28"/>
      <point x="122" y="-11"/>
      <point x="182" y="-31" type="curve" smooth="yes"/>
      <point x="242" y="-52"/>
      <point x="245" y="-53"/>
      <point x="296" y="-69" type="curve" smooth="yes"/>
      <point x="311" y="-74"/>
      <point x="382" y="-97"/>
      <point x="389" y="-100" type="curve"/>
      <point x="402" y="-107"/>
      <point x="405" y="-116"/>
      <point x="405" y="-128" type="curve" smooth="yes"/>
      <point x="405" y="-142"/>
      <point x="395" y="-171"/>
      <point x="363" y="-171" type="curve" smooth="yes"/>
      <point x="358" y="-171"/>
      <point x="313" y="-171"/>
      <point x="266" y="-148" type="curve" smooth="yes"/>
      <point x="251" y="-140"/>
      <point x="249" y="-140"/>
      <point x="246" y="-140" type="curve" smooth="yes"/>
      <point x="240" y="-140"/>
      <point x="229" y="-145"/>
      <point x="229" y="-156" type="curve" smooth="yes"/>
      <point x="229" y="-172"/>
      <point x="269" y="-185"/>
      <point x="284" y="-190" type="curve" smooth="yes"/>
      <point x="325" y="-204"/>
      <point x="356" y="-204"/>
      <point x="362" y="-204" type="curve" smooth="yes"/>
      <point x="435" y="-204"/>
      <point x="473" y="-137"/>
      <point x="473" y="-94" type="curve" smooth="yes"/>
      <point x="473" y="-38"/>
      <point x="431" y="-24"/>
      <point x="402" y="-14" type="curve" smooth="yes"/>
      <point x="319" y="13" type="line" smooth="yes"/>
      <point x="236" y="39"/>
      <point x="190" y="54"/>
      <point x="172" y="63" type="curve" smooth="yes"/>
      <point x="126" y="87"/>
      <point x="119" y="111"/>
      <point x="119" y="132" type="curve" smooth="yes"/>
      <point x="119" y="170"/>
      <point x="154" y="246"/>
    </contour>
    <contour>
      <point x="466" y="578" type="line"/>
      <point x="454" y="577"/>
      <point x="447" y="576"/>
      <point x="424" y="576" type="curve" smooth="yes"/>
      <point x="404" y="576"/>
      <point x="402" y="576"/>
      <point x="391" y="579" type="curve"/>
      <point x="404" y="581"/>
      <point x="410" y="581"/>
      <point x="429" y="581" type="curve" smooth="yes"/>
      <point x="453" y="581"/>
      <point x="459" y="580"/>
      <point x="466" y="579" type="curve"/>
    </contour>
    <contour>
      <point x="317" y="311" type="curve"/>
      <point x="334" y="314"/>
      <point x="339" y="314"/>
      <point x="362" y="314" type="curve" smooth="yes"/>
      <point x="366" y="314"/>
      <point x="402" y="314"/>
      <point x="402" y="312" type="curve" smooth="yes"/>
      <point x="402" y="309"/>
      <point x="359" y="309"/>
      <point x="355" y="309" type="curve" smooth="yes"/>
      <point x="336" y="309"/>
      <point x="330" y="309"/>
    </contour>
  </outline>
</glyph>
<glyph name="pi" format="2">
  <advance width="726"/>
  <unicode hex="03C0"/>
  <outline>
    <contour>
      <point x="340" y="360" type="line"/>
      <point x="463" y="360" type="line"/>
      <point x="442" y="272"/>
      <point x="429" y="207"/>
      <point x="429" y="142" type="curve" smooth="yes"/>
      <point x="429" y="91"/>
      <point x="443" y="-10"/>
      <point x="490" y="-10" type="curve" smooth="yes"/>
      <point x="516" y="-10"/>
      <point x="539" y="14"/>
      <point x="539" y="36" type="curve" smooth="yes"/>
      <point x="539" y="45"/>
      <point x="534" y="53"/>
      <point x="532" y="58" type="curve"/>
      <point x="495" y="124"/>
      <point x="489" y="188"/>
      <point x="489" y="239" type="curve" smooth="yes"/>
      <point x="489" y="255"/>
      <point x="489" y="299"/>
      <point x="502" y="360" type="curve"/>
      <point x="634" y="360" type="line" smooth="yes"/>
      <point x="646" y="360"/>
      <point x="689" y="360"/>
      <point x="689" y="401" type="curve" smooth="yes"/>
      <point x="689" y="431"/>
      <point x="661" y="431"/>
      <point x="644" y="431" type="curve" smooth="yes"/>
      <point x="246" y="431" type="line" smooth="yes"/>
      <point x="226" y="431"/>
      <point x="181" y="431"/>
      <point x="127" y="381" type="curve" smooth="yes"/>
      <point x="96" y="352"/>
      <point x="60" y="304"/>
      <point x="60" y="294" type="curve" smooth="yes"/>
      <point x="60" y="280"/>
      <point x="74" y="280"/>
      <point x="78" y="280" type="curve" smooth="yes"/>
      <point x="89" y="280"/>
      <point x="91" y="282"/>
      <point x="98" y="291" type="curve" smooth="yes"/>
      <point x="115" y="315"/>
      <point x="154" y="360"/>
      <point x="236" y="360" type="curve" smooth="yes"/>
      <point x="301" y="360" type="line"/>
      <point x="267" y="236"/>
      <point x="199" y="101"/>
      <point x="186" y="75" type="curve" smooth="yes"/>
      <point x="177" y="59"/>
      <point x="164" y="34"/>
      <point x="164" y="24" type="curve" smooth="yes"/>
      <point x="164" y="3"/>
      <point x="180" y="-10"/>
      <point x="200" y="-10" type="curve" smooth="yes"/>
      <point x="235" y="-10"/>
      <point x="247" y="25"/>
      <point x="258" y="57" type="curve" smooth="yes"/>
      <point x="278" y="120"/>
      <point x="278" y="122"/>
      <point x="292" y="176" type="curve" smooth="yes"/>
    </contour>
  </outline>
</glyph>
